<?xml version="1.0" encoding="UTF-8"?>
<svg id="Layer_2" data-name="Layer 2" xmlns="http://www.w3.org/2000/svg" viewBox="0 0 462.81 347.5">
  <defs>
    <style>
      .cls-1 {
        stroke-width: 2.37px;
      }

      .cls-1, .cls-2, .cls-3, .cls-4, .cls-5, .cls-6, .cls-7, .cls-8, .cls-9, .cls-10, .cls-11, .cls-12, .cls-13, .cls-14, .cls-15, .cls-16, .cls-17, .cls-18, .cls-19 {
        stroke-linejoin: round;
      }

      .cls-1, .cls-2, .cls-3, .cls-4, .cls-5, .cls-6, .cls-7, .cls-8, .cls-9, .cls-11, .cls-13, .cls-14, .cls-15, .cls-16, .cls-18, .cls-19 {
        fill-rule: evenodd;
      }

      .cls-1, .cls-2, .cls-4, .cls-5, .cls-6 {
        fill: #9b7f57;
        stroke: #9b7f57;
      }

      .cls-2, .cls-18 {
        stroke-width: 2.26px;
      }

      .cls-3, .cls-7, .cls-8, .cls-9, .cls-10, .cls-11, .cls-13, .cls-17 {
        stroke: #000;
      }

      .cls-3, .cls-7, .cls-17 {
        stroke-width: .7px;
      }

      .cls-3, .cls-9, .cls-10, .cls-11, .cls-12, .cls-13, .cls-17 {
        stroke-linecap: round;
      }

      .cls-4 {
        stroke-width: 8.69px;
      }

      .cls-6 {
        stroke-width: 4.23px;
      }

      .cls-8, .cls-9, .cls-10, .cls-12, .cls-15, .cls-16 {
        stroke-width: .8px;
      }

      .cls-10, .cls-17 {
        fill: none;
      }

      .cls-12 {
        fill: #161fff;
        stroke: #161fff;
      }

      .cls-13 {
        stroke-width: .71px;
      }

      .cls-14 {
        stroke-width: 1.51px;
      }

      .cls-14, .cls-18, .cls-19 {
        fill: #6d522a;
        stroke: #6d522a;
      }

      .cls-15 {
        isolation: isolate;
        opacity: .32;
      }

      .cls-15, .cls-16 {
        fill: #e0cd98;
        stroke: #e0cd98;
      }

      .cls-19 {
        stroke-width: .67px;
      }
    </style>
  </defs>
  <g id="BACKGROUND">
    <path class="cls-12" d="m436.07,178.29h-59.92c2.91-5.69,4.57-12.16,4.57-19.01v-1.6c0-16.09-9.11-30.08-22.24-36.73h54.69c14.49,0,26.34-12.28,26.34-27.28v-1.07c0-15-11.85-27.28-26.34-27.28h-88.58c6.43-4.99,10.62-12.94,10.62-21.85v-1.07c0-15-11.85-27.28-26.34-27.28H26.74C12.25,15.14.4,27.41.4,42.41v1.07c0,.09,0,.18,0,.27.11,12,10.81,21.58,23.69,21.58h107.66c5.88,0,11.33,2.02,15.73,5.43,6.43,4.99,10.62,12.94,10.62,21.85,0,10.51-5.82,19.67-14.29,24.22H54.24c-5.27,0-10.3,1.09-14.9,3.05-14.36,6.12-24.55,20.78-24.55,37.8v1.6c0,22.47,17.75,40.85,39.45,40.85h120.91c3.21,0,5.84,2.45,5.84,5.44h0c0,10.51-5.82,19.67-14.29,24.22h-89.57c-5.27,0-10.3,1.09-14.9,3.05-14.36,6.12-24.55,20.78-24.55,37.8v1.6c0,22.47,17.75,40.85,39.45,40.85h287.02c21.7,0,39.45-18.38,39.45-40.85v-1.6c0-16.09-9.11-30.08-22.24-36.73h54.69c14.49,0,26.34-12.28,26.34-27.28v-1.07c0-15-11.85-27.28-26.34-27.28Z"/>
  </g>
  <g id="OBJECTS">
    <g>
      <path class="cls-5" d="m145.39,46.71c.14-1.68.4-3.23.7-4.88.15-.86,1.12-3.07.39-2.59-1.04.67-1.21,9.2-1.24,10.34-.17,4.73.12-.22-.16,2.7-.06.64.38,2.34-.11,1.92-2.18-1.86-.59-9.36-.32-11.94.21-2.02.2-1.72.64-3.61.06-.27.61-2.22.71-2.08,1.34,1.77-1.12,8.97-1.14,11.25-.01,1.25-.07,2.57,0,3.82.04.8.76,2.92.16,2.39-1.97-1.75-.8-8.31-.49-10.67.12-.97.22-1.92.45-2.87.14-.59.13-2.26.47-1.76,1.24,1.83-1.25,9.58-1.19,12.07.03,1.36.11,2.73.16,4.09.02.48.53,1.78.22,1.42-1.77-2.12-.68-8.24-.38-10.93.01-.12,1.36-8.14,1.94-7.83,1.68.9-.22,8.58-.34,10.22-.05.68-.23,4.1-.28,4.99-.05.86.66,3.07-.05,2.58-1.88-1.29.36-11.08.71-13.06.28-1.57.67-3.15,1.12-4.67.18-.6.39-2.33.63-1.75,1.56,3.64-.59,11.12-1.08,14.96-.16,1.27.6,3.28-.57,3.79-.72.32-.31-3.22-.28-3.54.39-3.64,1.02-7.25,1.84-10.82.34-1.49.71-2.58,1.13-4.06.2-.69.16-2.63.59-2.06,1.05,1.37.13,3.31-.06,4.89-.57,4.68-2.21,10.42-1.8,15.15.06.7-.38-1.38-.33-2.08.05-.82.09-1.64.14-2.45.29-4.11,1.09-8.03,2.28-11.98.49-1.63.18-5.5,1.74-4.81,1.24.54,0,4.78-.11,5.39-.71,4.31-.74,10.83-2.72,14.82-.28.56-.47-1.18-.5-1.8-.04-.79.19-1.58.3-2.36.56-3.96,1.28-7.87,2.48-11.68.77-2.46.51-1.72,1.35-3.78.14-.35.45-1.35.57-.99,1.34,4.06-1.32,12.51-2.01,16.58-.14.84-.3,1.68-.46,2.51-.12.65-.13,2.5-.47,1.93-2.58-4.36,1.7-14.61,3.39-18.81.56-1.38.69-4.11,2.17-3.92.83.11.51,1.66.4,2.49-.66,4.78-1.86,9.68-2.99,14.36-.29,1.19-.8,4.66-1.14,3.49-1.45-4.98,2.14-18.24,6-21.8,1.01-.93.03,2.76-.18,4.12-.25,1.55-.71,3.05-1.07,4.58-.88,3.64-1.52,8.23-3.16,11.67-.38.79-.52-1.71-.46-2.58.08-1.09.5-2.12.76-3.18,1-4.06,2.24-8.11,4.19-11.82.42-.8.65-2.53,1.5-2.25,1.48.5-1.08,8.52-1.15,8.79-.4,1.54-.91,3.55-1.49,5.22-.46,1.32-.09,4.45-1.4,3.96-1.56-.58.07-4.19.27-4.95.92-3.48,1.93-6.82,3.45-10.11.5-1.07.8-2.65,1.94-2.96,1.24-.34.15,2.59-.03,3.87-.52,3.55-1.82,7.1-2.82,10.54-.27.93-.5,1.88-.78,2.81-.18.58-.14,2.17-.56,1.73-1.23-1.29.17-3.59.57-5.07.67-2.52,2.22-12.58,5.21-13.71,1.3-.49.16,2.79-.06,4.16-.49,3.15-1.43,6.55-2.29,9.65-.19.69-.43,1.38-.62,2.07-.1.36-.35,1.42-.39,1.05-.33-3.77,1.63-8.33,2.8-11.86.04-.11,2.55-5.74,2.75-4.78.68,3.15-.79,6.37-1.59,9.37-.49,1.82-.94,3.65-1.45,5.46-.29,1.06-.29,3.96-1.01,3.13-2.14-2.46,2.27-11.22,3.33-13.71.34-.81,1.44-3.99,2.35-4.37.94-.39.58,2.02.45,3.03-.47,3.54-1.79,9.18-3.81,12.29-.58.9-.24-2.18.05-3.21.79-2.85,1.5-5.72,2.57-8.49.54-1.41,2.37-5.21,2.59-3.71.48,3.33-1.85,9.2-2.68,12.25-.33,1.2-.74,2.37-1.11,3.56-.09.3-.26,1.16-.34.86-.91-3.28.42-6.59,1.63-9.7.44-1.13.86-2.26,1.38-3.35.35-.75.82-1.45,1.22-2.17.21-.38.87-1.43.87-.99-.03,4.18-1.34,7.02-3.05,10.81-.56,1.25-1.15,2.49-1.75,3.73-.28.57-.4,1.87-1,1.63-1.65-.66-.86-2.38-.65-3.72.61-3.91,1.64-7.94,3.02-11.65.54-1.44.53-4.04,2.07-4.13.76-.05,0,1.54-.24,2.26-.53,1.57-1.14,3.11-1.74,4.66-1.55,4.05-2.95,9.24-5.65,12.75-.25.33-.45-3.36-.33-3.78,1.1-4.05,2.31-8.08,4.02-11.92.28-.62.65-1.19,1-1.77.28-.46.94-1.85.95-1.31.06,6.08-4.05,13.23-6.71,18.61-.54,1.09-1.08,3.83-2.02,3.05-1.54-1.29-.12-4.05.31-6.01.84-3.83,2.48-7.57,4.24-11.08,1.05-2.09,1.35-5.43,3.62-6.01,1.11-.28-.22,2.31-.61,3.4-.47,1.34-1.11,2.61-1.68,3.91-1.97,4.47-3.85,9.02-5.99,13.41-.65,1.34-.85,4.16-2.31,3.84-.68-.15-.3-2.7-.3-2.72,1.15-3.97,3.02-8.3,4.76-12.04.37-.8.8-1.56,1.23-2.33.52-.95,1.01-3.72,1.61-2.82.68,1-.2,2.13-.58,2.98-2.14,4.7-3.9,9.54-6,14.26-.6,1.35-.75,3.38-2.14,3.87-1.11.39-.67-2.93-.48-3.85,1.21-5.62,2.65-13.85,6.37-18.51.95-1.19-.49,3.02-.9,4.49-1.28,4.51-3.26,9.07-5.09,13.38-.59,1.39-1.22,2.77-1.9,4.13-.23.47-.66,1.69-.95,1.25-1.04-1.57-.44-3.14-.06-4.88,1.17-5.37,2.99-11.91,6.04-16.58.18-.28.36.64.28.96-.42,1.71-1.17,3.32-1.7,5-1.32,4.19-2.65,8.4-4.13,12.54-.38,1.06-.24,2.96-1.36,3.08-1.34.15-.49-2.7-.32-4.04.52-3.94,1.85-7.8,3.44-11.42.5-1.14,1.04-2.27,1.54-3.42.23-.51.39-2.01.71-1.54.68,1.01-.39,2.23-.73,3-2.33,5.29-4.49,10.6-6.96,15.82-.29.61-2.02,5.39-1.48,5.65.74.35,1.17-3.03.72-2.34-2.2,3.42,5.05-6.93,2.64-1.1l-.14.03c-.35-.34,1.05-.96.68-1.28,0,0-3.18,3.51-3.74,3.76-.92.42-.71-2.4.92-1.54,1.01.53-1.18,3.54-1.83,2.38-1.03-1.82,2.86-8.33,3.41-9.5.7-1.49,1.33-3.01,1.96-4.53.44-1.05.82-2.13,1.26-3.18.26-.62,1.99-6.44,3.78-6.94.54-.15-.47,1.02-.7,1.53-.57,1.27-2.11,4.55-2.61,6.04-1.27,3.8-1.61,8.59-3.18,12.2-.42.97.92-1.91,1.27-2.9.49-1.38.9-2.8,1.36-4.19,1.02-3.1,1.99-6.28,3.08-9.36.47-1.33.8-2.74,1.47-3.99.15-.28.99-.78.81-.51-4.07,5.98-5.08,14.06-7,20.81-.13.45.68-.66.88-1.08.67-1.35,1.28-2.73,1.87-4.11,1.85-4.36,3.08-9.07,5.09-13.35.64-1.36,3.16-5.03,2.04-4.02-3.86,3.48-5.29,13.63-6.28,18.33-.14.67-.97,3.38-.71,3.47,1.38.44,1.49-2.48,2.07-3.8,2.07-4.76,3.74-9.61,5.95-14.31.48-1.02.56-2.09,1.8-2.36,1.04-.23-1.12,1.82-1.65,2.75-.43.76-.86,1.52-1.23,2.31-1.85,3.95-3.25,7.78-4.73,11.88-.06.17-.85,2.22-.76,2.35.21.28,3.57-6.94,3.65-7.12.96-2.19,3.47-7.8,4.5-10.11.57-1.29,1.03-2.62,1.69-3.86.51-.97,2.68-2.3,1.71-2.8-.55-.28-.87.89-1.17,1.42-.82,1.47-1.59,2.98-2.34,4.49-2.08,4.17-6.08,11.72-5.63,16.47.11,1.18,1.47-1.87,1.98-2.94.69-1.47,1.33-2.96,1.95-4.45,1.9-4.55,3.01-9.51,5.83-13.55.29-.41-.64.76-.9,1.19-.35.57-.71,1.13-.98,1.74-1.37,3.08-2.07,5.2-3,8.4-.47,1.61-.6,3.33-1.24,4.88-.26.62-1.12,2.4-.72,1.87,4.02-5.4,4.09-14.34,8.82-18.92.24-.24-.55.44-.69.75-1.07,2.31-1.53,3.53-2.17,5.93-1.06,3.95-1.83,8.06-2.78,12-.14.59.68-1,.94-1.54.59-1.23,1.18-2.45,1.74-3.69.1-.23,4.45-9.42,4.09-10.07-.56-1.01-1.34,1.89-1.83,2.93-.5,1.08-.92,2.2-1.34,3.31-1.18,3.13-1.22,6.36-2.96,9.2-.15.24.29-.49.38-.76.4-1.16.8-2.32,1.14-3.5.73-2.54,3.52-9.15,3.37-11.96-.03-.56-.74.85-.99,1.35-.4.78-.75,1.59-1.06,2.42-1.04,2.77-1.7,5.63-2.46,8.48-.17.65-.27,1.34-.57,1.94-.17.35-.99,1.16-.81.82,1.19-2.35,2.05-5.08,2.76-7.6.41-1.46.69-2.96,1.09-4.42.25-.91,1.6-2.82.66-2.75-.68.05-2.11,3.77-2.32,4.27-1.34,3.23-1.89,11.16-4.5,13.32-.84.69.68-2.07.97-3.11,1.14-4.11,2.04-8.31,3.18-12.41.19-.7,1.3-1.62.72-2.05-.55-.4-2.36,4.66-2.39,4.75-1.14,3.44-1.21,8.97-3.9,11.55-.78.75.51-2.1.8-3.15.88-3.16,1.43-6.43,2.34-9.58.36-1.25,2.53-3.36,1.27-3.7-1.38-.38-1.53,2.43-2.07,3.76-1.47,3.65-2.4,7.45-3.33,11.27-.22.9-.03,3.02-1.5,3.21-.6.08.37-1.14.55-1.71.29-.93.5-1.87.77-2.8,2-6.85.44-1,2.37-8.39,1.96-7.52-1.33,4.68,1.49-4.66.09-.29.39-.89.09-.89-1.14.01-1.39,1.84-1.86,2.88-1.5,3.28-2.49,6.57-3.35,10.04-.15.59-.32,4.73-1.6,4.55-.6-.08.45-1.13.67-1.69.39-.99.77-1.98,1.07-2.99.95-3.21,3.8-9.39,3.45-12.73-.09-.86-1.05,1.39-1.44,2.17-.34.65-.63,1.33-.91,2.01-1.33,3.17-2.35,6.38-3.15,9.73-.25,1.04-.39,2.11-.71,3.12-.25.79-1.26,3.06-.9,2.31,1.67-3.46,2.28-7.95,3.18-11.62.37-1.51.64-3.06,1.1-4.54.39-1.26,2.32-4.57,1.31-3.72-5.08,4.31-4.77,15.65-7.04,21.33-.44,1.11.76-2.27,1.03-3.43.42-1.79.78-3.6,1.17-5.4.79-3.65,1.27-7.51,2.61-10.94.18-.46-.66.74-.88,1.18-.92,1.86-1.83,4.21-2.45,6.14-1.45,4.51-1.04,10.94-3.39,14.86-.33.55.38-1.24.52-1.87.18-.83.36-1.66.51-2.49.94-5.25,1.17-11.28,2.96-16.27.12-.33-.4.59-.53.92-.72,1.78-.68,1.67-1.3,3.75-1.12,3.8-1.77,7.7-2.32,11.63-.11.78-.08,1.59-.29,2.35-.16.56-1.07,2.07-.76,1.58,2.12-3.29,2.06-11,2.69-14.74.15-.91.29-1.83.44-2.75.02-.11.85-2.53.58-2.1-2.35,3.78-3.13,10.12-3.58,14.34-.18,1.7.5,5.58-1.01,6.68-.95.69.04-2.36.19-3.52.17-1.37.35-2.75.53-4.12.2-1.57.34-11.33,2.13-12.42.61-.37-.41,1.37-.61,2.06-.46,1.63-.72,2.4-1.08,4.04-.77,3.55-1.37,7.15-1.72,10.77-.12,1.28.15,2.88-.98,3.37-.51.23.2-1.1.28-1.66.07-.51.42-3.34.48-3.94.39-3.82.02-9.52,2.07-12.83.32-.51-.48,1.1-.65,1.67-.43,1.51-.8,3.07-1.07,4.62-.64,3.67-.89,7.35-1.03,11.06-.03.71.09,2.05-.85,2.03-.31,0-.08-2.52-.07-2.72.15-4.07.55-8.14.96-12.19.1-.95,1.31-3.53.76-2.76-2.48,3.51-2.07,9.85-2.15,13.89-.03,1.39.95,3.93-.32,4.82-.16.11-.36-1.42-.36-1.56-.05-1.38-.16-2.77-.18-4.15-.03-2.48.12-10.25,2.33-11.91.47-.36-.34,1.13-.47,1.71-.22.93-.32,1.88-.44,2.83-.28,2.32-.4,4.51-.24,6.84.09,1.28.77,4.7-.19,3.84-1.83-1.62.04-10.28.37-12.25.19-1.14.48-2.27.71-3.4.12-.61,1.19-2.15.73-1.73-2.42,2.15-1.6,11.38-1.49,14.31.01.3.65,3.58-.47,3.21-.32-.11.13-2.72.14-2.91.16-2.56,3.24-17.22,1.65-8.62-.41,2.22-.31,1.7-.51,4.03"/>
      <path class="cls-5" d="m149.73,32.18c3.26-6.26,4.97-10.09,11.65-14.74.25-.17-.26.55-.45.78-.48.57-1.13.96-1.65,1.49-1.66,1.68-2.07,2.14-3.63,4.11-2.4,3.02-4.66,6.15-6.75,9.39-1.68,2.6-1.84,2.85-3.3,5.42-.28.5-.5,2.1-.73,1.57-.56-1.27.81-3.33,1.34-4.49,2.05-4.5,4.56-8.76,7.77-12.53.21-.24,5.98-5.24,6.01-5.07.24,1.45-3.43,4.2-4.25,5.04-3.31,3.43-8.55,9.6-9.8,14.39-.17.65.19-1.36.51-1.96.44-.82,1.43-2.43,1.8-2.99,3.51-5.35,7.34-10.38,12.54-14.22,2.35-1.74,2.59-1.95,5.18-3.29.78-.4,2.91-1.49,2.53-.7-.83,1.71-2.74,2.73-4.09,3.96-3.79,3.45-7.28,7.24-10.76,10.99-.6.65-2.62,2.81-3.48,3.78-.48.54-1.74,2.3-1.45,1.63,2.82-6.64,10.42-12.76,16-16.98,1.81-1.37,3.86-2.4,5.86-3.45.73-.39,2.53-1.84,2.25-1.06-.9,2.56-7.77,6.28-9.33,7.67-4.18,3.71-7.56,8.49-11.93,11.95-.57.45.38-1.41.74-2.03.55-.94,4.06-4.94,4.19-5.07,3.42-3.65,7.08-7.03,11.18-9.91,1.09-.77,2.2-1.51,3.32-2.22.47-.3,1.69-1.37,1.43-.88-2,3.76-9.43,7.84-12.6,10.42-.32.26-5.79,3.91-5.74,3.82,2.54-4.83,8.06-8.86,12.58-11.83,1.67-1.1,4.15-2.54,6.04-3.57.92-.5,3.15-2.35,2.85-1.34-.37,1.21-3.8,2.71-4.48,3.15-2.45,1.6-4.78,3.4-7.1,5.18-1.51,1.15-2.99,2.34-4.53,3.45-.99.72-3.47,3.01-3.22,1.81.5-2.41,3.48-4.27,5.28-5.68,3.2-2.51,6.67-4.66,10.28-6.52,1.11-.57,5.38-2.07,6.56-3.25.41-.41-.99.58-1.5.86-4.44,2.47-1.58.61-4.63,2.58-3.62,2.35-7.23,5.85-11.25,7.47-.8.32.76-1.57,1.38-2.17,1.76-1.72,3.94-2.96,6.01-4.29,3.78-2.44,8.62-5.62,13.04-6.69.35-.09-.36.66-.65.87-1.36.99-3.37,1.85-4.9,2.66-4.06,2.14-8.02,4.38-11.92,6.79-3.22,1.99-2.84,1.68-5.3,3.42-.5.35-1.74,1.6-1.51,1.03.58-1.5,3.36-2.91,4.48-3.66,4.05-2.74,8.23-5.32,12.65-7.45,1.5-.72,3.04-1.36,4.57-2.02,1.43-.62,3.65-3.08,4.37-1.69.31.6-1.02.88-1.6,1.22-1.41.81-2.82,1.61-4.21,2.46-5.12,3.13-10.02,6.86-14.7,10.61-2.23,1.79-4.29,3.79-6.47,5.64-.36.3-1.28,1.32-1.1.89,2.15-5.28,10.77-10.52,15.46-13.33,2.49-1.49,3.74-2.15,6.24-3.25.67-.3,1.93-1.43,2.08-.72.23,1.07-1.42,1.7-2.29,2.37-1.84,1.41-3.73,2.76-5.55,4.21-6.53,5.21-12.4,12.16-19.48,16.53-.87.54.83-1.89,1.46-2.7.79-1,4.93-5.2,5.97-6.1,5.51-4.75,12.02-9.68,19.06-12.01.84-.28-1.26,1.25-1.96,1.78-7.5,5.64-1.39.53-10.09,7.37-1.12.88-8.08,6.66-9.79,8.2-1.36,1.22-5.02,5.63-6.88,6.68-1.11.62,1.54-2.03,2.39-2.97.65-.72,1.36-1.36,2.04-2.05,3.79-3.83,7.7-7.52,12.03-10.74,2.58-1.92,3.5-2.46,6.08-3.74.7-.35,2.69-1.51,2.16-.93-5.44,5.91-12.25,10.91-18.12,16.44-1.45,1.36-2.91,2.7-4.36,4.06-.91.85-1.82,1.71-2.72,2.57-.28.27-1.04,1.12-.85.79,3.47-5.91,8.65-10.48,13.89-14.78,4.44-3.64,2.05-1.8,5.81-4.4,1.8-1.25-1.13.54,2.78-1.78.21-.13.79-.57.66-.36-1.76,2.91-7.05,5.85-9.37,7.7-4.81,3.85-9.46,9.82-14.63,13.06-.41.26.17-.97.41-1.39.67-1.16,1.44-2.26,2.2-3.36,1.44-2.11,4.25-5.93,5.74-7.76.75-.92,1.58-1.77,2.39-2.64.31-.33.98-1.46.93-1.01-.18,1.48-6.2,8.21-6.53,8.67-1.86,2.58-2.47,3.39-4.27,5.74-.32.42-.59,1.5-1.04,1.21-1.03-.66,1.04-3.88,1.38-4.49,2.01-3.65,4.57-6.82,6.76-10.33.28-.46-.45.98-.73,1.44-.47.8-1.1,1.49-1.59,2.27-.81,1.27-1.58,2.58-2.34,3.88-.75,1.29-1.46,2.6-2.19,3.9-.22.4-.63,1.67-.6,1.22.13-1.6,4.38-8.18,2.24-3.92-.58,1.15-1.04,3.7-2.71,3.7-.47,0,.33-.89.56-1.3.74-1.31,1.46-2.62,2.23-3.91.78-1.3,1.57-2.6,2.42-3.86.52-.78,1.04-1.56,1.66-2.26.36-.41,1.61-1.44,1.31-.99-1.47,2.21-3.17,4.28-4.52,6.57-.73,1.24-1.46,2.47-2.14,3.74-.7,1.29-1.43,2.73-2.08,4.04-.23.47.68-.79,1-1.21.61-.8,1.22-1.59,1.82-2.39,2.47-3.32,4.66-6.92,7.48-9.96.59-.64,1.19-1.74,2.05-1.61.45.07-.64.64-.95.97-.81.86-1.63,1.72-2.38,2.63-1.72,2.12-4.11,5.42-5.69,7.77-.74,1.1-1.37,2.28-2.15,3.36-.27.37-1.27,1.27-.87,1.04,3.09-1.76,6.01-5.89,8.71-8.26,4.91-4.29,9.97-8.8,15.69-11.96.21-.12-.43.23-.64.36-.71.43-1.42.86-2.12,1.31-1.02.65-2.02,1.33-2.98,2.06-4.04,3.05-8.15,6.24-11.62,9.93-1.24,1.32-2.37,2.73-3.53,4.12-.85,1.02-3.53,3.95-2.51,3.09,9.04-7.57,16.22-17.03,26.26-23.43.65-.41-1.41.59-2.1.94-2.58,1.29-3.42,1.77-6.03,3.7-5.15,3.82-9.33,8.51-14.07,12.74-.95.85-3.43,1.33-2.89,2.48.62,1.31,2.06-2.03,3.1-3.04,1.26-1.22,2.51-2.46,3.8-3.65,2.06-1.91,7.99-7.07,9.67-8.42,1.45-1.17,8.04-6.11,10.17-7.31.75-.42,3.21-1.23,2.4-.96-6.99,2.3-13.5,7.16-18.97,11.86-1.87,1.61-4.24,4.29-5.93,6.05-.69.72-2.81,2.78-1.95,2.28,10.02-5.82,16.59-18.24,27.64-22.51.67-.26-1.37.42-2.02.7-2.52,1.1-3.69,1.7-6.22,3.17-6.03,3.5-10.36,8.74-15.81,12.85-.37.28.79-.51,1.14-.81,2.16-1.89,4.18-3.94,6.38-5.78,4.62-3.86,9.48-7.67,14.65-10.79,1.95-1.18,4.46-4.38,6.19-2.89.49.42-1.22.45-1.82.7-1.95.81-5.46,2.31-7.03,3.06-4.4,2.12-8.59,4.66-12.64,7.38-1.55,1.04-3.09,2.65-4.94,2.99-.6.11,1.04-.64,1.54-.99,2.39-1.7,2.19-1.54,5.26-3.5,3.89-2.48,7.82-4.75,11.91-6.88,1.54-.8,3.34-1.95,4.93-2.55.33-.12,1.38-.18,1.04-.11-4.37.94-9.28,4.24-12.99,6.62-3.43,2.21-3.31,2.34-5.95,4.21-.67.48-2.63,1.92-1.87,1.61,5.96-2.47,10.88-10.2,17.79-10.27.48,0-.82.51-1.25.73-1.15.58-1.02.51-1.81.9-2.13,1.04-4.31,2.06-6.36,3.27-4.79,2.83-8.75,6.36-13.07,9.75-.93.73,2.13-1.03,3.07-1.73,1.53-1.13,3.02-2.31,4.53-3.47,2.04-1.57,9.21-8.34,12.06-7.56.6.16-1.15.5-1.71.78-.59.28-3.16,1.74-3.23,1.78-5.3,3.13-10.18,6.83-14.54,11.17-.77.77-3.23,2.15-2.18,2.43.67.18,5.01-3.65,5.44-4,2.38-1.97,9.48-9.9,13.15-9.74.57.02-.97.6-1.44.91-1.11.72-2.21,1.46-3.28,2.22-4.06,2.88-7.7,6.23-11.07,9.88-1.48,1.6-2.58,3.53-4.11,5.08-.48.49-2.12,1.74-1.6,1.3,5.9-5.07,10.43-11.28,16.71-16.05.89-.68,3.51-3.06,5.19-2.65.44.11-.84.35-1.25.55-1.02.48-2.01,1.03-2.99,1.58-2.52,1.43-4.49,2.8-6.74,4.65-3.48,2.86-6.47,6.15-9.37,9.58-.32.38-4.43,4.45-4.41,4.27.05-.64,2.22-2.53,2.6-2.95,3.48-3.86,6.97-7.69,10.75-11.26,2.27-2.14,1.9-1.9,3.92-3.47.92-.71,3.69-1.21,2.84-2.01-.94-.88-6.66,3.61-7.29,4.07-5.1,3.78-8.87,8.96-12.3,14.2-.5.77-2.15,4.95-3.39,4.43-.18-.08,1.82-3.39,1.96-3.63,2.26-3.92,4.72-7.78,7.93-11.01,1.09-1.09,2.16-2.2,3.28-3.27.44-.41,2.12-1.09,1.53-.95-5.64,1.32-10.38,11.36-12.6,15.78-.32.63-2.1,5.79-2.71,5.91-.91.18,3.45-7.01,3.63-7.29,2.64-4.1,5.54-8.2,8.83-11.8.33-.37,2.11-2.14,2.75-2.67.45-.38,2.19-.85,1.61-.76"/>
      <path class="cls-1" d="m198.61,6.52c2.07-.37,4.13-.78,6.21-1.11,1.17-.18,2.35-.31,3.53-.42.55-.05,2.17-.33,1.64-.21-6.09,1.31-12.22,2.16-18.31,3.65-2.79.69-6.77,2.57-9.73,2.36-.91-.07,1.43-1.21,2.29-1.5,1.87-.62,3.78-1.12,5.66-1.71,5.34-1.69,10.88-2.79,16.47-3.33,1.91-.19,3.96-.26,5.89-.32.81-.03,2.99-.72,2.43-.13-.88.92-4.85.6-4.98.61-4.88.22-9.69.97-14.51,1.75-2.9.47-5.77,1.12-8.66,1.69-5.68,1.12-.87.09-5.12,1.18-.43.11-1.19.74-1.3.31-.29-1.11,3.52-1.82,4-1.96,7.03-2.05,13.95-3.53,21.24-4.16,3.98-.34,2.54-.14,6.09-.24,1.08-.03,4.3-.48,3.24-.25-6.88,1.49-14.75,1-21.88,2.25-14.92,2.62,45.81-8.5-4.91.79-1.33.24-3.63,2.28-3.94.96-.32-1.33,3.75-1.97,4.8-2.3,5.42-1.72,11.63-3.18,17.38-2.71.94.08-1.73.85-2.66.93-6.04.49.18-.23-5.33.59-4.77.71-9.21,1.61-13.75,3.24-7,2.51.99-.43-3.74,1.32-.86.32-3,1.79-2.59.97.69-1.41,5.71-2.11,6.56-2.33,7.03-1.82,14.19-2.6,21.43-2.85.42-.01,7.41-.57,7.86.26.65,1.19-1.83.91-2.45,1.02-3.04.56-6.14.74-9.18,1.26-6.05,1.03-12.15,2.28-18.05,3.99-2.61.76-6.31,1.87-9.08,3.04-1.64.7-3.27,1.42-4.88,2.18-.39.19-1.36,1.02-1.11.67,1.5-2.07,7.49-3.01,10.22-3.81,10.5-3.07,23.11-7.22,34.19-5.81,1.19.15-2.36.48-3.54.71-2.26.45-4.56.68-6.83,1.12-7.08,1.37-13.94,3.12-20.97,4.74-2.74.63-5.51,1.14-8.26,1.75-.36.08-1.09.65-1.07.28.08-1.9,3.77-2.93,4.56-3.24,5.86-2.3,12.02-4,18.23-5.01,2.37-.39,4.76-.63,7.15-.88,1.22-.13,2.44-.16,3.66-.24.62-.04,2.46-.28,1.87-.07-7.9,2.71-17.7,2.46-26,3.83-2.44.4-6.25,2.97-7.38.77-.57-1.11,1.89-1.72,3.06-2.13,5.14-1.82,10.27-2.63,15.66-3.11,4.9-.44,2.17-.27,7.81-.36.4,0,1.56-.2,1.2,0-7.18,3.91-16.94,5.13-24.73,7.37-2.34.67-6.94,1.4-9.07,2.89-.69.48,1.49-.79,2.26-1.13,2.39-1.05,4.92-1.77,7.43-2.49,7.58-2.17,15.09-3.75,22.97-4.39.42-.03,10.02-.23,10-.14-.19.89-6.84,1.72-7.42,1.85-13.22,2.86-25.66,7.7-38.67,10.96-.96.24,1.5-1.33,2.37-1.81,1.84-1.01,3.77-1.87,5.73-2.65,10.29-4.07,20.02-6.02,31.03-6.87.83-.06,6.4-.05,6.36.11-.55,2.2-4.19,1.81-6.4,2.34-7.84,1.88-15.64,3.89-23.38,6.16-3.2.94-10.08,3.13-13.16,4.14-1.3.43-2.59.88-3.88,1.32-.34.12-1.17.69-1.01.37,1.79-3.46,6.88-4.49,10.29-5.84,9.75-3.89,25.78-10.69,36.7-7.55,1.68.49-3.28,1.25-4.97,1.71-2.43.66-4.9,1.2-7.34,1.84-7.62,2-15.1,4.3-22.51,6.96-1.91.69-3.81,1.4-5.71,2.11-1.43.54-3.89,3.09-4.3,1.62-.4-1.47,5.83-3.6,7.03-4.15,6.3-2.88,12.48-5.3,19.22-6.91,3.99-.95,7.21-1.42,11.26-1.73.87-.07,3.36-.39,2.61.03-3.22,1.79-7.4,2.13-10.94,3.04-6.47,1.68-12.79,3.75-19.22,5.54-2.24.62-5.54,3.46-6.81,1.51-.56-.86,2.27-2.86,2.28-2.86,1.74-1.04,3.57-1.96,5.41-2.81,9.51-4.4,19.32-6.5,29.68-7.66.25-.03-.51.07-.75.14-1.87.58-3.71,1.23-5.58,1.82-7.16,2.25.19-.48-11.61,3.99-5.94,2.25-16.64,9.05-23.4,9.6-.32.03.56-.31.82-.5.78-.58,1.46-1.33,2.3-1.82,2.16-1.27,4.41-2.36,6.66-3.46,7.14-3.5,14.47-6.39,22.27-7.97,1.7-.34,3.43-.58,5.15-.82.65-.09,2.5-.36,1.95,0-8.41,5.57-20.08,8.54-29.31,12.83-2.02.94-4,1.96-6,2.93-1.54.75-3.07,1.49-4.62,2.22-.66.31-2.19,1.65-1.99.94.5-1.83,2.87-2.51,4.47-3.53,5.67-3.62,11.44-6.79,17.83-8.98,2.44-.83,7.51-2.08,10.29-2.57,1.04-.18,4.08-.79,3.16-.26-1.34.77-2.71,1.49-4.11,2.16-3.11,1.47-6.29,2.79-9.41,4.23-4.4,2.03-8.78,4.12-13.15,6.22-4.41,2.12-9.05,4.86-13.69,6.55-.28.1.5-.32.73-.51,1-.83,1.89-1.8,2.94-2.55,1.71-1.22,3.51-2.31,5.32-3.37,7.93-4.59,16.61-8.63,25.62-10.57,2.04-.44,4.77-2.34,6.2-.82,1.95,2.08-4.85,3.01-7.42,4.22-2.54,1.19-5.12,2.31-7.68,3.46-5.6,2.53-11.21,5.03-16.88,7.39-1.7.71-3.29,2.29-5.12,2.08-.32-.04.5-.41.76-.61,1.26-.96,2.46-2.01,3.79-2.87,1.31-.85,2.71-1.56,4.11-2.25,7.99-3.89,16.28-6.8,24.97-8.67,1.84-.39,4.84-2.49,5.59-.76.21.47-.79.69-1.27.9-4.46,2.03-9.04,3.77-13.59,5.6-5.24,2.12-10.56,4.21-15.87,6.16-1.85.68-3.72,2.04-5.66,1.7-1.26-.22,1.58-2.07,2.65-2.75,2.11-1.35,4.38-2.43,6.63-3.55,6.04-3,12.15-5.44,18.67-7.14,1.63-.42,3.26-.81,4.91-1.16,1.1-.24,4-1.44,3.34-.52-1.63,2.26-5.1,2.24-7.72,3.18-8.1,2.93-16.05,6.14-24.22,8.86-1.54.52-3.06,1.79-4.66,1.49-1.48-.29,2.16-2.13,3.42-2.96,1.71-1.12,3.52-2.08,5.35-3,4.21-2.12,7.31-3.4,11.68-4.83,4.19-1.37,9.86-3.58,14.43-3.54,1.02.01-1.75,1.07-2.69,1.49-1.89.84-3.85,1.49-5.76,2.27-7.95,3.26-6.25,2.69-14.41,6.25-2.98,1.3-3.14,1.32-6.05,2.38-.54.19-1.92.9-1.66.4,1.16-2.24,3.56-2.73,5.79-3.83,7.89-3.91,15.98-6.68,24.56-8.61l.03.11c-6.69,1.82-13.22,3.71-19.56,6.56-3.64,1.63-7.16,4.14-10.97,5.14-.52.14,1.06-.24,1.56-.43,2.81-1.05,3.14-1.13,6.03-2.38,5.76-2.49,8.71-3.95,14.47-6.21,1.92-.75,3.84-1.52,5.82-2.12.96-.29,3.93-.5,2.94-.59-7.95-.66-19.16,4.86-25.96,8.3-1.81.92-3.52,2.04-5.31,3-1.28.69-5.23,1.64-3.84,2.1,1.54.51,3.1-.96,4.64-1.49,2.24-.78,4.5-1.51,6.73-2.32,7.86-2.83,17.02-8.48,25.45-8.83,1.11-.05-2.21.28-3.3.51-1.63.35-3.26.73-4.88,1.15-6.48,1.68-12.59,4.12-18.59,7.11-2.22,1.11-4.36,2.37-6.55,3.54-1.07.57-4.26,1.64-3.08,1.95,1.89.5,3.79-1.01,5.62-1.71,7.63-2.92,15.09-6.37,22.75-9.2,2.12-.78,4.3-1.37,6.45-2.05.58-.18,1.59.05,1.76-.54.15-.52-1.08-.03-1.61.04-1.32.18-2.63.43-3.93.71-1.82.39-3.62.81-5.41,1.29-6.73,1.8-13.17,4.31-19.43,7.36-1.4.68-2.72,1.5-4.1,2.23-1.29.68-2.61,1.28-3.88,1.98-.38.21-1.43.49-1.07.73,1.53,1.02,3.41-1.36,5.1-2.08,5.66-2.41,11.19-5.06,16.81-7.56.01,0,15.43-6.68,15.41-6.73-.9-1.85-4.11.37-6.13.8-8.97,1.92-17.64,5.92-25.52,10.52-1.81,1.06-3.5,2.31-5.3,3.38-1.08.65-2.24,1.15-3.32,1.78-.28.16-1.07.67-.76.58,14.02-3.87,26.61-13.82,40.57-18.37.99-.32-2.08.06-3.1.24-2.82.49-7.73,1.66-10.24,2.5-7.97,2.68-14.88,9.72-22.58,11.9-.71.2,1.33-.62,1.99-.94,1.54-.74,3.08-1.48,4.61-2.24,2-.99,3.96-2.05,5.97-3.02,9.68-4.66,19.22-8.98,29.48-12.07.6-.18-1.26-.09-1.87,0-1.71.25-3.43.48-5.12.83-7.77,1.58-15.07,4.47-22.17,7.96-2.24,1.1-4.39,2.38-6.64,3.46-.82.39-1.71.6-2.55.96-.34.15-1.34.55-.97.55,1.76.03,7.71-3.38,8.41-3.69,6.74-3.04,6.02-2.76,14.94-6.12,2.32-.87,8.29-3.23,11.7-3.88,1.9-.36,3.83-.53,5.73-.84.26-.04,1.04-.22.77-.21-10.16.34-20.36,3.38-29.54,7.61-1.81.83-3.56,1.8-5.32,2.74-.11.06-2.92,1.51-2.64,2.26.16.44.95-.04,1.41-.14,1.8-.41,3.58-.88,5.36-1.4,9.74-2.83,20.01-7.54,30.26-7.82.85-.02-1.7-.1-2.54-.03-4.02.31-7.26.77-11.22,1.7-6.71,1.59-12.89,4-19.15,6.88-2.32,1.07-4.8,3.12-7.38,3.33-.36.03.68-.23,1.01-.35,1.1-.41,2.19-.84,3.29-1.26,1.9-.72,3.8-1.46,5.71-2.15,7.41-2.71,14.9-5.12,22.53-7.11,2.44-.64,4.87-1.34,7.36-1.77,1.68-.29,6.75-.1,5.1-.56-3.2-.9-7.88.08-11.13.4-12.9,1.26-24.4,6.68-36.01,11.97-.33.15.68-.23,1.02-.35,1.3-.44,2.59-.88,3.89-1.3,3.09-1,9.96-3.19,13.17-4.15,7.71-2.32,15.47-4.57,23.33-6.33,2.16-.48,4.55-.25,6.53-1.25,1.18-.6-2.65-.22-3.98-.24-3.5-.04-6.99.41-10.48.79-7.79.85-15.45,3.29-22.7,6.16-1.95.77-3.76,1.86-5.7,2.65-.9.37-3.73,1.1-2.77.93,15.55-2.81,29.89-12.33,46.25-11.89.51.01-1.01-.16-1.51-.16-2.81.01-5.62.09-8.41.32-7.87.65-15.31,2.22-22.87,4.4-2.53.73-4.92,1.94-7.49,2.56-.85.2-3.3.41-2.61-.12,1.99-1.51,6.86-2.35,9.08-2.99,7.92-2.3,16.63-5.48,24.91-5.99.38-.02-.76-.08-1.14-.07-5.32.06-3.11-.09-7.76.32-5.45.48-10.24,1.56-15.49,3.1-1.11.33-2.96-.1-3.32,1-.3.94,2,.1,2.98-.05,2.28-.34,4.53-.85,6.81-1.18,7.53-1.08,16.06-3.49,23.62-2.22.6.1-1.23.05-1.84.09-1.21.08-2.42.12-3.63.25-2.38.25-4.75.5-7.11.88-6.1.99-18.3,2.55-23.04,7.18-.26.26.71-.19,1.08-.27,3.62-.82,4.84-1.04,8.21-1.88,7.04-1.75,13.88-3.45,21.01-4.8.86-.16,5.26-1.05,6.91-1.02,1.2.03,4.75.6,3.58.35-10.25-2.2-24.26,3-34.04,5.85-2.51.73-8.85,4.41-10.69,2.82-.35-.3.75-.54,1.17-.74,1.62-.77,3.27-1.49,4.93-2.19,2.71-1.15,6.68-2.38,9.11-3.12,6.93-2.1,14.08-3.57,21.26-4.49,2.2-.28,6.48-1.77,8.55-.62.89.5-2.03-.15-3.05-.19-3.14-.11-6.48-.26-9.61.07-5.51.57-11.07,1.35-16.44,2.76-.16.04-6.61,2.45-6.94,1.17-.03-.11,3.96-1.54,3.99-1.54,5.41-1.95,10.55-3.23,16.25-4.06,5.18-.75-.27-.19,5.31-.56.91-.06,3.61.58,2.74.29-4.22-1.39-11.56,1.12-15.4,2.15-1.35.36-5.24,2.56-6.5,2.11-1.15-.4,8.02-2.16,8.49-2.24,5.52-.99,16.7-4.46,22.23-1.39.12.06-3.19.5-3.46.5-3.47.1-6.85.31-10.32.67-5.76.6-11.34,2.06-16.88,3.71-.6.18-3.66,1.81-4.27,1.02-.7-.91,2.2-.63,3.31-.9,2.89-.68,5.84-1.26,8.75-1.86,5.76-1.19,11.75-2.08,17.63-2.27,1.69-.05,4.77-1.27,5.07.4.15.81-1.65.11-2.47.14-1.91.07-3.95.17-5.85.36-5.56.56-11.06,1.68-16.38,3.36-1.87.59-3.76,1.08-5.62,1.69-.84.27-3.38.16-2.59.54,1,.48,6.97-1.66,7.48-1.8,4.78-1.29,9.71-2.75,14.63-3.41,4.46-.6,9.18-.79.91.47-2.08.32-4.14.73-6.21,1.09"/>
      <path class="cls-4" d="m176.27,26.8c2.1-.85,4.16-1.85,6.32-2.55,5.93-1.92,11.95-3.55,17.94-5.29,7.44-2.16-5.03,2.65-6.68,3.31-10.32,4.11-20.07,10.06-30.52,13.74-1,.35,1.1-1.96,2.04-2.46,2.63-1.42,5.21-2.9,7.89-4.23,8.4-4.16,16.63-7.64,25.87-9.58,2.05-.43,4.18-.76,6.25-1.08.58-.09,1.85-.82,1.74-.25-.47,2.33-9.36,3.71-11.6,4.59-8.64,3.37-17.05,7.25-25.79,10.4-8.8,3.17-2.88-3.25,1.81-5.82,1.67-.91,3.32-1.84,5.03-2.66,2.7-1.3,10.61-4.17,12.04-4.66,4.05-1.37,8.28-1.8,12.5-2.29l.02.12c-8.4,1.71-16.2,4.14-23.88,8.07-3.99,2.04-5.93,3.34-9.42,5.85-.79.57-3.62.78-2.7,1.1,2.2.78,8.8-2.43,9.7-2.78,6.84-2.63,13.48-5.74,20.34-8.31,2.02-.76,10.29-4.67,12.07-2.79.88.92-2.52.36-3.77.6-2.63.49-5.2.99-7.78,1.7-7.74,2.11-14.78,5.16-21.92,8.76-2.66,1.34-5.26,2.77-7.85,4.23-.88.49-3.97.63-2.98.44,9.41-1.85,21.29-10.02,30.57-13.61,1.9-.74,14.39-3.86,7.21-1.75-5.97,1.75-11.95,3.46-17.88,5.36-2.16.69-4.25,1.6-6.38,2.41"/>
      <path class="cls-4" d="m214.96,14.62c1.66-.17,1.41-.11,4.22-1.05.84-.28-.6,1.71-1.18,2.38-.35.4-4.88.19-5.3.2-5.55.11-11.07.46-16.61.69-1.78.07-6,1.05-5.5-2.67.4-2.96,6.01-2.7,7.99-2.94,5.8-.7,11.92-.31,17.77-.02.34.02,5.07.32,5.04.53-.63,4.85-4.85,2.89-8.97,3.24-2.67.23-6.08.35-8.69-.38l-.11-.49c2.62-2.99,10.01-2.47,13.6-2.51,1.06-.01,2.77-.84,3.19.14.37.86,1.46,2.87.53,2.76-5.71-.67-11.63-.76-17.34.05-2.08.3-4.1.74-6.15,1.13-.95.18-2.48,1.8-2.77.88-.18-.57.84-1.09.68-1.67-.27-1.02-2.16-3.35-2.2-2.29-.04.93,1.81.57,2.74.56,4.33-.03,8.63-.45,12.96-.46,1.49,0,8.71-.61,9.72.61,3.18,3.85-.91,3.36-3.4,2.99"/>
      <path class="cls-4" d="m213.21,11.14c2.05-3.56,5.86-2.58,9.59-2.07,1.16.16,2.32.23,3.49.36.32.03,1.12.36.96.08-1.01-1.71-1.2,2.13-1.2,2.27,0,.72-1.37-.43-2.06-.6-1.6-.39-3.14-.72-4.78-.92-4.31-.52-13.57,1.74-10.32-4.43.36-.68,4.4-.15,5.2-.07,4.65.46,10.93,1.81,13.36,6.09l-.24.31c-3.96-.91-7.68-1.89-11.71-2.53-1.02-.16-2.38-.02-3.43.1-.62.07-2.01.88-1.84.28.3-1.09,1-2.19.81-3.3-.54-3.26-1.81-.76-1.39-.47,4,2.74,14.55-1.91,18.14,2.77,3.81,4.97-11.98,2.16-14.35,1.13"/>
      <path class="cls-6" d="m232.3,11.7c1.19,1.1,2.45,2.12,3.57,3.29,1.44,1.5,6.56,7.12,4.2,7.64-.13.03-.96-1.43-.97-1.44-1.06-1.84-2.32-3.52-3.73-5.11-2.38-2.69-6.96-5.52-8.69-7.53l.21-.85c4.21.8,9.33,6.86,12.13,10.56.49.64,3.21,4.09,2.52,4.85-1.36,1.49-4.37-4.38-4.92-5.18-2.19-3.14-1.36-1.95-4.81-5.52"/>
      <path class="cls-6" d="m241.58,30.78c-.39,2.68.69-.73-1.45-.15-.38.1.25-.74.4-1.1.24-.58.41-1.17.48-1.6.06-.4.66,1.43.35,1.16-1.24-1.07-.61-3-.72-2.66-.16.49-.11-1.03-.16-1.55-.03-.3-2.05-5.58-2.78-6.9l1.06-.71c2.16,2.63,4.9,5.66,4.49,7.67-.25,1.22.47,1.36.09,2.87-.05.18.15-.75.11-.56-.07.31-.09,1.22-.19.92-.27-.78.65-.3-.6-1.17-.39-.27.82.81.67,1.27-.38,1.15-.52,2.97-1.38,3.9-2.03,2.22-1.86-.84-1.35-1.72"/>
      <path class="cls-6" d="m228.48,8.05c2.41-.31,3.36,1.6,4.96,3.28.86.9,1.68,1.9,2.48,2.87.41.49.81.97,1.18,1.51.19.27.71,1.1.52.83-.07-.09-.18-.41-.14-.31.32.89,1.65,1.11-.57,2.11-.06.03-1.8-2.76-2.02-3.04-1.34-1.73-3.23-4.02-4.92-4.95-.88-.48-1.2.05-1.81-1.87-.51-1.64,3.16-.08,3.72.7,1.46,2.03,4.21,3.74,5.54,6.19.8,1.48.57,1.55-.68,2.72-.26.25-.71-1.25-.49-.97.67.84-.48-.5-1.58-1.74-.84-.96-1.9-1.7-2.73-2.67"/>
      <path class="cls-6" d="m224.04,75.36c2.09-.12,3.77-1.1,4.85-2.81"/>
      <path class="cls-6" d="m238.79,30.14c.3,1.29.69,2.55.88,3.85.3,2.07.38,4.16.6,6.24.02.23.34.71.11.68-1.86-.29-2.25-1.7-2.74-3.41-1.35-4.76-2.26-9.58-4-14.24-.59-1.58-1.53-5.44-3.16-6.63-.66-.48,1.67.11,2.42.44.55.24,1.83,4.94,1.85,5.01,2.59,7.26,5.6,14.17,6.88,21.83.15.92.62,6.19-2.05,5.17-1.59-.6-1.6-4.34-1.82-5.63-1.13-6.5-2.97-12.86-5.09-19.1-1.49-4.39-3.35-8.71-5.57-12.79-.54-.99-1.12-1.95-1.71-2.91-.24-.4-1.3-1.05-.84-1.12,3.73-.57,3.67,3.26,5.04,6.29,2.99,6.6,6.31,12.92,8.56,19.85.92,2.84,1.66,5.78,2.26,8.71.12.6.55,2.93.62,3.35.1.56.45,2.23.27,1.69-.52-1.61.98.77-1.9-.37-.17-.07-.24-2-.24-2.05-.19-1.94-.35-3.9-.58-5.83-.64-5.61-1.38-11.2-2.98-16.6-.25-.83-.34-2.78-1.05-3.42l1.09-.88c5.56,4.5,4.49,14.26,5.28,20.68.35,2.8,2.05,7.74-1.17,9.08-.18.07-1.28-4.67-1.4-5.09-1.31-4.47-2.78-8.86-4.37-13.24-2.1-5.78-4.24-11.57-6.88-17.14-1.29-2.71-3.69-4.53-.47-6.33.46-.26.5.92.74,1.38.53,1.02,1.06,2.04,1.59,3.07,1.7,3.32,3.25,6.69,4.63,10.16,2.46,6.18,4.2,12.61,5.25,19.17.55,3.43,2.29,5.92-.19,8.39-.58.57-.51-1.55-.67-2.35-.29-1.43-.36-2.9-.58-4.35-.97-6.36-2.11-12.91-4.49-18.9-.65-1.65-2.82-3.38-1.97-4.94.39-.71,2.02-2.51,1.5-1.9-.74.86.12,2.29.49,3.35,1.64,4.66,3.77,9.16,5.48,13.79.6,1.62,1.14,3.42,1.5,5.11.12.57.53,1.3.15,1.74-.26.31-.96,1.28-.73.95.9-1.26-1.41-8.29-1.88-10.33"/>
      <path class="cls-6" d="m236.99,80.59c3.81-6.07,4.33-11.91,3.64-18.73-.2-1.96-.61-3.92-.99-5.84-.11-.55-1.07-2.74-.88-2.31"/>
      <path class="cls-6" d="m242.89,37.71c2.36.96,1.64-.3.68,1.35-.15.25.27.72.02.87-2.21,1.29-.21-1.42-.21-1.42.05-.8.39.82-.84.89-1.61.1-1.86-1.16-1.37-2.07.93-1.72,5.12.21,4.57,1.89"/>
      <path class="cls-2" d="m243.98,36c.44-.38,1.43-.05,1.91,0,1.57.16,2.37.61,3.5,1.77.47.48.56.86.6,1.5,0,.09-.21.98-.04.88.22-.12.32-1.23.3-1.43-.12-1.27-1.02-2.22-2.17-2.7-.55-.23-1.82-.08-2.19-.5-.02-.02.31-.06.32-.06.53.06.92.17,1.4.33,1.13.39,2.8,1.41,2.54,2.81-.54,2.94-2.83,4.97-4.5,7.3-.81,1.13-1.52,2.96-2.57,3.87"/>
      <path class="cls-2" d="m246.31,45.22c.11-.03-.87,2.96-.85,2.6"/>
      <path class="cls-2" d="m248.63,60.9c1.48-1.9,2.57-4.34,3.56-6.54.39-.87,1.14-1.99,1.04-2.98-.1-1.07-.62-1.79-.91-2.78-.07-.22.29.36.39.57.2.44.43.91.56,1.38.28.99.4,1.92.36,2.94-.01.31-.48.88-.18.9.46.03.13-2.08.1-2.53-.16-2.28-.58-3.65-3.07-3.68-.45,0-1.97-.21-2.29.06-.51.44,1.33.24,2.01.29.62.04,1.26-.05,1.86,0,.24.02.98.88,1.04.59.22-1-1.49-1.4-2.06-1.46-2.51-.26-5.19.41-7.68.67-.76.08-2.57-.33-3.15.17,0,0,.22.12.28.13.58.18,1.16.34,1.73.53.36.11.89.35,1.19.51,1.58.86,3.4,2.4,4.25,4.05.24.47.96,1.36.46,1.52-.76.24-2.84-1.75-3.39-2.07-.53-.31-1.14-.59-1.71-.81-.35-.13-1.89-1.13-2.42-.95-.15.05,1.45,1.78,1.66,1.98,1.36,1.31,2.88,2.59,3.92,4.17.26.4.82,1.31.61,1.82-.12.28-1.34-.59-1.38-.62-1.71-1-3.51-1.82-5.15-2.94-.2-.14-.4-.29-.6-.44-.45-.37-1.87-1.35-1.32-1.15.32.12.6.48.97.39.5-.13.76-1,.99-1.39.49-.83.95-1.41,1.9-1.75.6-.21,1.86-.71,2.49-.39.93.48-.03,1.18-.68,1.07-1.21-.21-2.33-.89-3.41-1.42-.06-.03-1.13-.74-1.27-.24-.12.43,1.22,1.79,1.37,1.96.8.89,3.14,2.39,3.39,3.62.14.66-.49,1.23-.73,1.8"/>
      <path class="cls-2" d="m252.77,54.97c.18-.16-.32.65-.37.74-.18.37-.4.72-.62,1.07-.73,1.15-1.61,2.1-2.3,3.32"/>
      <path class="cls-2" d="m252.99,53.88c.2-.17.16.53.09.78-.2.69-.56.97-1.05,1.44-1.26,1.19-1.63,3.1-2.53,4.53"/>
      <path class="cls-2" d="m255.21,73.43c.43-.81.61-1.75.96-2.59,1.32-3.1,2.42-5,1.09-8.21-.31-.75-.86-1.69-1.71-1.95-.56-.18-.94-.04-1.47-.12-.32-.05.65-.13.98-.14.28,0,.56.1.84.17.74.2,2.49,2.57,1,1.18-2.06-1.92-5.81-1.17-8.17-.4-.83.27-2.35.83-3.22.51-1.17-.43-2.15-1.56-2.94-2.46-.09-.1-.81-1.01-.79-1.03.26-.15,1.56.68,1.83.84,1.36.81,2.47,2.83,4.06,3.09"/>
      <path class="cls-2" d="m259.99,86.55c.08.32,1.09-2.49,1.15-2.62.89-1.98,2.11-4.46,2.12-6.7.01-3.54-4.31-3.37-6.69-3.76-.65-.11-2.84-.87-3.29-.66"/>
      <path class="cls-2" d="m265.51,98.01c.44-.96.58-2.12.92-3.13.87-2.56,1.93-6.89-1.3-8.36-.26-.12.59.1.8.29.31.29.6.59.87.93.03.04.46.61.51.47.42-1.33-2.01-1.96-2.71-1.95-3.74.02-7.18.83-10.94.43"/>
      <path class="cls-2" d="m268.24,113.44c.89-2.84,3.19-5.09,3.87-8.02.39-1.66-.04-3.06-.05-4.72,0-.48.1-1.7-.34-2.05-1.33-1.06-3.64-.45-5.09-.09-1.26.31-2.6.26-3.85.6-1.66.45-4.01-.16-5.43.5"/>
      <path class="cls-2" d="m268.44,113.47c1.56.14,5.57-.58,7.05.58,1.69,1.33.92,3.91.69,5.76-.52,4.29-1.72,9.66-4.33,13.24-2.67,3.67-5.41,7.67-9.29,10.2-5.32,3.47-11.44,6.18-17.27,8.61-1.92.8-4.15,1.14-5.96,2.13"/>
      <path class="cls-2" d="m243.04,151.41c.26-.18-.62.14-.92.23-.68.2-1.37.35-2.05.53-3.96,1.07,6.66-1.61-3.49.97-3.35.85-6.62,2.02-9.98,2.88"/>
      <path class="cls-2" d="m209.99,160.5c-1.81.37-3.88,1.3-5.65,1.57-3.81.58-8.55-.42-11.79-2.51"/>
      <path class="cls-2" d="m193.9,160.87c4.12,3.03,9.97,2.39,14.62,1.43,4.04-.83,7.93-2.3,11.85-3.54,6.48-2.05,13.23-3.4,19.58-5.83,4.17-1.6,6.56-3.47,7.72-7.96.32-1.22-.9-2.35-1.46-3.48"/>
      <path class="cls-2" d="m148.53,54.1c-1.05-.16-.25.81-.05,1.49.78,2.61,2.35,4.72,3.06,7.3,0,0-2.76,1.19-3.09,1.95-.64,1.48.11,6.29,1.74,7.17,1,.54,2.76-.85,3.74-.99,3.66-.52,6.88-2.87,10.24-4.42,3.49-1.61,7-3.15,10.01-5.58,1.4-1.12,2.41-2.73,3.41-4.2,4.85-7.13,8.15-15.8,5.69-24.46-.73-2.58-2.94-4.66-4.7-6.54"/>
      <path class="cls-2" d="m154.17,71.75c-.13-.29-.36-1.22-.31-.9.39,2.73,1.26,5.31,1.89,7.94.11.46-1.58.25-1.7,1.31-.2,1.67.36,4.99,1.95,6.03,2.28,1.49,7.38-2.54,9.01-3.43,1.31-.72,2.65-1.41,3.9-2.23,13.61-8.82,20.25-25.9,22.19-41.43.6-4.76.18-10.87-2.18-15.15"/>
      <path class="cls-2" d="m158.14,85.55c-.34.16.46,4.55.46,4.62,0,1.69-1.17,2.21-1.43,3.71-.22,1.23,1.04,2.82,1.63,3.76.3.48,1.11,2.45,1.85,2.4,1.32-.09,3.47-1.76,4.71-2.29,7.29-3.05,12.77-9.45,17.86-15.39,2.62-3.07,4.48-7.15,6.34-10.8,2.08-4.09,4.63-7.98,6.17-12.3,2.26-6.36,4.53-13.35,5.26-20.17.93-8.58.56-16.83,0-25.4"/>
      <path class="cls-2" d="m162.45,99.41c1,2.16,1.9,4.41,2.91,6.52.21.44,1.25-.15,1.63-.33.91-.45,1.82-.92,2.73-1.37.23-.11.48-.18.69-.32,4.24-2.94,8.72-6.87,11.8-11.02,10.35-13.92,19.33-31.01,22.65-48.15,1.41-7.26,2.12-13.52,2.09-20.9,0-1.77.11-1.44-.65-2.32"/>
      <path class="cls-2" d="m164.72,105.91c-2.16,1-.65,5.22.88,6.21.41.26,1.99.75,2.5.63.21-.05,1.17-.56,1.28-.17.62,2.06.02,4.36,1,6.47.11.23-.21-.46-.32-.69-.17-.37-.35-.85-.47-1.25-.43-1.36-1.03-2.68-1.63-3.97-.19-.4.44.78.56,1.21.27.98.74,1.92.93,2.93.22,1.17-.92,2.2-.96,3.38-.05,1.67,1.07,3.15,1.95,4.45.6.88,1.64,1.45,2.14,2.37,1.38,2.53,2.32,5.68,4.02,8.01,3.08,4.22,6.59,7.43,10.71,10.68,8.23,6.5,16.59,5.85,26.4,5.11,2.71-.21,6.6-.46,8.39-2.51,1.67-1.92,3.44-3.81,4.66-6.04,5.23-9.6,8.77-19.61,10.73-30.36,1.34-7.37.41-15.42-.16-22.8-.87-11.42-.84-23.02-1.46-34.48-.37-6.85-.61-13.75-.82-20.61-.11-3.72-.02-7.54-1.07-11.16-.39-1.35-.55-2.86-1.41-3.96-5.63-7.19-17.63-4.02-25.03-1.02-2.55,1.03-6.19,1.03-7.28,4"/>
      <path class="cls-2" d="m240.2,50.13c.78.14.83.06,1.44,1.19,1.68,3.12,3.16,6.34,4.71,9.52,2.67,5.47,4.92,11.12,7.46,16.65,2.18,4.73,3.82,9.69,6.08,14.39.47.98,1.02,1.94,1.73,2.76.12.13-.09-.4.03-.53.15-.18.46.2.57.4,3.51,6.4,8.21,16.84,5.39,24.08-1.69,4.35-4.66,6.31-7.48,9.94-4.66,6-8.88,10.38-14.79,15.24-5.93,4.88-10.61,8.71-18.65,9.13-5.25.28-11.52-5.25-14.96-8.53-1.85-1.76-4.83-6.89-5.37-8.06-3.13-6.76-1.78-14.98-1.43-22.18"/>
      <path class="cls-2" d="m233.77,49.58c2.48-1.09-.21-.1,1.31,6.07.75,3.07,2.58,3.68,5.84,1.73.66-.4.31-1.51.43-2.27.57-3.63-.06-4.48-1.94-9.44-.15-.4-.7-.87-1.09-.69-1.8.83-3.28,2.25-4.87,3.45-.58.44-1.03,1.76.32,1.16Z"/>
      <path class="cls-2" d="m250.35,61.04c-.43-.02,2.96,6.87,3.83,9,2.66,6.43,7.23,13.4,3.24,20.07-1.71,2.86-5.11-4.31-7.3-6.82-4.3-4.91-5.82-11.11-7.33-17.23"/>
      <path class="cls-2" d="m177.98,137.09c-2.55.71-1.63-2.79-1.56-4.21.01-.26-.01.53-.04.79-.05.44-.1.89-.15,1.33-.21,2.18-.13,2.11-.16,5.47-.03,4.84.27,9.7.3,14.51.04,7.25-1.39,15.86.58,22.95.71,2.55,1.76,7.56,4.31,9,2.15,1.21,4.04.51,4.56-2.17.73-3.76,1.04-8.13,1.46-11.9.6-5.35.29-10.63.33-15.97.06-8.78-.04-17.37-.7-26.15"/>
      <path class="cls-2" d="m177.56,146.25s-.66-.98-.78-.94c-.45.12-.18.91-.26,1.36-.57,3.11-1.45,6.32-1.89,9.44-1.49,10.48-1.97,21.3,1.77,31.4,1.27,3.44,5.07,7.76,9.2,6.61.74-.21.86-1.27,1.28-1.9,1.69-2.54,1.48-5.82,1.7-8.74.82-11.11.52-22.42.22-33.5-.09-3.28-.42-6.54-.41-9.83,0-.82.33-2.43-.73-2.64"/>
      <path class="cls-2" d="m177.13,141.46c-1.59-.9-1.24,3.45-1.64,5.23-.69,3.09-1.3,6.93-.43,10.06"/>
      <path class="cls-2" d="m233.47,154.88c-.25.67-.44,1.39-.58,2.14"/>
      <path class="cls-2" d="m233.15,169.39c.06.62.11,1.21.15,1.78.18,2.54-1.03,6.1-.13,8.56,1.11,3.03,5.68,4.51,8.58,2.38,2.72-1.99,4.35-4.77,5.26-7.97,1.86-6.48.67-12.67.49-19.06-.11-3.72-.52-6.6-2.24-9.95"/>
      <path class="cls-2" d="m194.01,145.89c-3.36-.38-5.47,2.03-6.17,4.78-.4,1.58-1.79,3.63-.69,4.84,3.52,3.86,7.25,3.53,12.22,3.78,3.4.17,6.17.62,9.56-.03,6.19-1.19,13.46-7.98,12.61-14.45-.05-.41-.67-.51-1.05-.68-1.9-.87-3.79-1.77-5.76-2.48-1.86-.67-3.94.45-5.59.91"/>
      <path class="cls-2" d="m233.16,176.07c-.57-.07-1.16,1.3-1.47,1.8-1.38,2.2-2.25,3.43-4.47,4.69-2.72,1.54-5.87,1.56-8.72,2.52-4.96,1.68-9.99,3.46-15.03,4.89-3.52,1-8.7,3.24-4.65,7.48.85.89,2.34.77,3.53,1.11,2.79.78,7.09.14,9.9-.56,3.57-.89,7.89.02,11.57-.37,3.47-.37,6.57-2.6,9.6-4.11,4.46-2.21,9.31-3.14,12.5-7.29,1.13-1.48,1.45-5.29,1.65-7.12.83-7.3.24-13.74-1.7-20.85"/>
      <path class="cls-2" d="m248.51,152.38c-.42-.54.39,1.33.41,1.93.08,2.36.15,4.71.29,7.06.22,3.77-.04,7.6.23,11.33.19,2.55.54,5.28-.05,7.8-.86,3.66-1.86,7.35-4.66,9.86"/>
      <path class="cls-2" d="m240.82,191.76c-.96-.36-1.83-1.03-1.9-1.89-.2-2.65,1.29-5.88,2.26-8.22"/>
      <path class="cls-2" d="m190.67,157.54c.99,3.08.5,6.78.83,9.95.27,2.56.79,5.25,1.15,7.95"/>
      <path class="cls-2" d="m192.68,184.28c-.5,2.63-1.29,5.09-3.13,7.12-1,1.1-3.29.86-3.85-.53-1.7-4.23-1.41-9.08-1.55-13.51-.13-4.24-.09-8.48.12-12.72"/>
      <path class="cls-2" d="m192.97,186.67c-.83.11.44,2.55,1.38,2.71,2.73.46,5.84-.42,8.52-.89,1.87-.33,3.74-.53,5.61-.81,5.91-.86,11.56-3.99,17.32-5.5,1.26-.33,3.2-.92,4.49-.47.55.19,1.63.4,1.41,1.35-1.21,5.11-6.36,7.47-10.62,9.9-2.72,1.56-6,2.63-8.96,3.62-5.18,1.74-10.12,3.23-15.6,3.21-1.49,0-2.55-.59-3.83-1.03-3.48-1.2-7.3-2.15-9.24-5.63-.4-.72.36-2.74.68-3.66"/>
      <path class="cls-2" d="m203.99,197.38c-1.99-.68-5.33,2.79-2.46,4.2,2.58,1.26,6.66-1.12,8.71-2.27,1.04-.58.22-1.87-.52-2.27"/>
      <path class="cls-2" d="m192.72,186.26c-1.14-.72,1.06,4.78.22.69-.06-.3.05-.52-.22-.69Z"/>
      <path class="cls-2" d="m202.64,188.12c4.88-1.57,10.17-2.57,15.23-3.41,1.07-.18,3.31-.95,4.45-.56"/>
      <path class="cls-2" d="m210.66,201.78c-.04-.23-.14-.92-.18-.97-.1-.14,0,.34,0,.51-.03.93-.17,1.87-.12,2.8.11,2.13.37,4.38.55,6.5.54,6.23.99,12.38,1.88,18.59.3,2.1.78,4.43,1.87,6.29.21.36,1.1,2.08,1.96,1.6,2.68-1.48,4.21-5.31,4.93-8.15,1.36-5.36,1.76-10.7,1.57-16.23-.1-2.82.67-5.61.62-8.44-.04-2.45,1.09-5.54.36-7.88-.23-.76-1.42-.67-1.97-1.01"/>
      <path class="cls-2" d="m225.24,197.79c-.38,2.32-.13,5.21-.18,7.32-.09,3.53-.4,7.06-.55,10.59-.33,7.53.5,15.11.1,22.65-.19,3.66-.77,7.42-2.05,10.85-.41,1.09-2.1,2.1-2.92.63-.58-1.03-.75-2.67-.81-3.89-.41-7.87-.11-1.98-.08-5.74.04-5.03.12-3.42-.3-7.48-.72-6.95-1.48-13.16-1.11-20.17"/>
      <path class="cls-2" d="m211.64,229.64c-.8-.13.21,5.85.23,6.2.35,5.48.08,11,.11,16.49.03,5.16.73,10.27.99,15.42.18,3.69.02,7.31.38,10.98.17,1.71.28,7.09,2.91,7.13,4.5.07,7.14-6.84,7.07-10.8-.13-7.34-.34-14.78-.63-22.13-.28-6.98-1.68-13.9-1.84-20.91"/>
      <path class="cls-2" d="m224.58,241.09c-.62,10.74.79,21.56.43,32.31-.09,2.8-.5,5.58-.82,8.36-.07.64-.25,1.38-1.01,1.26-.62-.1-.67-1.26-.72-1.83-.39-4.7-.29-8.81-.37-13.6-.1-5.73-1.05-11.38-1.33-17.09-.24-4.92.04-9.55-.95-14.4"/>
      <path class="cls-2" d="m212.58,257.48c-.95,2.23-.77,4.8-1.04,7.21-.61,5.3-.06,11.21.41,16.54.19,2.15.35,4.24,1.34,6.18,1.06,2.06,2.09-.42,2.35-1.45.4-1.59.91-3.15,1.16-4.77.29-1.81.56-3.62.76-5.44.21-1.82-.14-3.67-.24-5.5"/>
      <path class="cls-2" d="m212.51,281.55c.56-2.87-4.72,1.32-5.19,2.65-.61,1.76-.29,3.65-.3,5.5-.03,5.27.13,10.91,1.07,16.11.47,2.61,2.14,4.73,4.94,4.86,4.34.2,12.38.86,14.75-3.78,2.75-5.4.56-14.04-.38-19.64-.26-1.58-2.02-6.36-4.53-4.67"/>
      <path class="cls-2" d="m224.6,281.13c1.44,1.11,3.04,1.4,4.06,3.13.13.22.91,1.52.54,1.77-.5.34-.1-1.25-.43-1.75-.26-.39-2.23-1.1-1.89-1.7.27-.48,1.92,1.38,2.06,1.4.11.02-.46-.71-.62-.79-.21-.1-1.58-1.03-1.55-1.19.05-.26,1.26.22,1.39.27,2.21.91,1.3,5.32,1.29,7.03-.04,5.01-.54,10.12-.52,15.13,0,1.74.15,3.56-.99,5.03"/>
      <path class="cls-2" d="m208.03,296.92c-3.71.16-7.94,1.99-11.46,3.06-7.62,2.32-15.08,5.26-22.66,7.56-3.41,1.04-8.66,2.82-10.98,5.63-2.08,2.52-1.4,5.14-1.22,8.11.15,2.47-.04,5.6,1.06,7.86,1.06,2.18,4.36,3.27,6.41,4.11,1.46.6,2.3,1.77,3.71,2.54,3.77,2.06,9.07,3.02,13.21,3.59,7.52,1.04,15.26,2.14,22.87,1.53,4.39-.35,9.21-.56,13.52-1.37,4.65-.87,9.4-2.72,13.94-4.02,5.1-1.46,10.9-2.75,15.77-4.86,4.2-1.82,11.45-4.11,13.61-8.86.85-1.87,3.06-6.81,1.04-8.66-4.65-4.27-11.81-6.36-17.6-8.41-9.9-3.5-17.18-7.82-28.18-6.84"/>
      <path class="cls-2" d="m227.9,297.1c3.29-.14,6.66.82,9.8,1.82,4.7,1.49,9.76,2.27,14.32,4.21,4.71,2.01,8.99,4.89,13.55,7.18,2.51,1.26,5.95,2.54,6.85,5.52.4,1.33.36,3.32.45,4.65.07.99-.06,2.11-.52,3-1.74,3.41-5.03,5.72-8.41,7.39-9.01,4.44-18.99,5.99-28.8,7.55"/>
      <path class="cls-2" d="m229.8,296.58c-.99-.28,1.58.37,1.82.41,1.16.16,2.33.21,3.48.43,3.69.69,7.39,1.54,11.01,2.5,6.78,1.8,12.67,5.24,18.84,8.42,3.87,2,7.81,4.08,10.47,7.59"/>
      <path class="cls-2" d="m275.23,315.8c-.13-.09-.31-.51-.32-.36-.03,2.33.79,4.79.52,7.21-.22,1.9-.42,5.49-1.68,6.96-1.3,1.51-3.78,2.41-5.39,3.58-3.72,2.7-9.45,3.86-13.79,4.82-7.65,1.7-14.14,1.73-20.34-3.58-1.26-1.08-1.3-3.07-1.86-4.63"/>
      <path class="cls-2" d="m193.49,302.63c-1.42-.97,4.47,3.14-.08-1.31-1.01-.99-5.53.73-6.22.92-8.63,2.28-16.69,6.07-23.73,11.58"/>
      <path class="cls-2" d="m163.18,331.39c-.04-.23,1.96,2.15,2.63,2.5,2.59,1.37,5.3,2.38,8.09,3.3,2.21.73,4.14,2.25,6.43,2.86,5.03,1.35,9.98,2.85,15.09,3.9,10.46,2.16,20.88,1.96,31.54,1.32,8.08-.49,16.9-.91,24.32-4.47,3.97-1.91,9.04-2.42,12.45-5.32,1.68-1.43,2.72-3.16,3.97-4.98"/>
      <path class="cls-2" d="m266.45,334.96c-8.34,4.63-17.24,5.85-26.65,6.65"/>
      <path class="cls-2" d="m256.39,338.84c-3.23,1.79-7.33,3.06-11.15,3.42"/>
      <path class="cls-2" d="m173.73,338.04c-1.3.52-.65.15,2.28,1.56,2.57,1.24,5.91.8,8.72,1.36"/>
      <path class="cls-18" d="m216.59,32.42c2.97-.44.43.01,2-.38,6.87-1.72-5.34-1.21-5.03-.9.38.39,3.64.34,4.5.25.17-.02,3.24-.54,2.85-.87-1.19-1.01-9.37-2.48-9.6-.13-.04.4.81-.19,1.2-.1,1.19.28,2.6.16,3.79-.04.71-.11,2.8-.58,2.08-.51-.53.05-2.08.13-4.87-.27-1.09-.16-2.33-.06-3.43-.03-1.85.05-3.79.24-5.58.67-.42.1.46-.88.89-.95.86-.13,1.74.01,2.6-.03,1.9-.1,6.75.63,8.17-.96.53-.59-1.43,1.05-2.21.91-2.86-.49-5.61-.66-8.51-.52-1.27.06-4.88-.05-3.77.56,1.05.57.13-1.97.72-2.08,2.43-.44,5.4-.4,7.88-.32,1.32.05,2.78.13,4.07.44.58.14,2.34.33,1.75.44-2.36.41-.13-.23-.74,1.72-.31.99-2.04-.41-3.07-.46-1.93-.09-3.88-.06-5.8.08-5.69.38-11.24,2.14-16.87,2.8h0c5.66-4.55,13.4-5.41,20.41-4.99,1.64.1,6.88-.33,6.79,2.14-.01.4-6.3-.1-6.51-.11-2.93-.03-9.4,1.85-9.34-1.82,0-.5,3.99-.54,4.48-.53,2.87.05,10.81-.68,12.11,2.45.54,1.31-2.8,1.49-3.3,1.56-1.95.29-10.29,1.93-10.98-.93-.52-2.17,3.24-2.01,4.3-2.04,2.15-.06,11.68-.3,12.24,2.76.44,2.38-9.21,2.84-9.89-.29-.3-1.37,2.06-1.72,2.81-1.82,2.74-.38,7.39-.77,9.06,2.07,1.55,2.62-8.31,3.93-9.08.89-.32-1.24,1.38-1.15,2.11-1.24,1.69-.2,4.2-.62,5.85.06,2.35.96-.69,2.5-1.71,2.62-.81.1-1.54.17-2.38.21"/>
      <path class="cls-18" d="m194.59,29.87c-3.84,2.05-4.79,2.54-10.03,5.41-1.52.83-1.89.96-2.97,1.83-.49.39-1.25,1.76-1.47,1.17-.98-2.73,5.48-4.72,7.68-5.93.89-.49,1.63-1.17,2.44-1.78.37-.27.94-1.39,1.01-.93.06.4.29.79.24,1.19-.04.3-2.15,1.34-2.44,1.54-2.63,1.86-5.45,3.63-7.85,5.77-1.08.96-2.42,1.85-3.24,2.98-.47.65-2.05,2.46-1.45,1.92.45-.4,6.86-5.41,10.11-7.46,1.48-.94,3.08-1.68,4.57-2.59.67-.41,2.6-1.79,1.93-1.37-.74.46-.11-.06.23,1.26.05.18-2.87,2.11-3.11,2.3-2.43,1.91-7.21,3.22-8.98,5.63-.34.46.33-1.17.17-1.72-.24-.81,2.96-2.21,4.54-3.22,4.67-2.98,9.81-5.34,15.27-6.35,1.3-.24,5.54-.98,5.03,1.68-.14.72-3.1.88-3.59.96-2.62.44-9.4,3.95-9.31.5.01-.54,5.96-1.54,6.58-1.65,4.98-.93,10.18-1,15.22-.58,2.09.17,5.21,1.02,7.26.14.04-.02-8.86-3.5-12.9-3v-.08c2.5-1.03,16.94-2.26,14.32,4.11-.59,1.44-3.44,1.41-4.7,1.41-5.22,0-10.52-.84-15.73-.41-1.98.16-4.01.34-5.93.87-.33.09-3.61,1.07-3.63,1.02-.26-.6-1.4-1.52-.8-1.78,3.9-1.67,10.39-4.14,12.57-1.11.02.02-1.1.19-1.13.19-.92.12-1.85.1-2.78.26-2.52.44-4.9.7-7.31,1.68-3.59,1.46-6.91,3.33-10.19,5.39-.44.28-3.21,2.33-3.77,1.66-1.45-1.73,1.34-2.52,2.31-3.07,1.95-1.12,9.13-7.1,11.16-5.23.65.6-1.4,1.06-2.12,1.57-1.4.99-2.88,1.85-4.26,2.87-2.9,2.15-7.84,7.92-11.93,7.32-2.36-.35-.33-3.54.47-4.28,3.34-3.09,6.89-5.77,10.82-8.16.43-.26,3.65-2.43,4.08-2.14,2.17,1.48-6.19,5.25-8.04,6.54-.24.17-2.71,2.15-2.9,2.01-2.34-1.61,3.13-3.92,3.85-4.29,8.3-4.3,5.41-3.41,10.46-4.66"/>
      <path class="cls-18" d="m184.84,52.14c1.98-1.22,3.97-2.45,5.95-3.67.22-.14.85-.4.6-.5-.3-.12.33.77-.35,1.12-1.96,1.01-3.67,2.38-5.47,3.67-.84.6-1.92,2.74-2.47,1.87-1.24-1.96,3.15-3.75,4.62-4.73.29-.19,2.12-1.57,2.38-1.27.96,1.13-3.8,3.58-4.79,4.46-1.23,1.1-2.96,4.05-2.66,3.12.01-.03,2.99-1.46,3.6-1.83,3.76-2.24,7.42-4.83,11-7.34,1.43-1,2.95-1.69,4.45-2.56.55-.32,1.08-.53,1.66-.78.29-.12,1.19-.33.9-.22-1.6.61-.14,1.18.15,1.68.21.37-.8.27-1.19.41-.72.27-1.47.47-2.19.75-2.28.91-4.56,1.84-6.8,2.85-1.56.7-3.1,1.41-4.62,2.18-1.05.53-2.9,2.78-3.13,1.63-.79-3.95,10.31-7.66,13.37-8.85,1.19-.46,2.43-.82,3.66-1.14.6-.16,2.34-.1,1.82-.44-1.15-.76-.38,1.17-.39,1.62,0,.69-1.36.18-2.04.31-1.21.22-2.44.43-3.63.76-1.79.48-6.68,4.78-7.09,1.58-.07-.53,3.43-2.21,3.66-2.33,4.53-2.41,9.72-2.99,14.76-2.25l.03.61c-2.53.48-5.07.9-7.61,1.35-1.6.29-3.12.64-4.65,1.22-.96.36-1.83.85-2.75,1.29-.81.39-1.69,1.85-2.37,1.26-.42-.36-1.56-.89-1.12-1.22,2.24-1.69,12.94-6.94,13.81-2.69.2.97-1.96.32-2.91.59-2.19.62-4.25,1.46-6.34,2.39-1.9.84-9.54,6.7-11.05,4.69-.09-.12.95-.53,1.02-.57.76-.38,1.5-.78,2.26-1.17,1.55-.79,3.1-1.56,4.68-2.29.89-.41,1.79-.82,2.69-1.21.99-.43,8.19-4.32,9.11-2.52.52,1.02-1.6,1.57-2.1,1.78-2.65,1.11-5.16,2.72-7.68,4.08-3.49,1.88-6.43,4.87-9.89,6.82-1.3.73-2.9,1.91-4.23.56-2.24-2.28,6.78-8.13,8.27-8.39,1.69-.29-2.47,2.67-2.67,2.82-.71.53-1.51.96-2.19,1.53-.48.41-.96,1.62-1.46,1.22-.09-.07-.53-1.39-.95-.8-.18.25.53-.34.78-.52,4.69-3.35-1.82,1.36,1.67-1.2.83-.61,5.21-4.67,6.43-4.15,1.32.56.32.97-.23,1.31-1.95,1.22-3.89,2.44-5.84,3.66"/>
      <path class="cls-18" d="m202.71,45.38c1.36-.22,2.72-.49,4.09-.67,1.51-.2,3.03-.31,4.54-.47,1.51-.16,5.36-1.62,4.52.63-.1.28-3.39.18-3.75.18-3.75.07-7.86.91-11.44,1.99-.41.12.04-.86.1-1.28.11-.7,5.81-1.11,6.42-1.2,5.51-.76,11.19-.88,16.72-.48,1.68.12,5.11.2,3.97-.82-1.29-1.16-5.51-.73-7.56-.91-8.45-.71-18.15,1.42-26.33,3.03l-.19-.59c3.49-2.29,8.4-3.36,12.54-3.84,3.13-.36,6.25-.65,9.39-.87,3.33-.24,7.75-.34,10.87.91,1.21.49,4.29,3.27,1.74,4.21-2.26.84-5.21.24-7.56.16-3.79-.12-7.76.09-11.56.38-2.01.15-4.02.43-6.01.75-.31.05-1.92.58-2.11.37-1.7-1.87,2.38-1.6,3.81-1.85,2.89-.51,5.71-1.06,8.64-1.24.4-.02,2.74-.43,2.91-.07.94,1.97-4.27,1.81-4.96,1.89-1.5.17-3,.31-4.5.49-1.33.16-2.66.35-4,.53"/>
      <path class="cls-18" d="m207.07,57.29c-2.77,1.22-5.44,2.37-8.02,3.96-1.5.92-3.05,1.79-4.48,2.8-1.16.83-4.12,2.87-4.3,3.88-.11.59-1.09,2.14-.9,1.57.32-.94,2.33-1.67,4.58-3.27,4.16-2.96,9.21-6.46,14.17-7.94,4.29-1.28,8.21-2.27,12.73-1.8,2.57.27,8.09,1.88,10.42.26.67-.46-4.38-1.27-5.83-1.32-4.81-.15-9.36.12-14.07,1.04-4.81.95-8.88,2.63-13.39,4.56l-.24-.34c5.69-7.03,17.08-8.29,25.68-7.86,1.65.08,10.72.31,9.46,4-.52,1.51-2.76,2.02-4.13,2.14-4.49.39-9.18-.82-13.78-.54-6.44.39-12.48,4.26-17.8,7.6-2.4,1.51-4.96,3.97-7.89,4.36-4,.53,1.18-5.31,2.02-5.97,4.58-3.57,9.92-6.27,15.45-8.04"/>
      <path class="cls-18" d="m234.09,56.85c-3.45,5.02-1.42.21-1.75-.59l.02-.05c2.27-.62,1.95,2.45.47,2.94-2.38.8-1.41-.88.38-2"/>
      <path class="cls-18" d="m211.4,60.06c.69-.14,5.06-.9,6.29-1.25.66-.19,2.51.12,1.68.17v-.1c.76-.34-.88.41-1.35.62-2,.89-4.32.64-6.49.93"/>
      <path class="cls-18" d="m207.84,61.28c3.84-1.41,10.06-3.63,14.41-2.54h0c-4.15,1.91-9.8,1.91-14.14,3.33"/>
      <path class="cls-2" d="m197.75,57.63c1.29-.6,2.62-1.26,3.85-1.98.67-.39,2.59-1.61,2.06-1.06-.61.63-7.15,4.87-6.82,3.34.23-1.12,5.07-2.72,6-3.14,6.92-3.11,16.7-6.41,24.35-4.49v.03c-2.72.84-5.83.67-8.64,1.01-5.33.65-10.44,2.07-15.37,4.2-1.66.72-3.35,1.42-4.9,2.34-.42.25-1.42-.43-1.46.05-.06.67,1.22-.58,1.79-.93.71-.43,4.79-2.88,5.21-2.45.33.33-5.5,3.06-5.98,3.29"/>
      <path class="cls-2" d="m232.52,53.51c-6.29-1.55-11.73-1.77-18.37-.89h0c5.63-1.73,13.21-2.84,18.64.39"/>
      <path class="cls-2" d="m210.6,63.56c.87-.21,1.73-.47,2.61-.63,1.35-.24,5.41-.62,4.11-.2-2.37.77-5.33-.02-7.86.91-.8.29-1.64.51-2.44.83-.44.17-1.55,1.01-1.25.65.49-.57.39-.11-.13-.98-.13-.22,5.56-1.92,5.92-2,5.73-1.31,12.03-1.65,17.48.71h0c-4.96-1.05-10.48-.98-15.48-.14-1.23.21-7.73,2.74-8.25,1.67-.21-.42,3.07-1.23,3.24-1.29,2.29-.77,4.64-1.24,7.06-1.45.43-.04,2.3-.18,2.48.47.5,1.78-5.93,1.55-7.34,1.87"/>
      <path class="cls-2" d="m191.43,44.05c1.5-.79,2.97-1.65,4.5-2.38,1.13-.54,2.35-.89,3.53-1.3,9.15-3.17-3.64,2.33-6.4,2.99v-.04c1.58-.72,7.76-4.85,10.03-4.17,1.83.55-3.11,1.8-3.38,1.89-.2.07-3.29,1.23-3.44,1.3-1.54.69-3.04,1.46-4.57,2.19"/>
      <path class="cls-2" d="m199.96,35.2c1.61-1.14-7,3.37-7.14,1.34-.01-.17,1.76-.58,1.96-.64,2.39-.73,4.86-.8,7.25-1.48.77-.22,1.55-.25,2.34-.35.44-.05,1.76-.17,1.32-.11-.35.05-.03.94-.38,1-4.22.67-8.18,1.12-12.14,2.96l-.05-.09c3.04-1.65,5.93-2.84,9.34-3.65.31-.07,3.1-.78,3.44-.27.77,1.16-8.11,1.92-10.06,2.41-1.03.26-2.48,1.21-3.37.47-.21-.17,1.79-.84,1.92-.87,1.77-.41,7.27-.68,5.62-.57"/>
      <path class="cls-2" d="m204.48,33.98c5.4-.47,9.96,1.14,15.11,1.87v.04c-5.23.13-9.76-1.39-15.09-1.57"/>
      <path class="cls-2" d="m174.9,39.43c-4.04,6.41,4.55,6.11,8.74,3.97l.06.13c-4.18,2.53-14.63,2.64-9.16-4.37"/>
      <path class="cls-2" d="m173.99,40.03c4.76-4.72,9.57-8.09,14.83-12.04h0c-4.93,4.08-9.81,7.99-14.61,12.24"/>
      <path class="cls-2" d="m180.1,53.51c.38,4.75,2.21,6.36,6.97,6.19h0c-5.02,2.64-9.47-.69-8.13-6.52"/>
      <path class="cls-18" d="m187.08,66.7c-.21,4.1.45,4.34,3.66,6.18v.33c-5,2.69-5.27-3.88-4.56-6.64"/>
      <path class="cls-18" d="m183.45,54.26c-1.23,2,.43,1.32-1.11,2.65-.33.28.27-1.1.7-1.1.75,0,1.19-.16,3.07-.27l.07.17c-.76.86-1.82,1.67-2.99,1.54-1.26-.14.05-1.35.02-1.37-.59-.31-.21-.3-.81,1.06-.15.34-.62-.57-.61-.94.05-.83.2-1.31,1.24-2.22"/>
      <path class="cls-18" d="m180.33,37.92c-.54.42-1.1.83-1.63,1.26-2.39,1.97,1.35-3.23,3.66-2.89v.03c-2.04,1.48-8.1,5.03-2.09,1.43"/>
      <path class="cls-2" d="m187.24,65.86c-1.91,8.12.76,6.96,7.42,4.92l.17.32c-2.46,2.17-4.96,2.71-5.73,2.67-.76-.04-1.73-.05-1.66-.04.42.06-.89-.2-1.15-.54-.22-.29-.7-.82-.6-1.48.27-1.83-.88-3.73.89-6.24"/>
      <path class="cls-18" d="m232.09,56.5c-4.91-2.25-6.67-1.87-12.66-1.48l-.07-.36c4.45-1.63,10.08-2.29,13.17,1.55"/>
      <path class="cls-18" d="m208.93,73.44c2.52-1.5,3.27-2.97,2.84-1.11-.17.74-3.95,2.52-4.69,3.12-.06.05-1.1.95-1.34,1.2-.24.25-.84,1.1-.62.84.53-.64-.44-.71-.57-.97-.6-1.19,5.29-3.94,5.78-4.79.22-.38.28,1.11-.1,1.31-1.32.68-4.83,4-4.99,3.7l-.37.02c-2.25-1.98,5.49-6.11,6.29-4.79.32.52-1.49,1.51-1.68,1.65-.78.59-4.45,5.09-5.5,4-.79-.82.85-2.11,1.31-2.5,2.58-2.19,11.4-5.28,3.97-1.13"/>
      <path class="cls-18" d="m203.64,78.48c.39-.07,1.84-.13,2.07-.45h0c-.35.74-1.56.82-2.27.81"/>
      <path class="cls-18" d="m203.13,78.43c.49-.1,1.31-.06,1.74-.2v.02c-.76.8-1,.63-2.29.54"/>
      <path class="cls-18" d="m203.33,78.16c7.82-1.96,13.96-6.06,22.33-6.68l.04.29c-4.54,1.24-9.2,2.27-13.55,4.21-2.84,1.26-6.03,3.14-9.21,2.86"/>
      <path class="cls-18" d="m231.32,72.34c-1.72-.18-4.03-.68-5.82-.09-.49.17.88-.69,1.4-.71.68-.02,3.41.42,3.9-.19.09-.11-.46-.14-.43,0,.18.76-1.47-.66-2.25-.67-1.79-.02-4.26-.46-6.43-.32-5.87.37-11.34,2.06-16.68,4.4h0c4.89-4.62,10.69-6.26,17.49-6.08,2.03.06,4.25.15,6.04.5.66.13,1.44.29,2.06.55.34.15,1.28.58.91.64,0,0,.83,1.24.03,1.55-.84.33-6.19.95-6.44.1-.59-2.02,4.29-.89,6.31-.3"/>
      <path class="cls-18" d="m210.23,73.19c.87-.37,1.71-.83,2.62-1.1,1.06-.31,2.15-.45,3.24-.61.92-.13,1.85-.14,2.77-.25.33-.04,1.11-.46.97-.16-.2.4.12,1.28-.33,1.31-2.24.15-4.59.62-6.75,1.25-.97.28-1.92.57-2.87.91-.25.09-.82.58-.74.32.33-1.19.42-.29-.07-1.13-.32-.54,1.23-.27,1.85-.43,1.11-.28,2.23-.56,3.35-.8,3.6-.78,8.04-1.16,11.53-.88,1.36.11.92,2.29-.36,1.6l.07-1.21c-.6-.31,1.7.43.63.8-2.72.93-7.99.16-11.01.56-1.07.14-6.45,2.29-6.89,1.1-.49-1.32,2.35-1.78,2.95-1.93,2.42-.59,4.83-1.17,7.29-1.52.18-.03,1.66-.22,1.73-.03.78,2.02-2.65,1.71-3.8,1.88-9.29,1.39,2.49-.52-6.08.9"/>
      <path class="cls-18" d="m199.03,97.83c6.33-5.44,14.24-9.82,22.44-11.72,2.34-.54,4.6-1.63,7.04-.79l.02.2c-3.83,1.81-8.34,2.28-12.35,3.76-5.84,2.15-11.5,5.68-16.44,9.4"/>
      <path class="cls-18" d="m199.69,98.08c-.3.31-1.08.92-1.19,1.42-.08.38.54-.58.9-.71.29-.1,2.49-1.25,2.34-1.57-.45-1-3.03,3.15-2.34,2.31,2.39-2.9,7.09-5.4,10.37-7.81.6-.44,3.11-2.76,4.08-2.45l.02.02c.2.89-3.01,2.85-3.49,3.23-2.68,2.08-7.33,7.18-10.96,7.45-3,.23,2.97-4.44,2.83-2.5-.16,2.33-7.2,3.55-3.05.22"/>
      <path class="cls-18" d="m204.56,96.62c7.92-8.3,17.06-10.18,27.53-10.76,2.55-.14,4.89-.01,7.3-.45.13-.02,2.07-.38,2.1-.27.1.34.33-.67.63-.84.22-.12.15.92-.05.76-.23-.18-.9-.52-1.29-.5-3.99.25-8.22.4-12.25,1.28-6.48,1.41-12.84,3.06-18.81,6.05-2.67,1.34-5.06,3.51-7.89,4.56l-.2-.22c5.46-9.27,20.41-12.23,30.29-12.95,2.76-.2,11.28-1.96,11.36,1.64.02.69-1.11,1.26-1.86,1.67-3.11,1.68-10.47,1.02-14.42.9-7.26-.23-16.5,4.97-22.12,9.59"/>
      <path class="cls-18" d="m224.82,100.28c-5.69,1.38-10.44,4.77-15.18,7.24-2.99,1.56-5.36,4.68-6.04,4.09-.29-.25.79.08,1.16-.02.73-.18,1.66-.47,2.33-.84,2.51-1.41,5.36-2.28,7.91-3.69,5.19-2.86,10.61-6.28,16.41-7.73,1.75-.44,4.16-1.88,5.9-.73l.09.55c-2.63,2.46-8.9,2.75-12.33,4.39-3.2,1.53-6.3,3.26-9.41,4.95-3.07,1.67-6.5,3.39-9.85,4.34-.9.25-2.95.86-3.38-.48-.35-1.08.81-2.23,1.79-2.92,4.61-3.3,13.08-9.71,20.68-9.97"/>
      <path class="cls-18" d="m228.19,100.9c3.03-.66,5.93-.74,8.96-.93,3.3-.21,8.56-.15,10.77-1.73.84-.6-2.06.03-3.09.02-3.13-.03-6.21-.12-9.38-.06-6.12.12-11.39,3.15-17.05,5.04l-.62-.73c3.82-6.67,16.47-6.57,23.26-6.58,1.73,0,7.69-.17,7.99,2.27.4,3.24-10.62,3.15-12.32,3.18-2.78.06-5.58.43-8.36.28"/>
      <path class="cls-18" d="m226.14,114.53c-2.5,1.56-5.3,2.79-7.67,4.54-1.5,1.11-3.19,2.03-4.59,3.28-1.17,1.05-2.34,2.16-3.53,3.29-.57.54-1.74,2.58-1.44,1.86,1.7-4.11,13.3-9.49,18.71-12.49,1.35-.75,5.31-2.63,6.65-1.48l.08.27c-.93,1.8-4.22,1.91-5.89,2.78-4.78,2.49-9.29,5.38-13.83,8.41-1.32.88-4.24,3.4-5.96,3.19-2.4-.3-.22-2.76.47-3.62,2.32-2.85,5.54-5.33,8.79-7.04,2.73-1.44,5.28-2.94,8.23-3.98"/>
      <path class="cls-18" d="m224.67,117.22c6.28-2.78,12.96-2.68,19.51-4.01,2.07-.42,4.29-.46,6.35-.73,1.05-.14,4.06-.21,3.1-.64-.65-.29.16-.07-.37.01-3.07.51-6.95-.33-10.23,0-8.36.87-15.35,4.11-23.28,6.26l-.23-.32c4.4-6.64,18.96-8.28,26.43-8.26,2.37,0,8.86-.86,9.04,2.43.1,1.95-8.26,2.38-10.04,2.84-2.28.59-4.71.69-7.02.99-4.33.57-8.71,1.14-13.02,2.07"/>
      <path class="cls-18" d="m150.67,56.37c1.47,3.47,1.23,2.29.57,2.45-.48.12-.39,1.74-.68,1.33-.2-.29-.6-1.21-.62-.86-.04.49-.41-.89-.54-1.36-.14-.53-.75-1.16-.42-1.59,2.56-3.35,8.93-7.1,13.55-8.75,1.22-.44,4.23-1.79,5.3-.7,1.14,1.15-2.09,3.24-2.87,3.81-3.73,2.72-7.21,5.79-10.88,8.6-.83.64-2.67,2.57-3.07,2.19l-.64-1.18c-.19-.62,2.18-2.14,3.56-3.15,3.24-2.36,6.57-4.58,9.64-7.15,1.44-1.21,2.81-2.77,3.76-2.29.51.25-1.12.39-1.68.29-.07-.01-1.93.67-2.6.96-3.01,1.28-5.96,3.09-8.66,4.94-1.12.77-3.02,2.55-4.43,2.75-1.1.15-.16-1.05-.06-1.11.21-.11.84,2.21.94,2.52.1.32.65,1.15.45.88-.28-.38-.51,2.9-2-2.31"/>
      <path class="cls-18" d="m151.3,57.64c2.17-2.47,4.28-5.39,7.7-5.65l.36.54c-1.05,2.66-4.96,4.12-7.17,5.51"/>
      <path class="cls-18" d="m155.32,73.87c.48,2.58,1.28,2.69-1.39,2.37-.05,0-.23-1.55-.27-1.68-.59-1.57-.26-1.18-.04-2.24.12-.59,2.31-1.63,2.84-1.99,2.92-1.97,6.21-3.87,9.53-5.05.43-.15,3.64-1.84,3.89-1.31.89,1.87-1.28,2.61-2.61,3.49-2.9,1.92-5.45,4.27-8.29,6.22-.72.49-2.9,2.87-3.79,2.24l-.61-.73c-.05-1.32,2.72-2.41,3.65-3.14,2.62-2.08,5.35-4.08,8.13-5.94.86-.57,1.95-2.6,2.54-1.76.52.75.49,1.36,1.04,1.07.32-.17-.67.29-.98.47-.61.36-1.28.63-1.93.93-1.86.88-3.69,1.79-5.5,2.76-2.44,1.31-5.14,2.56-7.43,4.08-.26.17.36-1.17.39-.86,0,.06,1.31,3.04,1.18,3.11-2.45,1.25-1.69.39-1.78-1.93"/>
      <path class="cls-18" d="m158.35,86.49c3.19-2.46,6.4-4.87,9.9-6.84.7-.39,4.47-3.14,5.12-1.93.59,1.09-.87,2.4-1.53,3.01-2.52,2.29-5.85,3.91-8.62,5.93-.93.68-1.81,1.42-2.8,2.02-.5.31-2.22.77-1.64.65.77-.15-.66.35-1.15-.84-.37-.89,1.58-2.43.69-2.82-.29-.13.57.3.83.48.72.5-.45,2.98-1.11,2.4-.05-.05,4.31-3.61,4.66-3.83,2.97-1.89,6.32-2.99,9.26-4.86,1.61-1.03,1.9-2.65,1.94-1.65.01.34.07-1.21-.2-1-.76.62,1.2.82-1.93,1.49l-.31-.7c.47-.41,4.92-3.01,3.93-.34-.97,2.64-8.12,5.7-12.75,8.63-1.16.73-3.2,3.38-4.7,3.32-1-.04-.23-3.56,1.24-3.65.68-.04.51,2.43-.04,2.04-.13-.09-.59-.11-.44-.16,3.77-1.15,8-5.04,11.3-7.25.95-.64,2.67-2.69,3.01-2.16.52.8-1.75.79-2.55,1.32-1.83,1.21-3.7,2.39-5.56,3.58-2.06,1.31-3.73,2.52-5.82,4.03"/>
      <path class="cls-18" d="m163.74,99.5c.72-.61,1.42-1.25,2.15-1.83.99-.79,9.28-7.03,10.1-4.68.18.51-1.45,1.91-1.71,2.3-1.48,2.24-6.89,6.96-9.71,7.26-1.15.12-2.81-2.26-1.62-2.94,1.42-.8,1.96,4.23.99,3.14-.09-.11,3.6-2.61,4.07-2.97,1.18-.9,6.7-4.91,7.52-4.14l.39.52c.28.73-2.48,1.97-2.96,2.29-1.9,1.25-8,6.7-9.88,5.4-.73-.51-.27-1.95-.21-2.62.04-.41-.15-1.39.21-1.21.97.48.1.59,1.25-.22.27-.19-.44,1.17-.18.97,2.62-2.03,5.77-3.38,8.37-5.51.43-.35,1.81-2.63,2.13-2.56.99.24.13.6,1.13.62.83.01-1.48.77-2.18,1.21-1.52.96-3.17,1.77-4.68,2.76-1.8,1.19-2.76,1.96-4.52,3.28"/>
      <path class="cls-18" d="m168.87,114.35c1.46,1.74,1.05,1.93-.03,1.81-.34-.04.46-.51.74-.71.63-.46,1.23-.96,1.9-1.37.93-.56,1.65-1.36,2.53-1.96.31-.21.09.91.45,1.02.57.18-1,.66-1.5.98-.79.49-3.63,2.85-4.46,1.46-.72-1.21,5.66-6.61,5.1-4.8l1,.69c-.19.22-4.48,3.45-5.43,3.21-.63-.16,1.23-.45,1.81-.74.64-.32,3.06-2.17,3.29-1.95,1.04.96-4.01,5.4-5.34,5.1-.39-.09-.64-2.06-.78-2.33"/>
      <path class="cls-18" d="m175.57,110.6c-.23,1.55.06.86-.82,2.07l-.16-.02c-.51-1.27-.43-.62-.26-1.92"/>
      <path class="cls-18" d="m175.24,110.55c-.03.95.07,2.36-1.11,2.76l-.13-.02c-1.13-.86-.46-2.22-.12-3.22"/>
      <path class="cls-18" d="m173.26,110.91c1.2-1.65.47-1.58,1.72-1.36l.62.43c.62,1.04.4.34-.66,2.09"/>
      <path class="cls-18" d="m173.3,127.39c-.09.08-.29-.33-.17-.32.72.1-.12,2.57.81,3.03.36.18-.14-.79-.19-1.19-.07-.56.31-2.13-.44-1.52Z"/>
      <path class="cls-14" d="m238.15,144.94c1.34-.74,2.3-1.86,3.27-3.03,2.9-3.5,4.67-6.98,5.21-11.56.06-.49.11-.97.08-1.46-.02-.34-.03-.67-.07-1.01-.12-1.06-.51-4.79-2.45-3.92-.8.36-.96,1.28-1.06,2.07-.19,1.59-.18,3.01.02,4.6.16,1.25-.15,2.58-.14,3.83.02,3.29-.67,7.14-3.48,9.36"/>
      <path class="cls-14" d="m246.69,143.53s1.72-1.13,1.76-1.17c1-1.1,1.94-2.12,2.78-3.36,2.24-3.31,3.34-7.25,3.46-11.23.04-1.37,0-2.29-.4-3.52-.03-.1-.36-.95-.43-.99-2.27-1.26-2.71,1.54-2.84,3.21-.2,2.66.53,5.39.34,8.08-.16,2.24-1.17,4.72-2.41,6.57"/>
      <path class="cls-14" d="m254.59,142.29c.57,0,2.07-1.83,2.44-2.22.95-1.01,2.23-1.74,2.96-2.96,1.61-2.7,2.07-5.46,2.31-8.55.09-1.1.61-4.26-.96-4.75-1.29-.4-1.75,2.41-1.85,3.24-.36,2.85.07,5.83-.56,8.64-.27,1.24-.98,2.31-1.54,3.43"/>
      <path class="cls-14" d="m261.5,140.23c.21-.63,1.62-1.16,2.22-1.79,1.52-1.6,3.09-3.11,4.01-5.15,1.07-2.38,1.57-5.78,1.39-8.36-.04-.61-.11-2.64-.59-3.12-.17-.17-.31-.27-.56-.25-.06,0-.44.31-.4.19.16-.49,1.44-.85,1.67-.25.31.83.64,2.03.49,2.9-.03.17-.1-.33-.15-.49-.09-.31-.15-.62-.25-.93-.19-.62-1.17-1.78-1.76-.8-2.56,4.27-.26,9.42-2.5,13.89"/>
      <path class="cls-14" d="m264.4,137.63c.16-1.3,1.25-2.59,1.79-3.83"/>
      <path class="cls-14" d="m268.29,112.45c.11-.38.71-.68.97-1.02,1.06-1.44,3.12-3.9,3.22-5.82.01-.31-1.64.19-1.86.24-2.26.47-4.69.56-6.81,1.52-1.22.55-1.89,2.27-1.69,3.54.03.2.09,1.96.74,2.01,2,.15,4.16-.76,6.01-1.43"/>
      <path class="cls-14" d="m265.86,97.85c-.02.63-.12.4.75-1.43.27-.57.99-1.98.71-2.54-.07-.14-.64.1-.88.1-.58,0-1.14,0-1.73,0-1.71,0-7.06.43-5.53,3.24.9,1.65,3.04,1.38,4.56.96.34-.09,2.13-.63,2.12-.35Z"/>
      <path class="cls-14" d="m260.28,86.03c.05.54.62-.58.68-.72.26-.62.45-1.26.68-1.89.3-.84.65-1.67.92-2.52.08-.25.42-.55.24-.75-.14-.16-.75.21-.94.26-1.15.31-2.64.41-3.8.63-.07.01-2.37.27-2.69.64-.22.27-.76.87-.79,1.25-.2,2.17,2.15,3.02,3.81,2.86.73-.07,1.84-.41,1.89.24Z"/>
      <path class="cls-14" d="m255.31,72.26c-.09.1.2-.18.27-.29.46-.72.91-1.44,1.35-2.17.49-.81,1.04-1.68,1.45-2.52.14-.3-.64.17-.95.28-.36.12-.73.22-1.1.33-1.29.38-2.98.47-3.58,1.86-.23.54,1.22,2.29,1.67,2.62.32.23,1.01-.27.88-.12Z"/>
      <path class="cls-14" d="m250.18,60.46c-.33,0,.36-.56.51-.86.5-1.02,1.02-1.98,1.57-2.97.25-.44.8-.86.68-1.35-.04-.18-1.78-.31-1.83-.31-.47-.03-.95-.04-1.42-.05-1.47-.04-3.39.24-4.73.92-.32.16-1,.77-.88,1.24.26,1.03,1.19,2.46,2.1,3.04.45.28,1.4-.01,1.86-.09,1.41-.24,3.01-.06,3.85-1.54.36-.63.46-1.41.86-2,.14-.2,1.12-1.45.92-1.65-.14-.13-1.51.74-1.85.8"/>
      <path class="cls-14" d="m245.3,27.65c.18.9-.63,2.09-1.08,2.77-.4.61-1.68,3.46-2.72,3.54-.79.06-1.61.11-2.4.15-.4.02-.8-.07-1.2-.1-.51-.04-1.41-.08-1.85-.41-.97-.72-1.59-1.45-1.66-2.67-.01-.26-.05-.97.31-1.13,2.48-1.13,5.56-.15,8.15-.75"/>
      <path class="cls-14" d="m249.45,41.7c.14-.36-.27.74-.44,1.09-.46.95-1.25,1.72-1.77,2.63-.16.28-.25.79-.61.89-1.67.45-3.76.78-5.42.1-1.68-.69-2.32-3-.93-4.29,1.98-1.84,5.07.36,7.32-.11.58-.12,1.61.29,1.85-.31Z"/>
      <path class="cls-14" d="m191.03,3.16s.82.2.99.25c.54.16,1.05.46,1.55.72,1.77.94,3.44,1.91,4.98,3.2,2.46,2.05,3.6,5.23,5.48,7.7.16.21,1.95,1.78,2.17,1.16.52-1.42-.93-3.46-1.54-4.65-1.74-3.34-4.27-6.83-7.89-8.26-1.32-.53-3.81-1.04-5.17-.1"/>
      <path class="cls-14" d="m192.38,3.34c-.43.02-.82,0-1.26-.06"/>
      <path class="cls-14" d="m201.17,1.49c.17-.16.09-.12.47.16,1.33.98,2.28,1.83,3.41,3,1.04,1.07,2.11,2.09,2.97,3.32,1.41,2,2.2,4.39,3.48,6.47.4.65,1.45,2.42,2.43,1.83.33-.2.05-.89.04-1.1-.02-1.13-.97-2.54-1.45-3.5-1.59-3.22-3.91-5.69-6.6-7.95-.82-.69-2.02-2.16-3.18-2.21"/>
      <path class="cls-14" d="m209.61,1.73c1.07.25,2,1.12,2.75,1.9,2.23,2.3,3.64,5.04,5.04,7.89.48.99,1.47,3.84,2.8,4.04.62.09.46-.96.41-1.32-.19-1.42-.47-2.67-.95-4.01-.93-2.59-2.53-7.18-5.53-8.08-.87-.26-1.6-.23-2.45-.24"/>
      <path class="cls-14" d="m220.67,3.27c.07-.15.42.18.5.29,2.69,3.43.58.65,1.66,2.19,1.78,2.53,2.89,5.34,4.39,8.02.18.33,1.17,2.28,1.7,2.11,1.01-.33.1-2.51-.13-3.33-.64-2.33-1.96-4.49-3.32-6.46-.48-.69-1.26-1.91-2.15-2.05"/>
      <path class="cls-2" d="m274.12,313.46c1.25.7,2.86,6.64-.17,5.93-.68-.16-.45-2.8-.66-3.52-.67-2.33-.43-.21-.88-2.33l.21-.37c2.25-.21,1.8.64,2.32,2.74.18.72.77,2.73.23,2.22-.44-.41-1.6.76-1.78.19-.23-.73.13-2.88.73-3.16"/>
    </g>
    <g>
      <path class="cls-18" d="m195.68,188.09c0,.42,1.61.59,1.99.62,2.07.14,4.36-.38,6.37-.82,5.47-1.21,10.74-3.1,16.16-4.45,2.96-.74,7.07-1.06,9.58-2.94,1.11-.83,1.22-2.61,1.85-3.77,1.98-3.64,3.44-6.82,3.01-11.09-.22-2.2-.07-4.25-.07-6.44,0-.59-.17-2.08-.14-2.12.91-1.22,3.82-1.31,5.13-1.57,1.15-.23,3.73-1.4,4.86-1.03.51.17.33,2.65.27,3.08-.44,3.49-.94,6.95-1.23,10.47-.32,3.84-.6,8.83-3.01,12.05-1.33,1.77-4.18,2.58-6.02,3.63-7.63,4.36-16.08,5.56-24.71,6.64-.96.12-1.92.27-2.88.41-.93.14-1.82.43-2.74.62-2.16.43-4.69-.2-6.78-.62-.76-.15-1.49-.16-1.78-1.03"/>
      <path class="cls-18" d="m233.37,161.03c.04.7.06,1.39.1,2.07.16,3.04.2,6.28,0,9.31-.07,1.04.27,2.12-.07,3.15"/>
      <path class="cls-2" d="m190.61,162.21c-.36-.36-.21,2.06-.21,2.46,0,1.97.05,3.93.14,5.89.16,3.61.43,7.22.75,10.82.2,2.14.77,4.56.34,6.71"/>
      <path class="cls-2" d="m245.59,189.12c.21-.43.1-.17-.62.55-.36.36-.73.77-1.16,1.03-1.35.81-3.42,1.58-5,1.78"/>
      <path class="cls-18" d="m233.61,156.74c-.68,0-.05,1.95,0,2.33.28,2.12-.02,4.01.48,6.03"/>
      <path class="cls-19" d="m210.5,280.35c-.78.12-1.66.89-2.2,1.42-.76.74-1.91,1.55-1.91,2.75,0,.47.99,1.35,1.29,1.65,1,1.01,1.98,1.24,3.23,1.85.44.22,1.24.57,1.75.42.23-.07.68-1.01.83-1.2.2-.25.59-.67.65-.99.01-.08-.42-.3-.49-.37-.46-.39-.83-.85-1.21-1.32-1.13-1.41-1.51-3.03-1.77-4.79"/>
      <path class="cls-19" d="m206.42,295.9c.05-.31-1.63.64-2.01.8-1.46.59-2.87,1.22-4.38,1.71-4.28,1.39-8.69,2.4-12.99,3.79-7,2.27-14.44,4.34-20.79,8.14-1.26.75-2.74,1.52-3.8,2.54-.3.28-.85.68-.83,1.15.06,1.23.72,2.23.93,3.43.02.14.38,1.17.49,1.08.33-.24-1.42-2.04-1.54-2.29-.16-.33-.17-.88-.16-1.25,0-.19.07-.75.04-.56-.09.59-.26,1.33-.07,1.92.63,1.93,2.81,2.88,4.2,4.14,1.63,1.48,2.87,4.03,4.8,5.11,2.52,1.4,5.67,1.47,8.35,2.53,1.96.77,4,1.32,6.05,1.79.83.19,1.83.68,2.67.32.83-.36,1.46-1.27,2.04-1.93,1.47-1.66,3.04-3.3,4.6-4.88,4.35-4.39,9.56-8.43,13.13-13.51.39-.56.84-2.01.39-2.62-.17-.23-.65.21-.81.14-.45-.19-.72-1.32-.79-1.74-.28-1.64.02-3.28-.13-4.93-.05-.57-.71-3.41.04-3.77.29-.14.25.59.25.7,0,1-.15,2-.23,2.99-.07.89.01,1.75.08,2.64.11,1.37.54,2.74.66,4.05"/>
      <path class="cls-19" d="m173.87,327.05c.91,1.23,2.49,1.42,3.89,1.82,2.9.82,7.43,3.2,10.13.87.49-.43,1.08-.94,1.33-1.55.54-1.29-.45-2.34,1.14-3.51"/>
      <path class="cls-19" d="m161.91,319.07c-.04-.12-.05-.07.02-.18"/>
      <path class="cls-19" d="m161.76,317.45c-.07-.06-.42-1.49-.43-1.48-.34.34-.26,1.66-.32,2.1-.24,1.85-.28,3.51-.2,5.36.07,1.68-.16,3.5.41,5.13.89,2.57,4.53,4.77,6.65,6.07,2.16,1.33,4.36,2.64,6.53,3.92.79.47,1.44.82,2.31,1.1.34.11.68.25,1.02.36.11.03.44.16.34.09-1.69-1.14-4.22-.56-6.02-1.67-1.08-.67-2.93-1.54-3.73-2.53-.45-.56-.85-1.16-1.34-1.69-.2-.21-.87-.71-.74-.45.69,1.39,3.01,2.27,4.24,3.04,2.39,1.5,5.02,3.79,7.73,4.65,1.34.42,2.63.3,3.99.47,1.42.18,2.35.99,3.88.99.2,0,.83.11.99-.09.68-.9.26-3.69.39-4.71.34-2.62.37-5.23.7-7.83.26-2.05.89-4.18.81-6.26-.03-.71-.58-1.46-.65-2.22-.08-.88.39-2.17.12-2.97-.32-.92-2.75.3-1.71-1.24"/>
      <path class="cls-19" d="m187.71,332.33c-.92.32,1.07-1.68,1.33-2.05,1.11-1.56,2.13-3.17,3.36-4.64,3.08-3.69,5.82-7.69,9.23-11.1,1.57-1.57,2.9-3.31,4.38-4.96.11-.12,1.16-1.23.98-1.39-.18-.16-1.57,1.42-1.72,1.56-1.47,1.44-2.88,2.91-4.27,4.43-3.35,3.68-7.16,6.89-10.22,10.84-1.53,1.97-2.85,4.09-4.35,6.07-.79,1.05-1.11,2.19-2.15,3.2"/>
      <path class="cls-19" d="m188.06,332.42c-.83.95-.33,2.51-.44,3.77-.14,1.52-1.05,4.83.04,6.24.53.69.88,1.08,1.68,1.46.36.18,1.21-.03,1.15.37,0,.06-1.93-.14-2.06-.22-1.95-1.15-3.45-2.07-4.76-4.13-.56-.89-.71-2.13-.84-3.14-.42-3.33-.38-6.69.05-10.01"/>
      <path class="cls-19" d="m188.2,332.31c-.86-.11-.14-.05-.52,2.29-.3,1.88-.44,5.23.72,6.86.67.95,1.73,1.58,2.65,2.26.15.11,1.43.84,1.22.91-1.77.62-4.2-.54-5.61-1.39-1.13-.69-2.45-.86-3.46-1.78-2.5-2.28-3.72-7.07-3.49-10.25"/>
    </g>
    <g>
      <path class="cls-15" d="m194.54,9.9c-3.15.31-5.4,1.4-7.92,3.07-17.15,11.34-10.46,33.13-4.22,48.97,1.4,3.55,2.92,6.85,4.63,10.26,2.31,4.59,4.7,9.64,6.38,14.48,3.85,11.11,8.13,21.88,12.38,32.83.53,1.38,4.14,7.02,6.5,5.87,1.43-.7,2.04-3.34,2.23-4.61.5-3.37-.16-7.48-.86-10.81-1.42-6.73-3.64-13.8-6.18-20.24-3.49-8.86-8.71-16.69-10.4-26.33-.43-2.46-1.09-5.94-.43-8.37,3.54-13.23,21.6-17.23,23.71-31.37.93-6.24-2.71-9.78-7.88-12.23-7.72-3.67-16.63-4.03-24.03.62"/>
      <path class="cls-16" d="m246.63,173.51c-1.1.44-2.05,3.01-2.34,3.62.88,1.7-2.18,6.27-3.87,7.44-4.27,2.95-10.04,3.47-14.5,6-.81.46-3.92,2.52-2.31,3.84,2.1,1.73,6.59.8,8.78-.06,5.52-2.18,14.83-4.66,15.88-11.69.24-1.58.23-8.03-1.06-9.09-.18-.15-.36-.14-.56-.06Z"/>
      <path class="cls-16" d="m219.51,205.93c.06-2.8.41,5.58.5,8.38.14,4.65.31,9.29.24,13.93-.19,13.65-.7,27.3-.64,40.92.01,3.08.52,6.23.51,9.32,0,.87-.03,2.88,1.04,3.41,1.76.89,2.86-5.13,2.99-6.2.48-3.88-.73-7.88-.81-11.78-.1-4.43-.26-8.88-.16-13.32.16-7.7.49-15.26.33-22.96-.09-4.14-.9-8.26-.88-12.39.01-3.46,1.07-8.55-.19-11.85-1.2-3.14-2.96,4.6-2.92,2.54Z"/>
      <path class="cls-16" d="m217.14,290.21c1.06-3.17.82,5.61.82,6.57,0,4.72-.05,13.88,6.98,10.87,2.5-1.07,2.58-3.66,2.87-5.95.54-4.35.62-8.31.62-12.72,0-1.5.42-4.9-.41-6.15-2.41-3.62-8.65,2.67-11.28,2.67"/>
      <path class="cls-16" d="m222.17,314.82c2.43,1.62,4.02,4.53,6.05,6.56,2.74,2.74,5.44,5.42,8.41,7.8.88.7.94,2.39,2.05,2.67,4.08,1.02,10.31-1.06,14.15-2.46,2.88-1.05,5.49-2.54,8.2-3.9,3.13-1.56,5.5-2.83,7.8-5.13.42-.42,1.27-.59,1.44-1.23.22-.88-.93-1.75-1.44-2.26-2.08-2.07-4.89-3.43-7.59-4.51-9.05-3.62-18.67-4.15-28.11-5.33-1.94-.24-3.85-1.78-5.74-2.26-1.18-.29-2.52.09-3.69-.21-.49-.12-1.97-.53-2.46-.2-.52.35-.08,1.55-.21,2.05-.58,2.31-1.03,6.98,1.13,8.41Z"/>
      <path class="cls-16" d="m240.01,334c.88.32,2.57-.4,2.77.51.3,1.38-.77,7.24,1.44,7.8,1.54.39,4.66-1.4,6.36-1.64,4.82-.69,9.64-2.18,9.64-7.59,0-.66.44-4.07,0-4.51-.26-.26-3.37.89-3.69,1.03-3.08,1.32-6.83,1.18-10.05,2.26-1.52.51-2.91,1.44-4.51,1.44h-1.85c-.34,0-1.22-.28-1.03,0,.23.32.56.59.92.72Z"/>
      <path class="cls-16" d="m191.83,79.02c-8.24-4.12-6.85,9.43-7.09,12.82-.11,1.54-.54,2.82-.54,4.36,0,5.94-.16,11.83-.82,17.73-1.71,15.38.29,31.46-.82,46.91-.47,6.61-.93,12.04,0,18.54.18,1.23-.79,4.54.82,5.18,1.65.66,3.11-6.79,3.27-7.91,1.49-10.44.61-20.58,1.36-31.09.9-12.58.24-25.37,1.64-37.91,1.31-11.77,3.27-23.51,3.27-35.46"/>
      <path class="cls-16" d="m229.74,41.93c5.45,10.9,8.02,24.85,10.64,36.82,1.22,5.59,3.55,10.65,5.18,16.09,1.65,5.5,2.14,11.5,4.91,16.64,1.02,1.9,2.23,4.63,3.55,6.27.71.88,3.26.09,3.82-.55,2.25-2.58,2.59-6.26,2.18-9.54-.44-3.5-2.89-6.96-3.82-10.36-4.28-15.7-9.58-31.2-14.73-46.64-.77-2.31-1.85-4.36-2.73-6.55-1.4-3.49-1.53-8.62-4.36-11.45-2.82-2.82-6.27-1.93-6.27,2.18s1.94,8.78,3.82,12.55"/>
    </g>
    <g>
      <path class="cls-7" d="m179.25,6.32c-16.74,9.39-29.38,14.06-34.99,33.44-.72,2.47-2.67,16.42.34,17.57.86.33,4.06-3.37,4.93-4.03,3.32-2.52,10.12-6.64,14.29-7.4,1.56-.28,4.01-1.24,5.03.69,1.23,2.34-.65,3.82-2.34,5.28-4.18,3.62-9.49,7.09-14.25,9.89-1.26.74-3.31,2.85-4.74,2.76l-.12-.3c.62-1.54,4.05-2.93,5.51-3.77,5.13-2.98,14.37-7.69,15.52-13.23.45-2.15-5.56-.22-6.04.06-5.93,3.44-11.24,6.59-16.79,10.51-.9.64-2.23-.49-2.55-1.24-1.95-4.63-.61-12.23.69-16.86,5.03-17.85,18.68-26.29,35.34-33.67"/>
      <path class="cls-11" d="m147.89,64.76c-2.94,15.07,12.29,2.6,17.4-.13.96-.51,5.81-3.31,6.62-1.4,2.04,4.81-9.91,9.16-12.75,11.55-.94.79-4,3.44-5.22,3.15l-.07-.14c2.53-.95,4.63-3.63,7.08-4.91,3.39-1.78,6.57-4.01,9.57-6.39,2.08-1.65,1.15-3.81-1.24-3.08-6.54,2-12.44,7.21-18.47,9.9-2.85,1.27-3.89-7.33-3.52-8.85"/>
      <path class="cls-11" d="m154.11,78.39c-1.71,2.48-.06,7.14,1.17,7.81.68.37,2.87-1.74,4.27-2.52,2.96-1.66,13.36-11.05,16.49-7.12,1.48,1.85-1.15,4.42-2.36,5.5-4.1,3.63-10.95,6.3-15.27,9.21-3.28,2.21,1.58,9.22,1.92,8.92,2.46-2.07,11.54-9.37,14.7-8.88l.03.31c-.5,1.2-5.12,2.98-6.36,3.74-9.45,5.79-7.66,8.15-12.48-.95-1.8-3.39,13.89-11.25,16.44-12.33,1.84-.78,4.39-4.36,2.32-5.96-1.32-1.02-4.21,1.18-5.12,1.64-4.8,2.43-8.97,7.23-13.91,9.22-3.07,1.24-4.38-7.2-2.29-9.35"/>
      <path class="cls-11" d="m177.71,82.01c-.46,20.61-2.98,41.09-3.19,61.58-.15,14.67-2.85,30.27.78,44.82l-.18.05c-4.66-13.69-1.26-30.81-1.12-44.88.21-20.43,1.98-41,3.1-61.51"/>
      <path class="cls-11" d="m177.09,82.34c1.13-4.78,10.03-9.91,14.69-7.51,2.69,1.39,3.52,7.9,3.36,10.64-1.83,32.5-2.75,60.69-1.93,93.49v4.97c-4.97-32.07-.97-66.22.57-98.34.11-2.36-.13-8.74-2.4-10.05-4.16-2.42-11.94,2.97-13.62,6.74"/>
      <path class="cls-11" d="m193.22,183.93c2.7,11.22,9.03,8.37,18.81,6.17,12.26-2.76,18.24-3.67,29.87-9.13l.11.18c-8.9,7.2-18.61,7.87-29.53,10.14-9.91,2.06-17.29,5.14-19.27-7.4"/>
      <path class="cls-11" d="m241.08,180.9c4.43-5.47,4.48-22.14,4.11-28.97h0c.83,6.64.89,24.04-3.74,29.42"/>
      <path class="cls-11" d="m175.89,189.24c7.16,9.84,19.73,11.02,30.79,12.53v.08c-10.22,3.32-28.9-5.9-30.97-12.61"/>
      <path class="cls-11" d="m201.42,202.08c16.19-3.64,24.58-5.83,34.84-8.88,3.86-1.15,10.46-1.66,12.31-6.11,4.16-10.01.73-37.62.73-36.39s1.57.07,0,1.23c-.99.73,4.19,26.49-.73,35.46-2.96,5.4-9.59,5.94-14.89,7.38-9.53,2.59-17.59,5.37-27.31,7.32"/>
      <path class="cls-11" d="m177.09,190.84c-3.32-7.5-1.6-.35-3.32-6.86l.12-.04c2.03,6.01.62,4.21,2.49,6.38"/>
      <path class="cls-11" d="m175.59,98.49c-1.21.89-2.41,1.8-3.64,2.67-1.28.91-9.22,4.72-9.09,5.57.19,1.3,1.06,7.36,3.34,6.85,2.52-.56,7.27-5.95,9.52-5.31l-.03.18c.07.15-3.01,1.76-3.32,1.95-1.74,1.03-4.2,3.38-6.24,3.64-1.76.23-3.67-4.7-3.78-6.02-.29-3.61,10.54-8.07,13.02-9.85"/>
      <path class="cls-11" d="m176.11,114.07c-2.2,2.18-7.6,4.49-8.61,5.89-.73,1.01,2.16,6.59,2.93,6.86.19.06,3.64-1.62,4.39-1.75l.07.21c-1.1.54-3.34,2-4.5,1.98-.96-.02-4.22-6.19-3.4-7.48,1.1-1.72,6.48-4.1,8.98-6.13"/>
      <path class="cls-11" d="m147.36,56.04c1.22,1.22,2.93,4.73,2.29,6.48l-.08.02c-1.54-1.38-1.02-4.41-2.49-6.02"/>
      <path class="cls-11" d="m152.58,72.4c.31.91,1.91,5.34,1.13,5.95l-.17.04c-1.07-.17-1.66-4.88-1.83-5.77"/>
      <path class="cls-11" d="m156.92,86.14c.16.49,1.27,5.5,1.02,5.32l-.11.26c-1.37-.26-1.53-4.28-1.66-5.39"/>
      <path class="cls-11" d="m162.38,100.05c.5,1.28,1.11,2.57,1.49,3.89.08.29.51,2.02.22,1.75l-.15.34c-1.16-.39-2.04-4.84-2.26-5.83"/>
      <path class="cls-11" d="m167.47,114.19c.33.88,1.32,2.94,1.06,3.83l-.15.08c-.46-.13-1.21-3.23-1.34-3.68"/>
      <path class="cls-11" d="m171.67,127.36c1.24,2.14,1.62,4.55,2.71,6.65l-.1.07c-1.3-1.73-2.01-4.55-2.87-6.55"/>
      <path class="cls-11" d="m189.58,87.08c-1.47,23.29-2.99,46.56-2.52,69.89.16,8.01-1.64,18.91,1.88,26.35l-.05.02c-3.85-7.01-1.84-18.63-1.96-26.36-.36-23.4.86-46.59,2.37-69.95"/>
      <path class="cls-11" d="m193.36,161.81c4.98,4.62,15.54,1.94,21.06.08,7.58-2.55,15.25-4.72,22.7-7.14,10.17-3.3,19.94-7.05,28.57-12.83v.59c-11.57,9.06-25.8,11.97-39.79,16.16-4.42,1.32-8.75,3.37-13.3,4.2-5.61,1.02-14.79,4.32-19.51-.84"/>
      <path class="cls-11" d="m265.33,142.03c7.98-5.71,13.93-18.84,11.76-28.63l.12-.03c3.6,9.24-3.89,24.15-11.75,29.01"/>
      <path class="cls-11" d="m276.64,113.34c-4.14-2.59-9.62.42-14.39.26-.79-.03-1.21-5.33-.24-6.09,2.9-2.27,8.26-2.26,11.61-3.43l.06.09c-1.58,2.11-7.03,2.25-9.55,2.83-2.38.55-3,5.59-1.57,6.11,4.57,1.66,11.09-4.51,14.76.05"/>
      <path class="cls-11" d="m178.07,6.8c15.77-6.84,36.31-9.28,52.14-1.33,6.84,3.44,10,9.04,13.47,15.51.99,1.84,2.98,4.98,1.89,6.13h-.05c.66-1.35-.89-2.47-1.67-4.46-2.41-6.18-6.02-11.5-11.48-15.44-3.58-2.58-7.73-3.1-11.88-4.19-14.44-3.76-28.68-1.76-42.25,4.19"/>
      <path class="cls-11" d="m183.5,75.43c-4.49-10.18-9.13-20.35-12.43-30.97-3.37-10.85-7.12-20.28-2.18-31.87l.05.02c-4.58,11.46-1.08,21.12,2.48,31.73,3.54,10.54,8.25,20.56,12.57,30.82"/>
      <path class="cls-11" d="m194.71,108.61c5.05,12.94,9.71,35.97,24.13,41.83l-.03.07c-12.04-3.49-14.75-17.29-19.07-27.29-2.1-4.85-4.02-9.2-5.49-14.41"/>
      <path class="cls-13" d="m222.88,151.68c.88.07.54.1,1.03.04v.1c-.52.16-.16.07-1.1.13"/>
      <path class="cls-13" d="m228,152.26c7.64-.79,14.51-1.77,21.95-3.91l.02.04c-6.53,2.61-14.86,4.52-21.99,4.1"/>
      <path class="cls-3" d="m245.61,27.2c-2.02,2.09-4.34,1.63-7.01,1.56-.81-.02-1.65.1-2.47.27-.38.08-1.44-.13-1.17.15.09.09-.68.49-.56.56.85.51.18,3.46,1.38,4.01,1.79.82,8.61.78,10.93.46l.02.08c-2.31.65-5.45-.15-7.93-.14-.62,0-2.86.25-3.06-.06-.54-.81-2.39-3.6-1.58-4.71,1.83-2.48,8.37.36,11.17-2.45"/>
      <path class="cls-3" d="m238.94,43.31c.18.81,1.38,3.08,1.41,3.1,1.66.76,2.08.71,3.05.73.98.03,9.48-1.52,10.62,1.32.3.74.52,1.68.67,2.47,1.42,7.46-8.34.93-10.77,5.09-.32.55,1.11,2.51,1.42,3.32,1.41,3.59,10.09-1.58,12.31,1.23.53.66,2.25,4.88,1.65,5.64-1.58,1.98-5.03,1.05-6.71,2.4-.65.52-.39,1.88.34,2.9.89,1.24,0,1.75,1.98,1.5,1.15-.15-1.05.77-2.23-2.02-.28-.67-1.11-1.82-.63-2.48,1.22-1.67,5.95-.4,7.04-2.45.36-.68-1.38-5.05-1.92-5.5-2.98-2.46-10.64,3.49-12.62-2.1-.19-.54-1.29-1.56-.97-2.26,1.04-2.3,6.49-1.37,8.59-1.79.37-.08,2.75-.58,2.81-.8.25-.88-.88-3.81-1.32-4.96-.76-2-4.06-.79-5.95-.92-5.28-.35-8.33.95-9.35-4.28"/>
      <path class="cls-3" d="m254.34,72.82c.64.05,3.35-.3,3.42.19l-.08.06c-.38.27-2.47.19-3.28.06"/>
      <path class="cls-3" d="m259.73,72.77c2.49-.16,5.91,3.21,4.18,6.07-2.3,3.8-12.89-.96-8.61,6.29,2.65,4.48,11.84-3.58,13.19,3.43.17.89.5,1.88.54,2.79.28,5.4-15.37-.59-9.51,7,1.95,2.52,11.43-3.31,13.2.16,1.21,2.37.36,3.95.74,6.28h-.01c-.54-2.09.49-4.16-1.12-6.18-2.35-2.93-10.75,2.76-13.08-.1-6.47-7.94,9.57-2.4,9.41-7.08-.03-.81-.39-1.75-.57-2.53-1.55-6.89-10.24,1.35-13.09-3.6-4.32-7.5,5.89-3.32,8.52-6.56,1.89-2.32-1.97-5.49-3.91-5.57"/>
      <path class="cls-3" d="m238.4,44.02c.93-7.45,8.85-.16,11.95-3.55,2.45-2.67-2.36-6.26-4.21-6.09l.03-.07c2.73-.92,6.84,4.39,4.47,6.34-3.41,2.8-10.68-2.89-11.82,3.28"/>
      <path class="cls-3" d="m246.15,26.83c-.35,3.25-1.85,4.85-3.55,7.33h0c1.45-2.34,2.81-4.42,3.29-7.28"/>
      <path class="cls-3" d="m251.06,40.3c-.36,1.13-4.04,6.47-3.96,6.87l-.1-.02c-.17-.79,3.31-5.59,3.74-6.9"/>
      <path class="cls-3" d="m254.92,53.71c-.45,2.48-2.51,4.26-3.94,6.15l-.02-.02c.83-2.06,2.52-4.32,3.67-6.24"/>
      <path class="cls-3" d="m259.22,66.34c-.25,1.44-1.94,6.23-3.44,6.87l-.08-.04c-.11-.54.82-1.67,1.09-2.1.92-1.51,1.67-3.08,2.3-4.74"/>
      <path class="cls-3" d="m264.15,78.27c-.31,2.32-.96,3.94-1.95,6.02-.18.38-.58,1.73-1.03,1.87l-.1-.06c-.08-.39.86-1.73,1.01-2.13.78-2.01,1.43-3.54,1.84-5.7"/>
      <path class="cls-3" d="m268.83,92.33c.01,1-1.15,5.18-2.46,5.32l-.04-.03c-.32-.78,2.05-4.16,2.25-5.23"/>
      <path class="cls-3" d="m273.52,104.69c.11,1.99-1.68,4.39-2.75,5.94-.25.37-.79,1.46-1.26,1.55l-.07-.06c.04-.5,1.02-1.52,1.3-1.97,1-1.57,2.27-3.59,2.51-5.48"/>
      <path class="cls-3" d="m194.15,34.85c-4.79,1.52-9.41,5.56-13.35,8.64-1.2.94-4.3,1.72-5.59.44-2.74-2.73,2.76-6.81,4.48-8.03,6.09-4.31,14.13-11.23,22.07-10.09v.07c-8.4.12-14.94,5.67-21.77,10.22-.89.59-7.84,6.42-4.18,7.6,6.64,2.15,11.99-7.82,18.27-9.02"/>
      <path class="cls-3" d="m200.27,25.63c3.38.17,6.96-.12,10.38-.11,3.87,0,9.43.08,12.86,2.16,2.5,1.52,1.48,5.53-1.04,6.38-3.63,1.23-8.98-.08-12.63-.71-5.92-1.02-12.24.82-14.68,1.18-.92.14-1.94.6-1.94.6,1.94-1.49,12.43-3.1,18.94-2.13,3.05.45,7.05,1.29,10.1.5,2.16-.55,3.18-4.17,1.07-5.44-3.31-2-8.29-2-12.03-2.17-3.58-.15-7.49.51-11.02-.09"/>
      <path class="cls-7" d="m186.59,49.29c-1.83,1.26-4.45,2.79-5.27,4.96-.63,1.68.12,4.28,2.45,3.8,3.49-.73,6.84-4.03,9.77-5.89,4.6-2.92,9.04-5,14.52-5.58,4.91-.52,10.1-.22,15.04-.12,2.05.04,4.87.29,6.4-1.38,1.44-1.56.13-2.96-1.2-4.14-2.27-2.03-7.4-1.34-10.12-1.06-4.77.49-9.65.02-14.36,1.07-7.06,1.58-13.1,5.76-18.9,9.6h0c5.55-5.05,13.68-9.39,21.17-10.39,3.87-.52,7.76-.05,11.63-.59,3.09-.43,12.71-1.44,12.94,4.06.09,2.24-3.22,2.93-4.79,3.09-5.74.58-11.54-.37-17.27.18-5.62.53-10.11,2.65-14.85,5.57-3.03,1.86-6.09,4.93-9.6,5.85-2.6.68-3.89-2.03-3.04-4.15.88-2.21,3.38-3.81,5.37-5"/>
      <path class="cls-7" d="m201.93,57.37c-2.22,1.45-4.58,2.67-6.86,4.03-2.47,1.47-5.58,3.11-7.05,5.7-.83,1.46-.48,3.96,1.62,3.64,2.84-.44,5.31-2.67,7.76-3.96,5.05-2.65,9.52-5.39,15.22-6.45,4.87-.9,10.06-.51,14.98-.53,1.43,0,4.93.47,6-.71,3.95-4.38-5.08-6.04-7.64-6.11-8.5-.23-17.83.94-25.36,5.09l-.03-.04c1.27-1.16,3.24-1.74,4.82-2.37,6.68-2.63,14.68-3.5,21.84-3.05,2.44.15,10.87,2.65,6.84,6.49-1.5,1.43-4.54,1.03-6.46,1.07-4.97.09-9.99-.26-14.92.57-5.79.97-9.93,3.84-15.08,6.36-2.62,1.28-5.53,4.08-8.65,4.05-2.79-.03-1.31-4.28-.37-5.36,3.37-3.86,8.86-6.04,13.24-8.55"/>
      <path class="cls-7" d="m211.04,69.97c-2.67.87-6.47,2.94-7.85,5.47-.35.65-1.49,3.43-.08,3.74,2.44.54,5.95-1.87,8.19-2.69,3.56-1.3,7.14-2.5,10.95-2.72,3.04-.18,7.53.55,10.24-1.23,1.03-.67.18-1.77-.44-2.42-1.3-1.39-3.62-1.49-5.4-1.74-5.84-.84-12.15.46-17.65,2.39l-.02-.04c4.84-2.83,12.73-3.63,18.12-2.75,1.08.18,8.73,2.18,5.86,4.64-2.47,2.12-7.36,1.48-10.34,1.53-4.11.07-8.04,1.6-11.85,2.99-2.19.79-5.44,3.15-7.84,2.42-1.65-.5-.65-3.14-.14-4.05,1.58-2.8,5.25-4.77,8.26-5.72"/>
      <path class="cls-7" d="m238.63,81.7c-10.46,1.15-21.19,1.4-30.25,7.4-3.41,2.26-6.68,4.43-9.33,7.54-.27.31-3.19,3.84-1.88,3.82,6.63-.07,11.54-5.32,17.23-8.33,5.83-3.09,11.06-2.99,17.37-3.81,3.57-.46,10.3.67,12.85-2.6.7-.9-2-3.25-2.71-3.49-2.22-.75-5.91-.34-8.13-.08h0c1.81-.52,7.09-1.49,8.92-.05.83.66,3.39,3,1.92,4.11-4.92,3.7-13.47,2.35-19.28,2.92-6.01.58-11.26,3.51-16.27,6.72-3.44,2.21-7.66,6.37-12.19,5-1.55-.47.46-2.71.89-3.2,2.48-2.93,4.91-5.1,8-7.44,9.74-7.4,21.1-7.8,32.8-8.85"/>
      <path class="cls-7" d="m218.61,99.83c-2.35,1.65-5.17,3.03-7.74,4.36-2.78,1.44-6.25,3.68-8.14,6.2-1.42,1.91.28,3.77,2.35,3.51,7.43-.92,13.85-8.04,21.01-10.31,7.02-2.23,17.82.66,23.67-4.41.9-.78-.37-2.15-1.05-2.5-2.3-1.19-4.79-1.47-7.36-1.31-8.24.54-17.11,2.08-24.63,5.44l-.03-.05c6.88-3.83,17.21-5.9,25.07-5.85,1.49,0,12.13,1.59,7.83,4.95-5.9,4.6-16.48,2.09-23.4,4.05-7.3,2.06-13.57,9.59-21.11,10.34-3,.3-4.21-2.91-1.96-4.84,4.75-4.05,9.93-6.69,15.41-9.72"/>
      <path class="cls-7" d="m222.54,114.6c-4.33,2.54-10.36,5.29-13.61,9.24-.57.69-2.52,3.51-1.93,4.47.79,1.28,4.84-.37,5.79-.78,5.4-2.31,9.81-7.99,15.68-9.15,6.72-1.33,13.93-3.15,20.78-3.64,1.46-.1,6.55-.95,6.86-2.82.37-2.23-3.47-3.3-5.01-3.31-5.78-.02-11.59,1.29-17.3,1.99-2.26.28-6.21.89-8.22,2.11-1.5.91-3.1,2.54-4.81,2.89v-.02c1.95-.94,3.45-2.83,5.52-3.54,7.09-2.44,15.03-2.84,22.47-3.83,2.29-.3,4.76-.13,6.56,1.45.75.65,1.8,2.26.75,3.14-2.54,2.13-6.8,2.25-9.94,2.69-5.86.83-11.68,2.51-17.51,3.24-6.95.87-11.75,8.82-18.71,10.2-4.72.93-3.03-3.33-1.09-5.57,3.3-3.83,9.29-6.6,13.62-8.99"/>
      <path class="cls-3" d="m235.15,147.33c1.2-1.23,3.66-2.12,4.98-3.26,2.14-1.84,3.76-3.82,4.92-6.23.57-1.19,1.03-2.48,1.39-3.92.25-1.01.33-2.05.34-3.1,0-.72-.03-1.44-.07-2.16-.07-1.18-.15-2.34-.11-3.47.03-.81-1.6-2.61-2.42-1.89-2.86,2.51-1.24,8.68-1.44,12.04-.15,2.48-1.15,4.76-2.55,6.79-.98,1.43-2.16,2.74-3.36,3.91l-.07-.05c3.38-4.21,5.24-6.01,5.61-10.64.26-3.25-1.76-10.37,1.66-12.45.87-.53,2.4.75,2.69,1.56.87,2.42.58,6.7.17,9.17-1.01,6.1-6.93,10.53-11.54,13.95"/>
      <path class="cls-3" d="m243.24,146.23c1.2-1.23,3.66-2.12,4.98-3.26,2-1.72,3.53-3.55,4.67-5.75.44-.85.82-1.75,1.15-2.73.18-.54.34-1.09.49-1.67.21-.84.68-2.39.71-3.26.06-2.06-.62-3.48-.55-5.46.03-.81-1.6-2.61-2.42-1.89-2.86,2.51-1.24,8.68-1.44,12.04-.15,2.48-1.15,4.76-2.55,6.79-.98,1.43-2.16,2.74-3.36,3.91l-.07-.05c3.38-4.21,5.24-6.01,5.61-10.64.26-3.25-1.77-10.37,1.66-12.44.87-.53,2.4.75,2.69,1.56.87,2.42.58,6.7.17,9.17-1.01,6.1-6.93,10.53-11.54,13.95"/>
      <path class="cls-3" d="m250.61,144.91c1.22-1.05,3.58-1.68,4.9-2.64,2.14-1.55,3.81-3.26,5.08-5.41.63-1.06,1.16-2.23,1.61-3.54.38-1.1.53-2.26.61-3.44.1-1.58.06-3.18.24-4.68.09-.75-1.28-2.56-2.1-1.96-2.86,2.1-1.85,7.99-2.31,11.1-.34,2.3-1.46,4.34-2.92,6.12-1.03,1.25-2.23,2.38-3.45,3.38l-.06-.06c3.49-3.65,5.37-5.18,6.08-9.46.5-3.01-.81-9.8,2.55-11.46.85-.42,2.18.9,2.39,1.67.61,2.33,0,6.29-.58,8.56-1.43,5.6-7.31,9.25-11.88,12.07"/>
      <path class="cls-3" d="m257.76,142.58c1.22-1.05,3.58-1.68,4.9-2.64,2.15-1.55,3.81-3.26,5.08-5.41.63-1.06,1.16-2.23,1.61-3.54.38-1.1.53-2.26.61-3.44.1-1.58.06-3.18.24-4.68.09-.75-1.28-2.56-2.1-1.96-2.86,2.1-1.85,7.99-2.31,11.1-.34,2.3-1.46,4.34-2.92,6.12-1.03,1.25-2.23,2.38-3.45,3.38l-.06-.06c3.48-3.65,5.37-5.18,6.08-9.46.5-3.01-.81-9.8,2.55-11.46.85-.42,2.18.89,2.38,1.67.61,2.32,0,6.29-.58,8.56-1.43,5.6-7.31,9.25-11.88,12.07"/>
      <path class="cls-7" d="m189.11,3.32c4.77.61,8.92,3.45,11.53,7.41,1,1.52,3.45,6.52,5.8,6.12,1.2-.2-1.13-5.04-1.33-5.48-1.6-3.59-6.51-8.77-10.59-9.56v-.06c4.57-.24,9.23,6.9,11.14,10.06.38.62,2.17,4.87.85,5.18-1.92.45-4.28-3.82-5.15-5.02-3.18-4.41-6.71-7.52-12.26-8.56"/>
      <path class="cls-7" d="m200.26,1.52c4.11,1.88,6.65,5.84,8.54,9.74.93,1.92,2.59,5.61,5.15,5.7,1.52.05-.32-4.35-.63-4.83-2.5-3.84-5.73-9.43-10.18-11.35l.05-.11c4.79,1.82,7.61,7.41,10.29,11.36.42.61,2.43,5.33.44,5.15-2.65-.24-4.25-3.81-5.26-5.84-2-4.01-4.35-7.56-8.42-9.75"/>
      <path class="cls-7" d="m207.76.79c3.42,1.94,6.32,4.83,8.16,8.33.83,1.57,1.96,6.08,3.88,6.75,1.83.64.97-3.97.73-4.59-1.42-3.62-3.56-7.43-6.63-9.91l.1-.14c3.25,1.76,6.04,6.98,7,10.45.27.98,1.02,4.6-.94,4.63-1.86.03-2.6-3.56-3.18-4.75-2.12-4.31-5.06-8.02-9.24-10.46"/>
      <path class="cls-7" d="m218.44,1.88c3.23,2.03,5.28,6.12,6.92,9.49.72,1.48,1.38,3.86,2.87,4.78,1.95,1.21,1.31-2.43.91-3.38-1.55-3.63-3.31-6.44-5.92-9.4l.09-.12c3.06,1.69,5.1,6.64,6.26,9.75.19.52.93,3.91-.47,3.79-1.79-.16-2.95-2.97-3.56-4.34-1.65-3.7-3.98-7.87-7.2-10.36"/>
      <path class="cls-7" d="m195.36,188.01c6.76-1.45,13.55-3.42,20.36-4.58,4.83-.82,10.79-1.76,14.34-5.42,2.85-2.94,2.31-11.8,2.37-15.67.01-.74-.64-5.27-.01-5.42l.05.19c.12-.14.29,1.78.3,2.1.07,1.63-.02,3.3.05,4.93.18,3.83.07,10.66-2.19,13.93-1.99,2.87-6.18,3.65-9.32,4.43-8.43,2.1-17.39,4.98-26.05,5.78"/>
      <path class="cls-7" d="m237.93,177.72c2.21.46.98.18,3.69.86l-.03.15c-2.79-.26-1.55-.05-3.74-.51"/>
      <path class="cls-7" d="m239.03,175.44c2.2.23,1.18.07,3.06.42l-.02.24c-1.92-.07-.88,0-3.09-.21"/>
      <path class="cls-7" d="m210.46,202.21c1.01,21.41,1.44,42.65.05,64.04-.33,5,.68,10.06.35,15.04h-.1c-.96-14.29.31-28.42.12-42.74-.15-12.08-1.41-24.23-.84-36.33"/>
      <path class="cls-7" d="m226.45,198.59c.29,27.2.39,54.93-.7,82.05h-.13c-1.29-27.13.12-54.83.41-82.05"/>
      <path class="cls-3" d="m211.61,284.17c-.24,0-.2.02.06-.12"/>
      <path class="cls-17" d="m213.32,285.07c-.4.13.22.19.4.29,3.54,1.86,9.87,1.15,11.91-2.73"/>
      <path class="cls-10" d="m210.7,280.33c.04-.57-2.13.73-2.62,1.04-1.9,1.22-1.9,2.61-1.83,4.77.15,4.83.25,9.7.33,14.52.03,1.54-.08,3.03.22,4.57"/>
      <path class="cls-10" d="m206.76,305.54c.38.42.38,1.09.81,1.46,6.07,5.17,15.69,3.97,21.37-1.04"/>
      <path class="cls-10" d="m225.5,280.38c.26-.11,1.06.28,1.22.33.91.27,2.69.73,3.13,1.75.58,1.37.42,4.08.45,5.58.09,4.08.09,8.24.27,12.31.1,2.29.67,4.3-1.38,5.7"/>
      <path class="cls-10" d="m206.4,285.04c-.15.37.4.6.65.8.91.73,1.7,1.35,2.74,1.91,3.9,2.1,8.97,2.69,13.19.9"/>
      <path class="cls-10" d="m224.97,288.11c.34-.23.72-.42,1.1-.58"/>
      <path class="cls-10" d="m228.06,286.6c.96-.58,1.17-1.15,1.77-1.98"/>
      <path class="cls-9" d="m205.98,295.74c-11.3,4.03-22.66,5.79-33.62,11.11-3.88,1.88-9.12,3.92-11.52,7.73l-.16-.08c1.23-3.38,6.63-5.41,9.5-6.92,11.55-6.08,23.54-7.99,35.68-12.15"/>
      <path class="cls-8" d="m160.88,315.35c-.46,3.17-.43,4.73-.21,7.89.07,1.03-.24,2.23,0,3.98.06.42.86,2.91,1.67,3.95,4.52,5.76-1.55-1.57-1.55-1.57-.41-1.32-.55-3.61-.59-5.35-.06-3.25.08-7.17.48-9.67"/>
      <path class="cls-8" d="m161.59,329.81c6.03,7.29,13.93,10.37,22.82,12.98,18.73,5.51,40.5,3.96,59.55,1.05,6.44-.98,13.77-3.45,19.7-6.17,4.3-1.97,7.24-5.69,11.19-8.08l.04.04c-3.02,2.42-5.72,5.54-9.22,7.31-20.74,10.44-49.36,12.1-72.16,8.27-11.03-1.86-25.46-5.17-32.02-15.2"/>
      <path class="cls-9" d="m230.99,295.69c15.88,2.36,32.01,8.71,45,17.76h0c-13.49-8.34-29.1-15.36-45-17.76"/>
      <path class="cls-8" d="m275.99,313.45c.23,3.26,1.58,15.4-2.81,17.34l1.95-1.19c1.8-4.83,1.41-13.67.86-15.78"/>
      <path class="cls-8" d="m160.94,315.54c1.18,1.75.81,2.26,5.12,6.47,5.47,5.36,10.07,6.08,12.85,7.59,2.78,1.51,30.39,8.67,47.34,5.36,8.12-1.58,9.37-1.28,15.5-2.89h0c-19.74,6.52-42.79,5.42-61.95-1.97-8.18-3.15-16.16-7.35-19.14-15.53"/>
      <path class="cls-9" d="m248.04,330.79c.8-.2,2.12-.66,2.93-.86h0c-.79.29-1.57.57-2.36.86"/>
      <path class="cls-9" d="m275.13,315.19c-5.13,7.04-14.62,10.22-19.13,13.66l-.03-.05c6.42-5.08,11.3-4.4,19.16-13.62"/>
      <path class="cls-8" d="m184.2,12.61c-.77,5.07,2.5,10.82,3.91,15.5l-.12.05c-2.05-4.3-5.13-10.62-4.13-15.6"/>
      <path class="cls-8" d="m192.44,37.87c.59,1.3,1.37,2.89,1.45,4.35l-.05.02c-.45-1.4-1.1-2.86-1.65-4.25"/>
      <path class="cls-8" d="m197.79,53.74c.37,1.06.74,2.12,1.11,3.18l-.11.04c-.46-1.03-.91-2.07-1.37-3.1"/>
      <path class="cls-8" d="m203.54,69.35c.4,1.78.16.98.67,2.42l-.13.05c-.83-1.34-.47-.57-.97-2.34"/>
      <path class="cls-8" d="m221.84,128.57c1.68,5.04,3.95,11.53,9.16,13.91l-.05.1c-5.67-2.21-7.94-8.49-9.42-13.91"/>
    </g>
  </g>
</svg>