<?xml version="1.0" encoding="UTF-8"?>
<svg id="Layer_2" data-name="Layer 2" xmlns="http://www.w3.org/2000/svg" viewBox="0 0 383.22 336.07">
  <defs>
    <style>
      .cls-1 {
        fill: #161fff;
      }

      .cls-1, .cls-2 {
        stroke-width: 0px;
      }

      .cls-2 {
        fill: #F5F5F5;
      }
    </style>
  </defs>
  <g id="Layer_1-2" data-name="Layer 1">
    <g>
      <path class="cls-2" d="M125.92,125.94c0,1.93,0,3.29,0,4.66,0,15.84-.03,31.69,0,47.53.05,22.62,15.19,37.8,37.78,37.84,18.59.04,37.17.05,55.76-.03,3.22-.01,6.52-.2,9.66-.89,17.06-3.79,28.03-17.91,28.13-36.15.09-16.22.02-32.43.02-48.65,0-1.32,0-2.64,0-4.14,1.61-.08,2.71-.18,3.81-.19,6.87-.04,8.94,2.02,8.97,8.89.01,2.87-.04,5.74.02,8.61.08,4.16,2.14,6.46,5.63,6.41,3.29-.05,5.44-2.34,5.55-6.22.11-3.86.17-7.74-.02-11.6-.49-9.92-7.63-16.89-17.6-17.3-1.96-.08-3.93-.01-6.35-.01,0-1.72,0-3.06,0-4.39,0-16.09.05-32.18-.01-48.28-.1-22.14-15.37-37.32-37.5-37.36-18.59-.03-37.17-.01-55.76,0-22.86.01-38.03,15.12-38.07,37.92-.03,15.97,0,31.94,0,47.9,0,1.32,0,2.63,0,4.19-2.32,0-4.06-.03-5.79,0-10.69.25-18.1,7.54-18.18,18.25-.12,16.09-.26,32.19.03,48.28.55,30.62,23.65,55.77,54.02,58.25,12.4,1.01,24.93.41,37.39.53,1.43.01,2.86,0,4.26,0v60.5h-12.46c0-1.61,0-2.96,0-4.32,0-11.73,0-23.45-.01-35.18,0-1.37.02-2.78-.29-4.09-.63-2.61-2.43-3.99-5.12-4.07-2.69-.09-4.61,1.2-5.37,3.75-.42,1.4-.41,2.96-.41,4.44-.03,11.85,0,23.7-.03,35.55,0,1.31-.15,2.62-.24,4.18-6.99,0-13.58-.03-20.17.01-4.61.03-9.3-.34-13.82.35-11.89,1.82-19.66,11.68-19.8,24.45-.1,9.32.94,10.4,10.11,10.4,40.54,0,81.09-.17,121.63.1,12.36.08,12.07-2.91,11.48-12.74-.8-13.36-10.73-22.45-24.14-22.56-6.11-.05-12.23-.01-18.34-.01-3.7,0-7.41,0-11.12,0v-60.76c4.16,0,8.02.06,11.87,0,16.31-.28,30.42-5.91,42.12-17.37,15.45-15.14,19.03-34.13,17.63-54.69-.22-3.26-2.78-5.24-5.83-5.11-3.08.14-5.12,2.22-5.23,5.66-.12,3.99,0,7.98-.06,11.97-.47,26.82-21.31,47.9-48.12,48.26-20.21.27-40.42.25-60.63,0-24.98-.31-45.57-18.48-47.52-43.41-1.38-17.61-.54-35.4-.52-53.1,0-3.7,2.52-5.91,6.23-6.22,1.96-.16,3.94-.03,6.44-.03ZM47.49,65.86c13.58,0,27.17.02,40.75,0,4.48,0,6.87-2,6.86-5.56,0-3.53-2.46-5.64-6.88-5.64-27.04-.03-54.09-.03-81.13,0-4.57,0-7.22,2.27-7.1,5.85.12,3.41,2.65,5.36,7.11,5.36,13.46.02,26.92,0,40.38,0ZM119.1,23.72c-.86-.85-2.22-3.06-4.17-3.97-13.28-6.2-26.67-12.15-40.06-18.13-3.9-1.74-7.05-.69-8.42,2.62-1.3,3.16.04,5.87,3.9,7.63,5.08,2.33,10.2,4.58,15.29,6.87,8.27,3.72,16.51,7.51,24.81,11.15,4.58,2.01,8.6-.24,8.64-6.18ZM312.39,0c-.25.21-.49.43-.74.64-.6.13-1.25.15-1.8.4-14.28,6.39-28.59,12.75-42.81,19.27-2.9,1.33-3.67,4.11-2.54,6.99,1.16,2.97,3.68,3.89,6.73,3.2.95-.22,1.85-.71,2.75-1.12,12.58-5.63,25.16-11.27,37.73-16.92,1.13-.51,2.68-.89,3.19-1.8.99-1.8,2.24-4.16,1.79-5.87-.48-1.85-2.79-3.22-4.3-4.79ZM107.09,102.19c.03-5.63-3.9-8.16-8.19-6.28-9.8,4.28-19.53,8.72-29.24,13.19-3.35,1.54-4.44,4.38-3.19,7.32,1.31,3.08,4.32,4.31,7.8,2.79,9.8-4.29,19.58-8.61,29.23-13.21,1.74-.83,2.85-3,3.58-3.81ZM317.22,113.15c-.7-.84-1.68-3.03-3.32-3.81-10-4.74-20.11-9.23-30.26-13.64-2.96-1.28-6.09.14-7.12,2.92-1.08,2.93-.45,5.67,2.44,7.02,10.13,4.74,20.32,9.4,30.6,13.8,3.78,1.62,7.65-1.25,7.65-6.29Z"/>
      <path class="cls-2" d="M383.22,62.03c-1.59,2.67-3.77,3.9-7.04,3.89-27.05-.1-54.09-.06-81.14-.06-.62,0-1.25.02-1.87-.05-3-.35-4.79-2.03-5.05-5.04-.26-3.03,1.29-5.03,4.16-5.82,1.29-.36,2.71-.29,4.08-.29,26.17-.01,52.35.03,78.52-.06,3.47-.01,6.38.61,8.34,3.7v3.74Z"/>
      <path class="cls-2" d="M125.92,125.94c-2.5,0-4.48-.13-6.44.03-3.71.31-6.22,2.53-6.23,6.22-.03,17.71-.86,35.49.52,53.1,1.95,24.93,22.54,43.1,47.52,43.41,20.21.25,40.42.26,60.63,0,26.81-.36,47.65-21.43,48.12-48.26.07-3.99-.06-7.99.06-11.97.11-3.44,2.15-5.52,5.23-5.66,3.05-.14,5.61,1.85,5.83,5.11,1.4,20.55-2.18,39.55-17.63,54.69-11.7,11.46-25.81,17.09-42.12,17.37-3.85.06-7.7,0-11.87,0v60.76c3.71,0,7.41,0,11.12,0,6.11,0,12.23-.04,18.34.01,13.41.11,23.34,9.2,24.14,22.56.59,9.83.88,12.82-11.48,12.74-40.54-.27-81.08-.1-121.63-.1-9.17,0-10.22-1.08-10.11-10.4.14-12.77,7.91-22.63,19.8-24.45,4.52-.69,9.21-.32,13.82-.35,6.59-.04,13.18-.01,20.17-.01.09-1.56.24-2.87.24-4.18.02-11.85,0-23.7.03-35.55,0-1.49,0-3.04.41-4.44.76-2.55,2.68-3.84,5.37-3.75,2.69.09,4.5,1.47,5.12,4.07.32,1.31.29,2.72.29,4.09.02,11.73.01,23.45.01,35.18,0,1.35,0,2.7,0,4.32h12.46v-60.5c-1.4,0-2.83.01-4.26,0-12.47-.13-25,.48-37.39-.53-30.37-2.49-53.47-27.63-54.02-58.25-.29-16.09-.15-32.18-.03-48.28.08-10.7,7.49-18,18.18-18.25,1.73-.04,3.47,0,5.79,0,0-1.56,0-2.87,0-4.19,0-15.97-.02-31.94,0-47.9.04-22.81,15.21-37.91,38.07-37.92,18.59-.01,37.17-.02,55.76,0,22.14.03,37.41,15.22,37.5,37.36.07,16.09.01,32.18.01,48.28,0,1.33,0,2.66,0,4.39,2.42,0,4.39-.07,6.35.01,9.97.41,17.11,7.38,17.6,17.3.19,3.86.14,7.74.02,11.6-.11,3.88-2.26,6.18-5.55,6.22-3.49.05-5.55-2.25-5.63-6.41-.06-2.87,0-5.74-.02-8.61-.03-6.87-2.1-8.93-8.97-8.89-1.1,0-2.2.11-3.81.19,0,1.5,0,2.82,0,4.14,0,16.22.07,32.43-.02,48.65-.1,18.24-11.07,32.36-28.13,36.15-3.13.7-6.43.88-9.66.89-18.59.08-37.17.07-55.76.03-22.59-.04-37.73-15.22-37.78-37.84-.03-15.84,0-31.69,0-47.53,0-1.36,0-2.72,0-4.66ZM137.37,90.66c1.55,0,2.89,0,4.22,0,12.23,0,24.45-.03,36.68.02,4.26.02,6.65,1.97,6.82,5.32.18,3.63-2.18,5.85-6.56,5.87-12.35.06-24.7.02-37.05.03-1.33,0-2.65.11-4.11.18v12.6h4.24c8.98,0,17.96,0,26.95,0,3.74,0,7.49-.13,11.22.1,3.34.2,5.36,2.54,5.32,5.61-.04,3.11-2.05,5.14-5.46,5.45-1.11.1-2.24.07-3.37.07-11.6,0-23.2,0-34.81.01-1.33,0-2.65.12-4.07.19v12.6c1.58,0,2.92,0,4.27,0,11.85,0,23.7-.01,35.55.02,1.36,0,2.78,0,4.07.38,2.59.74,3.86,2.67,3.8,5.34-.06,2.67-1.4,4.54-4.03,5.16-1.43.34-2.97.31-4.46.32-11.73.02-23.45,0-35.18.02-1.33,0-2.65.13-4.01.19v12.62c1.58,0,2.92,0,4.26,0,11.1,0,22.21,0,33.31,0,1.87,0,3.76-.08,5.6.18,2.86.41,4.38,2.3,4.5,5.13.12,2.82-1.23,4.84-4.03,5.53-1.43.35-2.97.36-4.46.36-11.73.03-23.45,0-35.18.03-1.32,0-2.63.15-3.86.22-2.32,17.09,9.6,31.76,24.41,29.98,0-3.54-.07-7.13.02-10.72.1-4.26,2.06-6.57,5.48-6.64,3.61-.08,5.63,2.25,5.71,6.74.06,3.58.01,7.16.01,10.95h12.85c0-4.12-.15-8.08.04-12.02.2-4.18,3.39-6.53,7.1-5.47,2.98.86,4,3.15,4.03,6.02.03,3.8,0,7.6,0,11.41h12.83c0-3.76-.04-7.22,0-10.69.07-4.59,1.94-6.9,5.51-6.93,3.56-.03,5.6,2.35,5.69,6.82.07,3.58.01,7.16.01,10.7,15.54.87,27.38-13.98,24.26-30.36-1.24,0-2.57,0-3.9,0-9.86,0-19.71,0-29.57,0-2.74,0-5.5.1-8.23-.08-3.67-.25-5.74-2.41-5.72-5.62.02-3.23,2.15-5.26,5.81-5.49.99-.06,2-.03,2.99-.03,11.6,0,23.2,0,34.81,0,1.33,0,2.66-.12,4.12-.18v-12.63c-1.55,0-2.88,0-4.21,0-11.23,0-22.46.01-33.68-.01-1.87,0-3.77.04-5.59-.28-2.66-.48-4.08-2.33-4.22-4.99-.14-2.82,1.16-4.85,3.95-5.59,1.3-.34,2.72-.33,4.08-.34,11.85-.02,23.7,0,35.55-.02,1.33,0,2.65-.12,4.11-.2v-12.6c-3.93,0-7.64,0-11.35,0-10.23-.01-20.46.05-30.69-.08-3.62-.05-5.72-2.35-5.68-5.59.04-3.05,2.1-5.15,5.47-5.5.99-.1,1.99-.05,2.99-.05,11.73,0,23.45,0,35.18-.01,1.32,0,2.65-.12,4.07-.19v-12.59c-3.44,0-6.65,0-9.85,0-10.73,0-21.46.04-32.19-.07-3.46-.04-5.52-2.14-5.66-5.23-.15-3.21,1.96-5.52,5.47-5.89.99-.1,1.99-.05,2.99-.05,11.73,0,23.45,0,35.18,0,1.32,0,2.65-.12,4.07-.18v-12.58c-1.55,0-2.89,0-4.22,0-12.35,0-24.7.04-37.05-.03-4.81-.03-7.61-3.47-6.14-7.44,1.12-3.03,3.65-3.78,6.63-3.77,12.23.03,24.45.01,36.68.01,1.32,0,2.65,0,3.89,0,2.58-16.99-9.02-31.5-24.35-30.4,0,3.53.05,7.11-.01,10.69-.08,4.52-2.06,6.89-5.62,6.9-3.54,0-5.51-2.37-5.57-6.89-.05-3.58-.01-7.16-.01-10.86h-12.81c0,3.77.06,7.35-.01,10.92-.09,4.5-2.11,6.87-5.67,6.83-3.54-.04-5.46-2.4-5.53-6.96-.06-3.56-.01-7.12-.01-10.77h-12.87c0,4.3.34,8.43-.16,12.45-.22,1.76-1.82,3.99-3.4,4.73-1.42.67-4.14.17-5.41-.87-1.29-1.07-1.94-3.4-2.1-5.25-.31-3.67-.09-7.38-.09-11.04-15.87-.39-27.46,14.32-24.27,30.53,1.26,0,2.6,0,3.94,0,12.23,0,24.45-.03,36.68.02,4.37.02,6.85,2.18,6.8,5.72-.05,3.47-2.34,5.46-6.59,5.47-12.35.05-24.7.02-37.05.02-1.32,0-2.63,0-4.09,0v12.78ZM251.73,324.55c-.05-7.5-4.98-12.5-12.45-12.54-16.33-.07-32.66-.03-48.99-.03-15.46,0-30.92-.05-46.37.03-7.48.04-12.41,5.04-12.45,12.54h120.26Z"/>
      <path class="cls-2" d="M47.49,65.86c-13.46,0-26.92.01-40.38,0-4.46,0-6.99-1.96-7.11-5.36-.12-3.58,2.53-5.84,7.1-5.85,27.04-.02,54.09-.03,81.13,0,4.42,0,6.87,2.11,6.88,5.64,0,3.56-2.39,5.55-6.86,5.56-13.58.03-27.17,0-40.75,0Z"/>
      <path class="cls-2" d="M119.1,23.72c-.05,5.94-4.07,8.19-8.64,6.18-8.3-3.64-16.54-7.43-24.81-11.15-5.1-2.29-10.21-4.55-15.29-6.87-3.86-1.77-5.2-4.48-3.9-7.63,1.37-3.32,4.52-4.37,8.42-2.62,13.38,5.98,26.78,11.93,40.06,18.13,1.96.91,3.31,3.12,4.17,3.97Z"/>
      <path class="cls-2" d="M312.39,0c1.51,1.58,3.82,2.95,4.3,4.79.45,1.71-.8,4.07-1.79,5.87-.5.91-2.06,1.29-3.19,1.8-12.57,5.65-25.15,11.29-37.73,16.92-.91.41-1.8.9-2.75,1.12-3.05.69-5.57-.24-6.73-3.2-1.12-2.88-.35-5.67,2.54-6.99,14.23-6.52,28.53-12.88,42.81-19.27.55-.25,1.2-.27,1.8-.4.25-.21.49-.43.74-.64Z"/>
      <path class="cls-2" d="M107.09,102.19c-.73.81-1.84,2.98-3.58,3.81-9.65,4.59-19.44,8.92-29.23,13.21-3.48,1.52-6.49.3-7.8-2.79-1.25-2.94-.15-5.77,3.19-7.32,9.71-4.48,19.44-8.91,29.24-13.19,4.28-1.87,8.22.65,8.19,6.28Z"/>
      <path class="cls-2" d="M317.22,113.15c0,5.03-3.87,7.9-7.65,6.29-10.29-4.4-20.47-9.06-30.6-13.8-2.89-1.35-3.53-4.09-2.44-7.02,1.02-2.77,4.16-4.2,7.12-2.92,10.15,4.4,20.27,8.9,30.26,13.64,1.64.78,2.61,2.97,3.32,3.81Z"/>
      <path class="cls-1" d="M137.37,90.66v-12.78c1.45,0,2.77,0,4.09,0,12.35,0,24.7.03,37.05-.02,4.25-.02,6.54-2.01,6.59-5.47.05-3.54-2.43-5.7-6.8-5.72-12.23-.04-24.45-.02-36.68-.02-1.34,0-2.68,0-3.94,0-3.18-16.21,8.4-30.92,24.27-30.53,0,3.66-.22,7.37.09,11.04.16,1.85.81,4.18,2.1,5.25,1.26,1.05,3.99,1.54,5.41.87,1.58-.74,3.18-2.98,3.4-4.73.5-4.03.16-8.16.16-12.45h12.87c0,3.65-.05,7.21.01,10.77.07,4.56,1.99,6.92,5.53,6.96,3.56.04,5.58-2.33,5.67-6.83.07-3.58.01-7.16.01-10.92h12.81c0,3.69-.04,7.28.01,10.86.07,4.52,2.03,6.9,5.57,6.89,3.56,0,5.54-2.38,5.62-6.9.07-3.58.01-7.16.01-10.69,15.34-1.1,26.93,13.41,24.35,30.4-1.24,0-2.57,0-3.89,0-12.23,0-24.45.02-36.68-.01-2.98,0-5.51.74-6.63,3.77-1.47,3.97,1.34,7.42,6.14,7.44,12.35.06,24.7.02,37.05.03,1.34,0,2.67,0,4.22,0v12.58c-1.43.07-2.75.18-4.07.18-11.73.01-23.45,0-35.18,0-1,0-2-.06-2.99.05-3.5.37-5.62,2.67-5.47,5.89.15,3.08,2.21,5.19,5.66,5.23,10.73.11,21.46.06,32.19.07,3.21,0,6.42,0,9.85,0v12.59c-1.42.07-2.75.19-4.07.19-11.73.01-23.45,0-35.18.01-1,0-2-.05-2.99.05-3.37.35-5.43,2.45-5.47,5.5-.04,3.24,2.06,5.54,5.68,5.59,10.23.13,20.46.07,30.69.08,3.71,0,7.41,0,11.35,0v12.6c-1.46.07-2.78.2-4.11.2-11.85.02-23.7,0-35.55.02-1.36,0-2.78,0-4.08.34-2.79.74-4.09,2.77-3.95,5.59.13,2.66,1.56,4.52,4.22,4.99,1.82.33,3.72.28,5.59.28,11.23.02,22.46.01,33.68.01,1.33,0,2.67,0,4.21,0v12.63c-1.46.07-2.79.18-4.12.18-11.6.01-23.2,0-34.81,0-1,0-2-.04-2.99.03-3.66.23-5.79,2.26-5.81,5.49-.02,3.22,2.05,5.37,5.72,5.62,2.73.19,5.49.08,8.23.08,9.86,0,19.71,0,29.57,0,1.33,0,2.67,0,3.9,0,3.12,16.38-8.73,31.23-24.26,30.36,0-3.54.06-7.12-.01-10.7-.09-4.47-2.12-6.85-5.69-6.82-3.57.03-5.44,2.34-5.51,6.93-.05,3.47,0,6.94,0,10.69h-12.83c0-3.81.02-7.61,0-11.41-.02-2.87-1.04-5.16-4.03-6.02-3.72-1.07-6.9,1.29-7.1,5.47-.19,3.94-.04,7.9-.04,12.02h-12.85c0-3.8.05-7.38-.01-10.95-.08-4.48-2.1-6.82-5.71-6.74-3.42.07-5.38,2.38-5.48,6.64-.08,3.59-.02,7.18-.02,10.72-14.81,1.78-26.73-12.88-24.41-29.98,1.23-.07,2.55-.22,3.86-.22,11.73-.02,23.45,0,35.18-.03,1.49,0,3.02-.01,4.46-.36,2.8-.69,4.15-2.7,4.03-5.53-.12-2.83-1.64-4.72-4.5-5.13-1.84-.26-3.73-.18-5.6-.18-11.1-.01-22.21,0-33.31,0-1.34,0-2.69,0-4.26,0v-12.62c1.36-.07,2.69-.19,4.01-.19,11.73-.02,23.45,0,35.18-.02,1.49,0,3.03.02,4.46-.32,2.62-.62,3.97-2.5,4.03-5.16.06-2.67-1.21-4.6-3.8-5.34-1.29-.37-2.71-.37-4.07-.38-11.85-.03-23.7-.02-35.55-.02-1.34,0-2.69,0-4.27,0v-12.6c1.42-.07,2.75-.19,4.07-.19,11.6-.01,23.2,0,34.81-.01,1.12,0,2.25.03,3.37-.07,3.42-.31,5.42-2.34,5.46-5.45.04-3.07-1.98-5.41-5.32-5.61-3.73-.23-7.48-.1-11.22-.1-8.98,0-17.96,0-26.95,0h-4.24v-12.6c1.46-.07,2.78-.18,4.11-.18,12.35-.02,24.7.02,37.05-.03,4.38-.02,6.74-2.24,6.56-5.87-.17-3.35-2.56-5.3-6.82-5.32-12.23-.04-24.45-.02-36.68-.02-1.34,0-2.68,0-4.22,0Z"/>
      <path class="cls-2" d="M251.73,324.55h-120.26c.04-7.5,4.97-12.5,12.45-12.54,15.46-.07,30.92-.03,46.37-.03,16.33,0,32.66-.05,48.99.03,7.47.03,12.4,5.03,12.45,12.54Z"/>
    </g>
  </g>
</svg>