<?xml version="1.0" encoding="UTF-8"?>
<svg id="Layer_2" data-name="Layer 2" xmlns="http://www.w3.org/2000/svg" viewBox="0 0 3218.26 1942.64">
  <defs>
    <style>
      .cls-1 {
        fill: blue;
      }
    </style>
  </defs>
  <g id="Layer_1-2" data-name="Layer 1">
    <path class="cls-1" d="m377.17,5.58c28.2-9.39,58.22,8.6,73.1,32.22,18.07,28.67,20.27,64.34,22.9,97.23,2.97,37.17,4.29,74.48,3.97,111.77-.33,37.29-2.3,74.56-5.9,111.68-3.62,37.29-8.91,74.42-15.85,111.24-.86,4.58-1.75,9.16-2.66,13.73-.38,1.89,2.51,2.69,2.89.8,7.44-37.31,13.22-74.95,17.29-112.78,4.11-38.16,6.48-76.5,7.11-114.88.63-38.22-.47-76.46-3.31-114.58-1.31-17.57-2.66-35.24-5.52-52.64-2.68-16.29-6.98-32.5-14.85-47.11C442.99,17.46,415.64-3.31,386.2.44c-3.35.43-6.63,1.18-9.83,2.25-1.82.61-1.04,3.51.8,2.89h0Z"/>
    <path class="cls-1" d="m2328.74,128.68c-3.38,75.14-71.23,124.88-131.4,158.1-72.03,39.76-148.52,72.22-225.38,101.33-155.14,58.77-315.64,101.58-475.43,145.52-160.62,44.17-321.47,89.59-475.64,153.31-66.45,27.46-136.95,56.91-187.14,110.3-52.37,55.7-66.91,131.21-67.01,205.37-.1,74.43,8.85,149.93,24.6,222.64,15.68,72.36,39.73,143.39,75.46,208.4,34.95,63.6,81.31,120.68,138.31,165.8,55.75,44.13,119.93,76.6,187.36,98.73,143.71,47.17,298.36,47.98,446.54,24.24,163.12-26.14,319.54-82.61,470.77-147.68,155.26-66.81,306.14-143.24,460.99-210.96,84.53-36.97,170.1-71.55,256.56-103.71s169.83-63.69,257.12-85.98c42.85-10.94,86.58-17.91,130.9-16.89,3.86.09,3.86-5.91,0-6-87.14-2-170.74,26.68-252.21,54.27-85.4,28.93-170,60.19-253.69,93.75-157.91,63.31-310.82,137.33-465.16,208.68-150.52,69.58-303.69,135.81-464.38,178.29-152.58,40.34-313.86,59.87-470.63,34.13-145.49-23.88-285.61-88.2-380.11-204.25-96.28-118.24-137.8-272.27-151.66-421.64-7.12-76.71-11.8-160.21,20.12-232.35,31.74-71.74,100.24-113.63,168.81-145.1,148.98-68.38,307.54-115.11,465.07-159.11,158.43-44.26,318.03-85.04,473.51-139.09,76.51-26.6,151.96-56.44,225.11-91.27,61.76-29.4,129.48-61.07,172.65-116.28,18.78-24.02,30.58-51.92,31.96-82.53.17-3.86-5.83-3.85-6,0h0Z"/>
    <path class="cls-1" d="m2133.88,53.51c-160.07,82.69-333.88,133.09-509.03,172.41-176.05,39.53-354.31,68.6-529.84,110.55-169.66,40.54-336.48,94.66-491.29,175.99-150.34,78.98-288.77,183.31-395.77,315.99C106.09,954.76,31.89,1105.62,6.91,1266.73c-3.02,19.49-5.3,39.09-6.9,58.74-.31,3.85,5.69,3.83,6,0,13.48-165.11,79.67-322.14,177.16-455.06,101.08-137.8,235.53-247.57,383.86-331.16,151.92-85.61,317.22-143.6,485.86-186.25s348.32-72.88,522.31-110.07c171.8-36.73,343.09-81.59,503.06-155.53,19.76-9.13,39.3-18.72,58.65-28.71,3.43-1.77.4-6.95-3.03-5.18h0Z"/>
    <path class="cls-1" d="m913.22,1820.75c117.97,43.58,239.36,78.45,363.58,98.79,122.67,20.09,247.33,26.33,371.48,21.58,124.59-4.76,248.61-20.41,371.17-43.05,125.03-23.1,248.61-53.5,371.05-87.64,122.68-34.21,244.26-72.22,365.58-110.91,14.92-4.76,29.84-9.53,44.75-14.3,3.66-1.17,2.1-6.97-1.6-5.79-120,38.4-240.12,76.5-361.22,111.3-121.73,34.98-244.5,66.66-368.7,91.62s-247.56,42.83-372.89,50.39c-125.12,7.55-251.07,4.52-375.33-12.56-123.55-16.99-244.64-48.42-362.32-89.42-14.71-5.12-29.36-10.4-43.97-15.8-3.63-1.34-5.19,4.46-1.6,5.79h0Z"/>
  </g>
</svg>