<?xml version="1.0" encoding="UTF-8"?>
<svg id="Layer_2" data-name="Layer 2" xmlns="http://www.w3.org/2000/svg" viewBox="0 0 1330.76 1515.77">
  <defs>
    <style>
      .cls-1 {
        stroke-width: 5px;
      }

      .cls-1, .cls-2 {
        fill: none;
        stroke: #000;
        stroke-miterlimit: 10;
      }

      .cls-3 {
        fill: blue;
      }

      .cls-3, .cls-4 {
        stroke-width: 0px;
      }

      .cls-4 {
        fill: #000;
      }

      .cls-2 {
        stroke-width: 7px;
      }
    </style>
  </defs>
  <g id="Layer_1-2" data-name="Layer 1">
    <g>
      <path class="cls-2" d="M207.27,261.17c17.4-50.39,42.82-103.32,83.22-140.63,16.96-15.67,48.61-38.76,71.41-22.48,25.78,18.41,22.06,62.68,19.38,90.51-16.74,17.9-33.11,36.09-49.16,54.61.33-14.82,3.39-48.33-13.74-54.42-32-11.37-63.19,61.57-71.34,83.81-7.04,19.21-33.56,109.33,2.12,115.91,15.72,2.9,30.86-16.53,40.68-27.61-.25,27.53.07,55.03.98,82.55-15.46,19.6-38.09,45.65-66.02,41.48-30.77-4.6-38.59-45.71-40.92-71.1-4.74-51.6,6.89-104.85,23.39-152.63Z"/>
      <path class="cls-2" d="M418.41,465.61c-16.85-3.15-33.7-6.31-50.55-9.46-5.9,13.37-11.66,26.78-17.3,40.26-15.53-2.49-31.07-4.98-46.6-7.48,51.3-118.16,115.28-229.59,192-333.08,8.05,3.26,12.08,4.9,20.13,8.16-32.83,114.15-52.91,230.76-59.87,349.34-13.8-2.21-27.6-4.43-41.41-6.64,1.02-13.72,2.23-27.42,3.61-41.1ZM426.81,397.11c4.3-28.86,9.27-57.55,14.93-86.17-14.94,26.23-29.21,52.76-42.86,79.69l27.93,6.49Z"/>
      <path class="cls-2" d="M722.64,251.47c-47.49,92.57-84.44,189.32-110.92,289.93-5.46-.86-8.19-1.3-13.65-2.16-10.67-54.22-18.13-108.73-22.57-163.81-18.04,49.2-33.58,99.05-46.7,149.78-13.52-2.17-27.05-4.34-40.57-6.5,28.17-109.84,67.86-215.62,119.05-316.81,5.19,2.1,7.79,3.15,12.99,5.26-2.48,55.78-1.82,111.36,2.11,167.05,18.44-47.09,39.09-93.06,62.05-138.12,12.73,5.13,25.47,10.25,38.2,15.38Z"/>
      <path class="cls-4" d="M768.78,451.14c5.1-54.49,13.53-108.27,25.25-161.73l39.25,15.5c-7.21,26.96-13.61,54.06-19.21,81.4,16.79-23.32,34.23-46.05,52.43-68.28,14.47,5.71,28.94,11.43,43.42,17.14-36.84,39.38-70.8,80.84-102.26,124.64-12.65,34.42-23.88,69.2-33.73,104.52l-39.32-6.31c9.99-36.11,21.35-71.68,34.17-106.88Z"/>
      <path class="cls-4" d="M841.23,446.38c15.65-43.76,66.51-122.58,124.2-93.12,47.05,24.02,34.69,94.11,19.18,134.34-16.58,43.04-55.4,111.66-111.15,98.16-57.84-14.01-46.75-98.79-32.23-139.38ZM946.47,476.06c7.23-18.7,17.18-59.21-7.75-69.2-27.38-10.97-50.76,29.4-59.07,50.03-7.49,18.57-15.88,63.97,11.32,70.81,26.99,6.79,47.59-31.18,55.51-51.64Z"/>
      <path class="cls-4" d="M984.99,511.84c16.88-42.6,36.18-83.85,58.11-124.08,12.38,4.89,24.75,9.77,37.13,14.66-21.24,38.54-39.96,78.06-56.36,118.89-4.71,10.63-7.19,33.94,7.67,36.48,13.86,2.37,24.41-15.68,28.69-27.49,16.01-39.21,34.22-77.13,54.84-114.13,12.38,4.89,24.75,9.77,37.13,14.66-19.99,35.38-37.67,71.64-53.25,109.17-14.38,32.78-40.49,75.53-82.72,69.14-45.74-6.92-43.93-64.67-31.24-97.3Z"/>
      <path class="cls-4" d="M362.48,763.32c10.91,57.6,24.71,114.4,41.48,170.58l-42.76,4.77c-14.07-48.5-26.02-97.44-35.93-146.96-2.81,50.4-3.5,100.75-2.11,151.21-13.22,1.48-26.45,2.95-39.67,4.43-3.61-122.04,5.39-243.48,27.11-363.63l39.7,4.14c-7.89,43.06-14.19,86.29-18.95,129.81,15.01-42.87,31.62-85.01,49.93-126.57,15.75,1.64,31.5,3.29,47.25,4.93-25.1,54.59-47.05,110.31-66.05,167.3Z"/>
      <path class="cls-4" d="M463.15,680.74c-2.05,15.15-3.93,30.3-5.65,45.49l41.92.87c-2.51,23.54-4.53,47.08-6.09,70.7-13.97.38-27.94.75-41.91,1.13-.97,15.76-1.64,31.55-2.11,47.33,17.24-.99,34.47-1.99,51.71-2.98-.74,26.62-.87,53.2-.39,79.83-30.38,3.39-60.76,6.78-91.15,10.18-2.61-113.01,6.41-225.3,27.2-336.42,30.41,3.17,60.81,6.34,91.22,9.51-4.95,25.58-9.31,51.21-13.11,76.98l-51.64-2.63Z"/>
      <path class="cls-4" d="M567.95,686.07c-2,14.1-3.85,28.2-5.54,42.34,13.97.29,27.95.58,41.92.87-2.46,21.87-4.5,43.75-6.1,65.71-13.97.38-27.94.75-41.91,1.13-.92,14.7-1.67,29.39-2.25,44.1,17.24-.99,34.47-1.99,51.71-2.98-.85,24.75-1.14,49.47-.87,74.23-30.38,3.39-60.76,6.78-91.15,10.18-1.78-105.52,7.27-210.26,27.29-313.89l91.22,9.51c-4.77,23.73-8.99,47.51-12.68,71.43-17.21-.88-34.42-1.75-51.64-2.63Z"/>
      <path class="cls-4" d="M645.41,618.64c16.81,1.75,33.62,3.51,50.43,5.26,43.71,4.58,42.07,71.33,39.33,100.96-3.41,36.88-18.47,93.56-64.99,95.69-4.27.2-6.41.31-10.68.51-1.37,28.17-1.97,56.31-1.79,84.52-13.22,1.48-26.45,2.95-39.67,4.43-.95-98.03,8.12-195.23,27.37-291.36ZM697.92,723.35c1.19-10.6-.29-30.12-14.38-31.93-4.27-.22-6.4-.33-10.67-.55-3.02,20.14-5.66,40.31-7.91,60.55,4.31.09,6.47.14,10.78.23,14.51-.33,20.84-16.27,22.19-28.3Z"/>
      <path class="cls-4" d="M807.99,635.6l39.7,4.14c-17.76,81.63-26.87,164.16-27.53,247.69-13.22,1.48-26.45,2.95-39.67,4.43.34-86.38,9.44-171.78,27.5-256.26Z"/>
      <path class="cls-4" d="M949.36,705.74c-10.89-.55-21.77-1.1-32.66-1.65-9.86,57.77-15.23,115.78-16.21,174.38-13.22,1.48-26.45,2.95-39.67,4.43.73-60.74,6-120.89,15.92-180.83-10.89-.55-21.77-1.1-32.66-1.65,3.46-20.04,7.35-39.96,11.68-59.83,34.98,3.65,69.96,7.3,104.94,10.95-4.16,18-7.94,36.05-11.34,54.21Z"/>
      <path class="cls-1" d="M153.54,1166.3c-10.64,2.38-21.28,4.76-31.92,7.13,16.08,103.6,40.28,205.34,72.46,305.11-12.34,4.98-24.68,9.96-37.02,14.93-33.03-101.78-57.9-205.6-74.48-311.32-10.64,2.38-21.28,4.76-31.92,7.13-5.31-34.96-9.77-69.99-13.4-105.16,34.68-5.82,69.37-11.65,104.05-17.47,3.29,33.32,7.37,66.51,12.23,99.63Z"/>
      <path class="cls-1" d="M191.26,1262.25c-11.38-49.53-18.05-104.61-6.42-155.55,5.52-24.2,18.4-60.68,48.53-61.25,27.57-.52,46.6,28.52,58.23,49.83,21.89,40.08,34.16,85.67,44.11,129.6,10.62,46.88,19.83,96.65,16.25,145.3-1.75,23.75-7.5,61.81-35.78,68.6-27.92,6.71-52.69-20.73-67.37-40.5-29.59-39.87-46.7-88.79-57.56-136.03ZM296.88,1233.94c-4.29-19.94-20.35-98.15-51.98-93.68-34.93,4.93-19.92,89.91-15.31,111.18,4.44,20.52,24.8,101.27,58.28,93.23,32.02-7.69,13.31-90.74,9.02-110.73Z"/>
      <path class="cls-1" d="M501.97,1148.58c2.61,10.46,5.19,20.93,7.35,31.5,8.98,45.79,36.52,164.5-23.2,189.64-26.45,11.13-52.27-11.43-67.97-30.7-29.29-35.96-45.13-82.81-54.58-126.76-9.79-45.53-14.56-96.26-.81-142.38,7.15-23.99,22.72-53.56,50.16-55.71,24.56-1.92,44.31,25.31,55.31,44.5-4.51,23.97-8.5,47.98-11.98,72.11-6.88-11.97-20.01-34.63-35.65-31.65-32.54,6.21-22.91,80.66-18.59,102.33,4.11,20.6,24.93,95.9,58.1,84.19,19.06-6.73,17.02-43.11,14.29-59.74-9.54,2.96-19.07,5.93-28.61,8.89-4.93-22.53-9.46-45.1-13.59-67.79,23.26-6.15,46.51-12.29,69.77-18.44Z"/>
      <path class="cls-1" d="M568.58,1073.12c1.93,14.53,4.02,29.02,6.27,43.5,13.54-3.46,27.08-6.91,40.63-10.37,3.65,22.43,7.74,44.75,12.29,67.02l-40.08,12.31c3.2,14.89,6.58,29.73,10.12,44.55,16.34-5.58,32.68-11.16,49.01-16.74,6.13,24.98,12.82,49.75,20.1,74.42l-85.05,34.31c-31.38-104.23-51.64-210.75-60.51-319.24,30.15-5.06,60.3-10.12,90.45-15.19,1.85,24.8,4.26,49.49,7.24,74.17-16.82,3.76-33.64,7.51-50.46,11.27Z"/>
      <path class="cls-1" d="M751.08,1032.72c-10.64,2.38-21.28,4.76-31.92,7.13,8.77,71.03,23.03,140.82,42.74,209.62-12.34,4.98-24.68,9.96-37.02,14.93-20.54-70.82-35.48-142.68-44.76-215.83-10.64,2.38-21.28,4.76-31.92,7.13-2.92-24.28-5.29-48.57-7.1-72.96,34.68-5.82,69.37-11.65,104.05-17.47,1.48,22.54,3.45,44.98,5.93,67.43Z"/>
      <path class="cls-1" d="M893.91,940.31c4.3,81.53,17.13,161.61,38.29,240.46-12.34,4.98-24.68,9.96-37.02,14.93-8.48-31-15.79-62.19-21.98-93.73-11.95,3.71-23.9,7.43-35.85,11.14,6.49,32.52,14.16,64.68,23.01,96.63-12.34,4.98-24.68,9.96-37.02,14.93-24.35-86.72-39.49-175.04-45.2-264.94,13.12-2.2,26.25-4.41,39.37-6.61,1.94,32.2,5.03,64.23,9.28,96.21,12.13-3.07,24.27-6.13,36.4-9.2-4.01-30.99-6.89-62.02-8.66-93.23,13.12-2.2,26.25-4.41,39.37-6.61Z"/>
      <path class="cls-1" d="M978.74,981.54c.93,10.39,2.04,20.79,3.32,31.15l40.63-10.37c1.86,15.91,4.18,31.77,6.82,47.57-13.36,4.1-26.72,8.21-40.08,12.31,1.92,10.72,3.94,21.4,6.08,32.08,16.34-5.58,32.68-11.16,49.01-16.74,3.66,17.78,7.7,35.42,12.13,53.02-28.35,11.44-56.7,22.88-85.05,34.31-20.03-75.98-32.02-153.11-35.79-231.6,30.15-5.06,60.3-10.12,90.45-15.19.61,17.43,1.59,34.8,2.94,52.18-16.82,3.76-33.64,7.51-50.46,11.27Z"/>
      <path class="cls-1" d="M1151.8,1012.71c16.92,20.11,34.49,39.41,52.96,58.11-13.3,5.37-26.6,10.73-39.9,16.1-17.64-19.82-34.39-40.18-50.47-61.29,4.17,25.4,9.23,50.48,15.23,75.51-12.31,4.97-24.62,9.93-36.94,14.9-16.55-67.21-26.03-135.15-28.29-204.34,16.25-2.73,32.49-5.46,48.74-8.18,33.05-6.53,54.7,23.64,57.7,52.92,2.05,19.94-2.72,42.98-19.03,56.29ZM1109.42,990.19c4.11-1.05,6.16-1.57,10.27-2.61,9.92-2.42,14.51-12.48,13.23-21.98-1.45-10.77-8.6-17.53-16.71-15.72-4.14.92-6.21,1.38-10.34,2.3.91,12.7,2.1,25.37,3.55,38.02Z"/>
      <path class="cls-3" d="M1238.25,1037.23c-2.78-12.74,3.14-28.28,15.99-32.85,11.99-4.27,23.48,5.14,25.9,17.08,2.6,12.81-2.96,27.71-15.06,32.73-12.34,5.12-24.17-4.72-26.84-16.96ZM1233.62,986.89c-2.94-28.3,22.55-43.64,25.23-66.06.73-6.13-5.59-10.96-14.87-9.06-9.38,1.93-18.76,11.13-22.42,19.73-4.62-9.84-9.08-19.69-13.43-29.65,8.35-16.11,22.83-24.31,39.05-27.8,21.66-4.66,43.89,11.79,46.08,34.85,2.54,26.71-25.99,41.46-24.72,67.81.15,1.74.3,5.28.91,6.88-11.51,3.69-23.02,7.38-34.53,11.07-.38-1.21-.61-2.47-1.28-7.77Z"/>
    </g>
  </g>
</svg>