<?xml version="1.0" encoding="UTF-8"?>
<svg id="Layer_2" data-name="Layer 2" xmlns="http://www.w3.org/2000/svg" viewBox="0 0 1293.49 1394.14">
  <defs>
    <style>
      .cls-1 {
        fill: blue;
      }

      .cls-1, .cls-2 {
        stroke-width: 0px;
      }

      .cls-2 {
        fill: #000;
      }

      .cls-3 {
        fill: none;
        stroke: #000;
        stroke-miterlimit: 10;
        stroke-width: 14px;
      }
    </style>
  </defs>
  <g id="Layer_1-2" data-name="Layer 1">
    <g>
      <path class="cls-3" d="M193.88,173.01c16.98-49.6,41.9-101.71,81.67-138.4,16.9-15.6,48.06-38.09,70.78-22.16,25.67,18.01,22.53,61.48,20.08,89.09-16.49,17.63-32.63,35.53-48.46,53.75.21-14.74,3.09-47.3-14.09-53.55-31.82-11.58-62.63,61.36-70.33,82.47-6.97,19.09-32.67,107.57,2.79,114.02,15.62,2.84,30.54-16.17,40.34-27.15-.09,27.09.37,54.12,1.39,81.19-15.42,19.43-37.87,44.87-65.56,40.78-30.47-4.5-38.56-44.7-41.02-69.93-4.94-50.7,6.33-103.12,22.42-150.12Z"/>
      <path class="cls-3" d="M405.12,374.13l-50.36-9.31c-5.82,13.14-11.5,26.34-17.06,39.59-15.47-2.45-30.95-4.91-46.42-7.36,50.62-116.16,113.54-225.81,188.82-327.75,8.03,3.21,12.05,4.82,20.08,8.03-31.56,112.43-50.76,227.18-57.26,343.78-13.75-2.18-27.49-4.36-41.24-6.54.97-13.49,2.11-26.97,3.43-40.43ZM413.15,306.76c4.11-28.39,8.88-56.62,14.32-84.79-14.69,25.81-28.72,51.92-42.15,78.4,9.28,2.13,18.56,4.26,27.83,6.38Z"/>
      <path class="cls-3" d="M706.32,163.33c-46.36,91.2-82.5,186.44-108.48,285.39-5.44-.85-8.16-1.28-13.6-2.13-10.8-53.34-18.5-106.97-23.28-161.19-17.64,48.42-32.85,97.47-45.73,147.37-13.47-2.14-26.94-4.27-40.41-6.41,27.64-108.02,66.43-212.1,116.37-311.79,5.18,2.07,7.77,3.1,12.96,5.17-1.95,54.94-.85,109.65,3.44,164.46,18.03-46.34,38.2-91.61,60.61-136,12.71,5.04,25.41,10.08,38.12,15.13Z"/>
      <path class="cls-2" d="M753.73,359.91c4.77-53.63,12.74-106.58,23.91-159.25,13.05,5.08,26.11,10.16,39.16,15.24-6.93,26.56-13.07,53.25-18.44,80.17,16.52-22.97,33.68-45.36,51.58-67.27,14.44,5.62,28.88,11.24,43.32,16.86-36.27,38.82-69.74,79.67-100.78,122.78-12.39,33.88-23.4,68.12-33.08,102.87-13.06-2.07-26.11-4.14-39.17-6.21,9.81-35.53,20.95-70.53,33.5-105.19Z"/>
      <path class="cls-2" d="M825.78,355.21c15.5-43.64,65.62-120.58,122.81-91.78,47.41,23.88,34.73,92.44,20.1,132.33-15.58,42.49-54.9,109.88-110.15,96.65-57.26-13.71-47.1-96.81-32.76-137.2ZM930.68,384.41c7.14-18.58,16.58-58.36-8.19-68.15-27.17-10.74-50.18,28.75-58.41,49.29-7.41,18.48-15.31,63.02,11.66,69.71,26.79,6.65,47.13-30.5,54.95-50.85Z"/>
      <path class="cls-2" d="M969.22,419.64c16.55-41.95,35.45-82.6,56.9-122.27,12.35,4.81,24.69,9.61,37.04,14.42-20.78,38-39.12,76.96-55.21,117.17-3.35,11.67-7.23,32.97,7.82,35.93,13.3,2.61,24.18-15.35,28.41-27.08,15.71-38.63,33.55-76,53.73-112.49,12.35,4.81,24.7,9.61,37.04,14.42-19.58,34.89-36.9,70.65-52.19,107.62-14.27,32.62-40.19,74.36-82.03,68.1-45.22-6.77-44.13-63.29-31.52-95.82Z"/>
      <path class="cls-2" d="M349.98,666.89c10.84,56.65,24.45,112.49,40.95,167.76-14.2,1.55-28.39,3.11-42.59,4.66-13.84-47.71-25.63-95.83-35.44-144.53-2.85,49.55-3.67,99.06-2.45,148.68l-39.51,4.33c-3.16-120.03,5.87-239.37,27.23-357.52,13.18,1.36,26.36,2.72,39.54,4.09-7.76,42.34-13.99,84.84-18.71,127.63,14.93-42.14,31.42-83.58,49.57-124.44l47.05,4.86c-24.87,53.67-46.69,108.45-65.63,164.49Z"/>
      <path class="cls-2" d="M450.22,585.73c-2.03,14.89-3.9,29.8-5.61,44.73,13.91.29,27.83.59,41.74.88-2.48,23.15-4.52,46.3-6.11,69.53-13.91.36-27.82.72-41.74,1.08-.9,15.51-1.63,31.02-2.18,46.55,17.16-.97,34.33-1.93,51.49-2.9-.79,26.18-.99,52.32-.61,78.51-30.26,3.31-60.52,6.63-90.78,9.94-2.2-111.14,6.86-221.55,27.31-330.81,30.28,3.13,60.56,6.26,90.84,9.39-4.87,25.16-9.18,50.36-12.94,75.71-17.14-.87-34.28-1.74-51.42-2.6Z"/>
      <path class="cls-2" d="M554.57,591.02c-1.98,13.86-3.81,27.74-5.5,41.64,13.91.29,27.83.59,41.74.88-2.46,21.51-4.49,43.03-6.12,64.63-13.91.36-27.82.72-41.74,1.08-.93,14.45-1.7,28.9-2.31,43.37,17.16-.97,34.33-1.93,51.49-2.9-.9,24.35-1.26,48.66-1.07,73.02-30.26,3.31-60.52,6.63-90.78,9.94-1.4-103.79,7.68-206.78,27.38-308.7,30.28,3.13,60.56,6.26,90.84,9.39-4.7,23.34-8.86,46.73-12.52,70.26-17.14-.87-34.28-1.74-51.42-2.6Z"/>
      <path class="cls-2" d="M631.6,524.72c16.74,1.73,33.48,3.46,50.22,5.19,43.31,4.49,42.04,69.81,39.28,99.34-3.43,36.69-18.75,92.05-64.79,94.1-4.25.2-6.38.3-10.63.5-1.42,27.71-2.09,55.39-2,83.14-13.17,1.44-26.34,2.88-39.51,4.33-.6-96.44,8.49-192.02,27.44-286.59ZM684.01,627.75c1.2-10.53-.39-29.66-14.34-31.41-4.25-.22-6.38-.33-10.63-.54-3.08,19.79-5.73,39.65-7.87,59.56,4.29.09,6.44.14,10.73.23,14.34-.31,20.74-15.88,22.1-27.83Z"/>
      <path class="cls-2" d="M793.5,541.45c13.18,1.36,26.36,2.72,39.54,4.09-17.51,80.32-26.64,161.53-27.57,243.73l-39.51,4.33c.64-85,9.76-169.01,27.55-252.14Z"/>
      <path class="cls-2" d="M934.36,610.53c-10.84-.55-21.68-1.09-32.52-1.64-9.77,56.88-15.18,113.91-16.37,171.62-13.17,1.44-26.34,2.88-39.51,4.33.92-59.78,6.25-118.98,16.1-177.95-10.84-.55-21.68-1.09-32.52-1.64,3.29-19.73,7.18-39.36,11.54-58.88,34.83,3.6,69.67,7.2,104.5,10.8-4.11,17.72-7.84,35.48-11.21,53.36Z"/>
      <path class="cls-3" d="M140.5,1062.98c-10.6,2.33-21.2,4.66-31.81,6.99,15.33,101.87,38.52,201.99,69.45,300.25-12.32,4.88-24.64,9.76-36.95,14.65-31.75-100.24-55.6-202.4-71.41-306.35-10.6,2.33-21.2,4.66-31.81,6.99-5.05-34.38-9.29-68.83-12.74-103.41,34.55-5.7,69.11-11.39,103.66-17.09,3.11,32.76,6.97,65.4,11.6,97.98Z"/>
      <path class="cls-3" d="M177.35,1157.39c-10.94-48.76-17.18-102.99-5.34-152.99,5.69-24.04,18.81-59.47,48.63-60.19,27.19-.66,46.3,28.32,57.68,49.11,21.56,39.4,33.46,84.23,43.02,127.46,10.2,46.13,18.9,95.19,14.86,143-2,23.64-8.25,60.86-36.28,67.47-27.64,6.52-52.03-20.3-66.54-39.95-29-39.25-45.6-87.43-56.03-133.91ZM282.65,1129.66c-4.13-19.67-19.51-96.95-51.05-92.2-35.07,5.28-20.49,88.17-16.02,109.35,4.29,20.37,23.9,99.64,57.16,91.8,31.88-7.52,14.1-89.03,9.92-108.94Z"/>
      <path class="cls-3" d="M487.33,1045.91c2.52,10.3,5.01,20.6,7.08,31,8.67,45.63,34.56,162.05-24.83,186.62-26.24,10.85-51.68-11.14-67.25-30.32-28.73-35.4-44.12-81.57-53.16-124.81-9.37-44.83-13.79-94.84.11-140.13,7.29-23.76,23.16-52.6,50.26-54.68,24.32-1.87,43.89,24.78,54.81,43.82-4.63,23.57-8.75,47.19-12.38,70.93-6.83-11.9-19.74-34.08-35.27-31.17-32.31,6.05-23.39,79.08-19.21,100.65,3.97,20.49,24.08,94.36,57.06,82.92,18.94-6.57,17.34-42.25,14.75-58.77-9.51,2.9-19.02,5.81-28.53,8.71-4.72-22.17-9.04-44.39-12.98-66.72l69.55-18.06Z"/>
      <path class="cls-3" d="M554.12,971.74c1.83,14.29,3.81,28.55,5.95,42.81,13.5-3.39,27-6.77,40.5-10.16,3.47,22.08,7.37,44.04,11.71,65.97-13.32,4.02-26.65,8.04-39.97,12.06,3.06,14.66,6.29,29.27,9.68,43.86,16.3-5.47,32.6-10.94,48.89-16.41,5.86,24.6,12.27,49,19.25,73.3-28.3,11.22-56.6,22.43-84.9,33.65-30.11-102.69-49.44-207.53-57.72-314.23,30.04-4.95,60.07-9.9,90.11-14.86,1.72,24.39,3.98,48.69,6.79,72.99-16.76,3.68-33.53,7.35-50.29,11.03Z"/>
      <path class="cls-3" d="M735.99,932.18c-10.6,2.33-21.2,4.66-31.81,6.99,8.27,69.89,21.87,138.62,40.76,206.42-12.32,4.88-24.64,9.76-36.95,14.65-19.69-69.78-33.95-140.54-42.71-212.52-10.6,2.33-21.2,4.66-31.81,6.99-2.76-23.9-4.98-47.8-6.66-71.79,34.55-5.7,69.11-11.39,103.66-17.09,1.36,22.18,3.2,44.27,5.53,66.36Z"/>
      <path class="cls-3" d="M878.66,841.39c3.88,80.23,16.03,159.11,36.27,236.84l-36.95,14.65c-8.11-30.55-15.1-61.29-20.98-92.34-11.92,3.64-23.84,7.28-35.75,10.92,6.18,32.02,13.5,63.71,21.98,95.2l-36.95,14.65c-23.31-85.5-37.68-172.42-42.94-260.89,13.07-2.16,26.15-4.31,39.22-6.47,1.77,31.69,4.66,63.22,8.67,94.7,12.09-3,24.19-6.01,36.28-9.01-3.76-30.53-6.45-61.06-8.07-91.78,13.07-2.16,26.15-4.31,39.22-6.47Z"/>
      <path class="cls-3" d="M962.87,882.07c.86,10.24,1.9,20.48,3.1,30.68,13.5-3.39,27-6.77,40.5-10.16,1.74,15.67,3.93,31.3,6.43,46.87-13.32,4.02-26.65,8.04-39.97,12.06,1.74,10.57,3.74,21.09,5.78,31.61,16.3-5.47,32.6-10.94,48.89-16.41,3.48,17.52,7.33,34.91,11.56,52.26l-84.9,33.65c-19.13-74.93-30.47-150.87-33.86-228.13,30.04-4.95,60.07-9.9,90.11-14.86.52,17.16,1.4,34.27,2.64,51.39-16.76,3.68-33.53,7.35-50.29,11.03Z"/>
      <path class="cls-3" d="M1134.85,913.02c16.66,19.85,33.97,38.9,52.15,57.38-13.28,5.26-26.55,10.52-39.83,15.78-17.34-19.58-33.82-39.67-49.64-60.5,3.94,25.03,8.75,49.76,14.46,74.44-12.29,4.87-24.58,9.74-36.87,14.61-15.79-66.29-24.71-133.23-26.62-201.35,16.18-2.67,32.37-5.34,48.55-8.01,32.67-6.35,54.31,23.05,57.14,52.21,1.92,19.76-3.09,42.43-19.34,55.44ZM1092.85,890.77c4.09-1.02,6.14-1.54,10.24-2.56,9.82-2.34,14.53-12.19,13.31-21.64-1.36-10.61-8.44-17.28-16.53-15.51-4.12.9-6.19,1.35-10.31,2.25.83,12.51,1.93,25,3.29,37.46Z"/>
      <path class="cls-1" d="M1220.62,937.35c-2.66-12.65,3.44-27.89,16.19-32.36,11.89-4.16,23.29,5,25.61,16.9,2.49,12.74-3.27,27.35-15.29,32.24-12.23,4.99-23.96-4.61-26.52-16.78ZM1216.44,887.71c-2.71-28,22.75-42.97,25.56-65.08.77-6.03-5.51-10.81-14.75-8.95-9.32,1.88-18.7,10.91-22.43,19.41-4.62-9.63-9.03-19.41-13.2-29.24,8.42-15.92,22.89-23.93,39-27.35,21.4-4.53,43.63,11.49,45.69,34.42,2.38,26.44-26.11,40.75-25.06,66.81.14,1.72.26,5.2.85,6.78-11.48,3.62-22.96,7.23-34.44,10.85-.37-1.19-.58-2.44-1.21-7.67Z"/>
    </g>
  </g>
</svg>