<?xml version="1.0" encoding="UTF-8"?>
<svg id="Layer_2" data-name="Layer 2" xmlns="http://www.w3.org/2000/svg" viewBox="0 0 604.47 604.47">
  <defs>
    <style>
      .cls-1 {
        fill: #fff;
      }

      .cls-2 {
        fill: #161fff;
      }

      .cls-3 {
        fill: #161fc9;
      }
    </style>
  </defs>
  <g id="Layer_1-2" data-name="Layer 1">
    <circle class="cls-1" cx="302.24" cy="302.24" r="302.24"/>
    <g id="qQUA5o.tif">
      <g>
        <path class="cls-3" d="m410.21,432.7c-.63,0-1.26,0-1.88,0-.23-1.95-1.69-1.97-3.1-1.86-3.16.26-6.33.53-9.28,1.84-1.58.41-3.16.41-4.74,0-.23-2.34-1.88-4.11-3.71-4.52-5.01-1.1-9.71-3.84-14.5-4.38-3.84-.43-4.53-1.79-5.53-4.49-1.55-4.18-5-5.34-8.87-3.13-1.74.99-3.27,1.22-5.34.62-6.33-1.86-12.7-4.07-19.37-3.89-3.62.1-6.38-2.87-10.01-2.03-2.53.59-4.89,1.5-3.38,4.7,2.91,6.18,10.3,10.08,16.97,9.23,6.51-.83,9,1.62,8.06,7.9-1.58.43-3.16.41-4.74,0-6.98-1.57-13.96-1.55-20.94-.01-1.58.41-3.16.4-4.74,0-1.28-1.31-2.55-1.31-3.82,0-.63,0-1.26,0-1.89,0-.64-.97-1.28-.96-1.92,0-19.02.55-38.04.48-57.05.02-2.2-3.06-7.71-3.04-10.47.03-5.71.47-11.41.46-17.12.01-3.98-4.93-6.32-4.93-8.56,0-3.8.45-7.61.48-11.41-.01-.11-1.02-.49-1.78-1.66-1.86-1.33-.09-2.05.51-2.15,1.84-10.4.1-20.81.31-31.21.28-18.45-.05-36.91-.23-55.36-.36-5.57-.71-9.32-3.11-10.53-9.2-.56-2.83-7.55-4.44-9.35-2.29-3.19,3.81-7.73,4.26-11.81,6.02-3.39,1.46-7.4,2.49-9.17,6.45-1.38.05-2.77.09-4.15.14-3.69.25-7.32.39-7.84-4.68,1.82-1.76,3.97-2.28,6.47-2.11,2.19.15,4.45.35,6.47-.92,1.22-.77,2.51-1.53,2.67-3.12.18-1.8-1.4-2.22-2.56-3.01-2.18-1.5-4.34-1.09-6.76-.66-1.88.34-4.66,1.14-4.82-2.6-.13-3.07.11-5.45,4.16-4.87,1.61.23,3.05-.23,4.43-1.26,3.14-2.34,5.51-1.86,6.79,2.14.61,1.9,2.34,2.76,4.08,2.67,2.12-.1,1.31-2.12,1.51-3.39,1.38-8.89,3.37-10.6,12.42-10.6,1.58,0,3.17.03,4.75-.01,3.26-.09,3.35-1.83,1.93-4.06-1.81-2.83-4.15-5.11-7.42-6.29-1.71-.62-2.47-1.95-2.01-3.77.43-1.73,1.83-1.89,3.33-2.03,6.13-.59,7.21-2.34,5.56-8.49-.86-3.17-1.71-5.1-6.07-4.17-2.96.63-6.56,2.81-9.59.5-4.12-3.15-8.65-3.42-13.28-2.53-9.2,1.77-11.41.08-11.59-9.15-.04-1.9,1.48-4.62-1.79-5.61,0-1.9-.02-3.8-.03-5.71,3.76-2.7,3.75-3.8-.09-5.69-.54-2.2-.57-4.41-.16-6.63,2.1-1.55.81-3.82,1.21-5.73,2.11-1.04,4.17-2.08,4.71-4.72.64-3.09-1.28-5.13-3.29-7.19,3.79-1.23,6.87-2.38,8.85,2.38,1.08,2.6,3.83,2.68,5.86.44,2.91-3.22,5.8-4.95,9.5-1.1.69.72,1.8.91,2.47-.06.64-.91.22-1.98-.63-2.45-1.57-.88-2.56-2.29-3.77-3.51-.77-.78-.99-1.57-.43-2.52.43-.73,1.5-1.46,1.89-1.06,3.16,3.24,7.83.82,11.24,3.18,2.46,1.7,5.31,2.72,8.28,3.29.32,1.61.64,3.22.96,4.83-.77,2.42-.92,4.9-.99,7.44-.47,15.61,1.65,31.15,1.02,46.76-.06,1.47-.53,3.34,1.84,3.68-.28,3.94,2.14,7.84.65,11.7-1.45,3.76.74,6.48,2.09,9.32,1.45,3.04,4.19,1.48,6.21.5,2.63-1.28.27-2.53-.43-3.65-2.04-3.29.04-5.43,1.69-8.06,1.73-2.77,3.51-1.48,5.67-1.28,4.28.4,8.22,4.19,13.13.43,1.63-1.25,7.06-2.5,7.5,3.55.14,1.88,2,2.6,4.39,2.39,5.25-.46,10.44-2.05,15.86-.8,2.15.49,4.27-.66,5.07-3.27,1.32-4.27,5.65-5.96,8.79-7.5,5.55-2.73,14.59,2.15,17.33,8.3,2.34,5.27,4.74,10.23,11.17,11.47,1.19.23,1.57,1.32,1.59,2.59.05,3.22,4.64,9.37,7.65,10.57,1.71.69,3.2,1.01,4.81-.41,1.81-1.6,3.79-1.79,6.11-.56,3.7,1.97,4.42-.38,4.38-3.44-.04-3.48-3.03-5.77-3.65-9.1-.27-1.46-2.99-2.53-1.45-4.42,1.45-1.77,3.9-2.46,6.04-2.03,5.36,1.07,10.31-.91,14.84-2.72,4.14-1.66,7.11-1.18,9.9,1.39,3.1,2.87,6.04,5.46,10.65,5.31,1.29-.04,2.79.94,2.53,2.83-.25,1.79-1.69,1.6-2.93,1.62-3.17.03-6.34-.02-9.51.04-2.91.05-3.54,2.2-1.86,3.69,3.91,3.48,7.45,7.93,13.58,7.72,3.61-.12,7.08-.34,9.96,3.04,1.46,1.71,4.18,1.29,5.12-1.67.3-.96-.39-2.29,1.35-2.94,1.64,3.6,4.15,4.22,8.27,3.79,3.81-.39,7.06-2.75,10.94-2.28,1.15.14,2.84.45,3.04-1.35.18-1.63-1.22-3.16-2.45-3.02-4.7.52-7.26-3.86-11.58-4.53-3.13-.49-5.08-3.85-4.64-7.4.49-3.88,3.79-2.39,6.08-2.65,2.8-.32,5.73.61,8.43-.73,1.5-.74,3.5-1.1,3.41-3.41-.1-2.31-.59-4.75-3.14-5.27-6.7-1.36-3-6.2-3-9.38,0-3.26,3.33-1.8,5.3-2.14.62-.11,1.27-.02,1.9-.05,3.89-.21,2.3-4.7,4.9-6.31,1.26-.78-1.87-.96-2.12-2.23,2.26-1.23,4.51.11,6.78.1,42.76-.12,85.52-.09,128.28-.09-.11,1.65.49,3.74-2.27,3.79-3.85.07-4.32,1.05-1.35,3.8,2.17,2.01,3.67,4.72,5.71,6.9,2.16,2.31,4.9,4.67,8.02,4.35,4.35-.44,6.58,2.48,9.54,4.37.85.54,1.7,1.82,1,2.33-3.73,2.71-7.61,5.21-11.56,7.59-.42.25-1.62-.74-2.43-1.2-2.37-1.33-4.93-2.83-7.57-2.36-9.52,1.67-16.79-4.33-25-7.02-1.9-.62-2.95-1.98-4.35.7-1.46,2.79-.11,3.9,2.09,4.43,6.19,1.48,12.43,3.52,18.57,4.26,7.03.86,11.87,2.11,13.67,9.72.73,3.08,3.11,5.36,6.52,1.73,1.03-1.1,2.59-1.83,4.05-2.34,1.13-.4,2.63-.56,3.65.29,1.4,1.17.14,2.22-.46,3.27-1.23,2.14-.11,2.66,1.88,2.98,6.41,1.02,12.67,1.78,19.1-.6,2.55-.94,6.05-2.71,8.65.76.53.7,1.39.41,2.2.21,3.71-.89,4.49-3.27,3.92-6.75-.87-5.26,0-6.24,5.38-7.02,2.33-.34,4.66-.73,6.98-1.16,5.55-1.01,10.38,2.8,10.09,8.48-.21,3.96.84,7.42,2.54,10.83.34.67.63,1.55,1.66,1.39.89-.14,1.33-.87,1.46-1.66.15-.93.1-1.89.14-2.84.28-6.59,3.12-8.6,9.15-6.4,1.71.63,4.18.95,3.89,3.39-.24,2.06-2.51,1.95-4.17,2.37-3.4.86-7.36,1.81-7.45,6-.07,3.43-1.56,2.77-2.98,1.67-1.61-1.25-3.23-1.16-4.92-1.1-1.93.08-3.54-.53-4.53-2.08-2.98-4.66-7.1-3.27-11.33-2.58-3.17.52-4.74,4.03-7.11,4.32-4.45.54-8.3,1.17-11.13,5.05-.98,1.34-2.78.78-2.79-.74-.04-5.76-3.09-2.17-4.33-1.22-1.91,1.47-4.27,2.89-4.62,5.74-.63,0-1.26,0-1.89,0-.25-.49-.42-1.32-.76-1.39-1.01-.22-1.03.7-1.16,1.39-5.07.44-10.14.47-15.21.03-.07-1.24.11-2.66-1.72-2.77-1.92-.12-2.89.89-3.05,2.75-2.22.43-4.43.43-6.65,0-.12-.77-.23-1.59-1.21-1.71-1.26-.16-1.52.74-1.66,1.71-2.22.43-4.43.41-6.64-.02-.14-.69-.15-1.62-1.16-1.4-.34.07-.51.91-.76,1.39-.95,0-1.89,0-2.84,0-3.49-1.49-6.98-1.51-10.47.02-1.26.38-2.53.39-3.79,0-1.91-1.42-3.82-1.43-5.72,0Zm-258.45-13.05c2.33.86,4.25.58,4.04-1.05-.33-2.55-.37-4.91.26-7.4.24-.96-.62-1.77-1.62-2.02-1.14-.28-1.8.33-1.94,1.45-.18,1.54-.68,2.96-2.47,2.88-2.09-.09-2.31-1.79-2.35-3.46-.03-1.16-.3-2.3-1.56-2.62-1.3-.34-2.21.69-2.62,1.61-1.84,4.15-4.29,7.41-8.9,9.02-2.6.9-2.47,3.42-.91,5.52,1.59,2.16,3.55,1.98,5.23.23,3.82-3.99,9.67-.6,12.84-4.18Zm239.95-19.26c-2.05-.09-3.55,2.29-4.95,4.48-.74,1.16-.98,2.57-2.42,3.26-1.25.6-1.98,1.67-1.38,3.08.57,1.34,1.9,1.32,3.17,1.57,3.39.66,6.95-2.06,10.28.68.65.53,1.62-.52,2.15-1.38,3.91-6.36,1.71-10.85-6.85-11.69Zm59.09,25.56c-.33-1.27-1.18-1.78-2.43-1.63-.84.1-1.58.62-1.61,1.43-.06,1.42,1.24,1.7,2.25,1.87,1.08.18,1.68-.57,1.78-1.67Z"/>
        <path class="cls-3" d="m546.22,348.12c.4,3.17.32,6.33-.05,9.5-1.88.21-2.77,1.1-2.59,3.14.54,6.07-2.37,9.17-8.49,9.22-5.17.04-10.19-.02-15.2,2.31-2.63,1.22-6.51.77-9.52-.05-5.39-1.48-7.46-.36-7.1,5.13.14,2.08-1.08,2.8-2.57,3.44-2.21.95-2.88-.81-3.33-2.25-.51-1.62-.61-3.38-.83-5.09-.42-3.3-1.9-4.78-5.58-4.54-5.66.36-11.37.08-17.06.07.27-2.94-1.73-2.7-3.71-2.83-6.96-.46-13.87,2.11-20.76.73-5.54-1.11-11.24-1.43-16.48-.4-6.21,1.23-12.34.61-18.2.08-11.51-1.04-22.94.02-34.38-.06-10.2-.08-20.39.3-30.65-.12-17.39-.71-34.84-.19-52.26-.23-2.02,0-3.5.34-3.24,2.82h-156.1c1.75-2.95,3.76-3.12,5.54-2.72,5.35,1.22,10.58.9,15.95.03,3.41-.55,7.45.24,2.38-4.48-.5-.47-1.01-1.77-.76-2.05,2.91-3.39,1.11-7.68,2.33-11.42,1.43-4.42,2.66-5.29,6.13-2.25,2.83,2.48,6.1,3.23,9.49,3.82,1.4.25,3.31.82,4.32-.91.95-1.63-.61-2.53-1.39-3.65-2.15-3.1-3.3-6.21,1.66-7.58,3.45-.95,2.71-5.98,4.93-6.03,2.55-.06,4.88,3.11,8.08,3.06,1.5-.02,3.03-.37,3.76-1.64,1-1.74-1-1.82-1.82-2.61-1.53-1.47-1.84-4.1-4.46-4.61-.65-.12-.83-.89-.56-1.57.37-.91,1.21-.94,1.99-.94,4.28-.02,8.56-.01,12.84-.01l.03.03c-.02,1.68.24,3.21,2.21,3.69,1.33.33,2.56.95,2.36,2.48-.23,1.8-1.94,1.13-3.06,1.45-5.53,1.59-8.52,4.69-6.96,7.98,2.12,4.49,1.17,4.95-2.87,3-.99-.48-1.91-.45-2.48.52-.78,1.33.2,2.06,1.21,2.6,1.81.97,3.6,1.95,5.73,2.17,1,.1,1.68.86,1.79,1.93.09.95-.47,1.52-1.34,1.61-2.23.21-2.47,1.69-2.16,3.4.35,1.92,1.61,3.23,3.55,3.25,2.59.03,4.92.65,7.32,1.6,2.24.89,4.76.9,6.43-1.45,1.42-2.01,2.49-4.13.52-6.47-.78-.92-1.19-2.74-.5-3,3.49-1.3,3.76-7.37,9.12-5.89,1.68.46,4.38.56,4.56-2,.14-1.97,4.31-4.68-.63-6.22-.6-.19-.75-1.03-.36-1.63.89-1.35,9.94-1.33,10.46.16.94,2.68,2.66,4.58,4.81,6.26.92.72,1.46,1.75.91,2.94-.7,1.52-1.87,1.09-3.21.89-2.16-.32-4.51-1.05-6.66.7,1.62,1.87,3.61,2.26,5.4,1.74,2.49-.73,3.97.32,5.26,2.03,2.31,3.06,5.28,3.89,9.08,3.88,6.37-.01,9.97,3.36,10.4,8.89.12,1.62-.02,3.41,2.32,3.29,2.08-.1,4.82,1.08,5.89-1.63.76-1.92-.42-3.94-2.27-4.68-2.46-.99-2.47-2.12-.93-3.81,2.92-3.21.39-3.06-1.89-3.15-1.05-.04-2.36.31-2.83-1.1-.29-.88.35-1.44,1.04-1.9,3.65-2.42,2.48-4.13-1.11-5.23,6.18-6.23,8.78-6.41,15.72-2.19,2.32,1.41,5.19,2,7.87,2.74,1.2.33,2.67.17,3.28-1.24.6-1.38-.45-2.04-1.56-2.39-1.61-.5-2.29-1.72-1.1-2.76,1.66-1.44,3.19-3.57,6.12-2.57,3.58,1.23,7.31,2.3,10.2,4.73,3,2.52,6.8,1.83,8.15-.09,2.67-3.82,6.44-4.85,10.07-6.82,8.98-4.86,13.93-3.7,20.71,1.57,3.56,2.77,6.72,4.03,10.89,4.25,1.52.08,2.84.61,3.42-1.26.52-1.68-.38-2.63-1.81-3.37-.86-.44-2.62-.16-2.25-1.81.3-1.37,1.94-2.21,2.95-1.97,2.72.64,5.25.22,7.89-.19,1.01-.16,2.31.56,2.65,1.68,1.64,5.38,6.49,4.01,10.06,5.33-3.94-3.18-2.85-8.32-5.02-12.01.94-.01,1.87-.02,2.81-.03,3.24-.39,4.46,2.44,6.58,3.92,2.4,1.67,6.35,1.92,7.09,5,.86,3.6-2.78,5.14-5.16,7.12-1.23,1.03-1.34,2.8-.17,3.81,1.32,1.15,2.63,3.19,4.72,2.39,1.72-.66,1.04-2.27.61-3.7-.53-1.72.34-2.75,1.9-1.61,3.23,2.34,6.24,2.47,10.14,1.32,5.72-1.68,8.32,3.18,11.13,6.96.75,1.02,1.23,2.4,2.77,2.19,1.64-.23,1.96-2.12,1.81-2.96-1.21-6.79,3.53-5.33,7.2-5.4,1.58-.03,3.33.4,4.72-.13,2.59-.99,7.85-.58,4.15-6.05-.23-.34-.33-1.12-.12-1.33,3.66-3.72-.49-4.17-2.32-5.53-1.14-.84-2.49-1.41-3.58-2.3-1.38-1.12-1.12-2.54.6-2.57,4.73-.1,9.37-1.89,14.12-.98,2.45.47,5.35.93,3.76,4.8-.55,1.32.34,2.49,1.46,2.43,3.99-.21,7.24,2.38,10.85,2.8,4.24.49,6.05,1.82,6.68,6.15.34,2.37,2.29,4.8,5.06,5.91,2.55,1.02,3.23-1.39,4.65-2.38,1.14-.8,2.36-.74,3.61-.86,3.51-.33,6.89.71,10.34.91,4.36.26,6.98-2.89,5.07-6.66-2.3-4.54-1.66-8.8-.61-13.28,3.46-1.06,1.5-3.77,1.77-5.8l.11.11c1.72-.39,3.22,1.16,5.07.36,4.45-1.91,9.14-3.31,13.42-5.53,2.44-1.26,4.42-1.52,5.62.73,1.24,2.31-1.88,2.33-2.8,3.6-1.08,1.5-5.32,1.53-3.55,3.82,2.14,2.77,3.44-1.11,4.88-2.35,1.3-1.12,2.62-1.86,4.28-1.47,2.54.59.69,2.28.68,3.43-.02,2.22,1.46,2.97,3.1,3.69,1.64.72,3.4-.05,3.57-1.31.6-4.43,4.2-3.82,6.96-4.66.98-.3,2.03-1.61,2.97-.49.98,1.17.83,2.86-.17,3.95-1.6,1.75-2.54,3.61-2.17,5.99,1.02,6.45,4.5,12.5,3.02,19.37-.18.83.89,1.17,1.7,1.3Zm-20.3-23.34c-.1-1.08-.67-1.23-1.31-1.18-.74.06-1.01.61-1.01,1.27,0,.77.54,1.15,1.18.92.49-.17.84-.73,1.14-1.01Zm-355.68,41.39c.3-.36.77-.69.73-.95-.04-.29-.5-.71-.82-.75-.61-.08-1.22.21-1.03.97.07.29.65.44,1.11.73Z"/>
        <path class="cls-2" d="m300.12,176.51c2.02,3.44-.5,7.97,2.65,11.14-.16,1.6.06,3.13.91,4.53-1.76,4.07-2.63,8.42-2.75,12.74-.76,25.64,1.12,51.31-1.06,76.94-.19,2.26-1.63,2.87-2.92,3.89-.81.64-2.27.74-2.41-.28-.67-4.89-5.28-5.95-8.06-8.78-1.11-1.13-2.53-2.5-.78-3.96,1.65-1.38,2.39-2.51.6-4.18-1.64-1.53-3.46-1.83-4.96,0-1.59,1.93-2.95,2.04-4.69.28-1.02-1.03-2.52-1.13-3.86-1.58-3.6-1.22-6.66-4.66-11.02-2.37-.08.04-.27-.17-.42-.19-4.74-.81-7.25-7.03-13.04-5.42-.14.04-.58-.68-.75-1.1-1.36-3.27-3.16-2.37-5.06-.55-.85.82-1.85,1.22-3.02,1.13-3.74-.28-6.56,1.56-9.47,3.64-3.92,2.79-7.98,6.35-13.01,1.69-.58-.54-1.47-.68-2.16-.03-.69.65-.48,1.44-.08,2.16.69,1.24,1.73,2.38,2.06,3.7.44,1.79-.3,3.58-2.48,2.47-6.71-3.41-14.59-3.13-21.21-7.09-1.55-.93-5.16-1.96-7.47.03-2.17,1.86.63,3.31.83,5.01.07.59-.22,1.22-.32,1.83-.38,2.45,1.92,5.17-.74,7.52-.12.1,1.82,2.32-.12,3.38-1.84,1.01-3.25,0-4.63-1.26-1.85-1.68-3.13-4.61-5.71-4.77-7.65-.46-12.53-7.6-20.26-7.32.57-2.38,5.4-2.48,2.43-5.36-2.11-2.05-4.35-.9-5.62,1.77-.59,1.24-1.8,1.81-3.08,1.97-5.37.65-12.19-3.78-12.95-9.15-.62-4.41-3.6-5.74-6.85-6.73-2.56-.78-4.87-1.78-6.76-3.58-1.14,1.14-.7,2.33-.88,3.38-.24-.01-.48.02-.7.1-.67-1.43-1.33-2.85-2-4.28-.06-2.97-.73-6.44,4.38-4.63.93.33,1.1-.81,1.33-1.53,3.09-.04,6.38-.35,7.33-3.77.71-2.56,1.09-5.85-3.53-6.33,4.41-3.19,2.49-7.39,2.69-11.04.31-5.59,1.23-6.4,6.58-4.58,1.17.4,2.22,1.33,3.2-.38.79-1.4.36-2.34-.64-3.34-1.09-1.1-2.79-2.15-2.29-3.89.78-2.75.1-7.16,3.52-7.64,5.42-.77,10.25-4.35,15.95-3.23.98.19,1.08,1.44,1.48,2.29,1.4,2.93,5.39,2.67,5.88,1.44,2.25-5.66,5.16-3,8.25-1.41.5.26,1.31.22,1.87.01,5.56-2.04,10.73,1.02,16.12,1.27,1.81.09,3.48,1.08,5.63,1.14,3.56.1,7.73-.47,10.47.24,5.21,1.34,10.24-.82,15.31.99,3.07,1.1,6.73.97,10.11,1.51,5.43.88,11.55,2.59,16.21-2.98,1.84-2.2,2.12.14,2.37,1.46.89,4.7,4.28,6.68,8.45,7.77.89.23,1.91-.03,2.58.87,2.43,3.33,6.77,3.5,9.81,5.87.83.65,2.35,1.53,3.42.15,2.71-3.48,7.03-2.57,10.53-3.88,1.9-.71,4.5-.21,3.8-3.34-.53-2.41-1.18-5.38-4.87-4.06-1.72.61-2.98.13-3.61-1.22-2.18-4.63-5.82-7.78-9.99-10.47-1.69-1.09-1.4-2.77-.81-4.24.54-1.35,1.71-2.73,3.24-2.23,3.9,1.26,8.61.11,11.63,4.24,1.49,2.04,10.69,2.33,11.05.61.91-4.28,5.26-7.31,4.21-12.27-.32-1.5.09-3.14.16-4.72Zm-36.36,57.51c-2.02,3.19-5.23,4.25-8.7,4.74-1.37.19-3.72-1.92-3.63,1.52.08,2.96,2.56,3.11,4.42,2.76,2.27-.42,4.38-1.71,6.57-2.58,4.26-1.71,6.45-.44,7.03,4.07.12.91-.16,2,.91,2.48,1.29.57,2.14-.24,2.7-1.24,1.12-2.01,2.5-2.9,4.52-1.2,1.27,1.07,2.37.46,3.47-.15,1.53-.86,2.75-.72,4.35.21,5.77,3.35,11.61-.24,11.63-6.99,0-2.05.12-4.11-.03-6.16-.12-1.61.92-3.8-1.13-4.67-1.93-.82-3.64-.12-5.56,1.26-3.6,2.61-6.95,6.49-12.31,5.03-.3-2.78-7.13-10.8-9.58-11.26-1.15-.21-2.2-.02-3.12.74-2.37,1.95-4.65.94-6.43-.69-3.72-3.43-8.31-6.38-8.45-12.33-.02-.75-.12-1.62-1.28-1.48-3.47,9.77-4.45,10.81-13.37,9.74-8.65-1.04-17.66.44-25.94-3.44-.85-.4-1.99-.48-2.63.4-.89,1.23-.2,2.2.62,3.34,3.35,4.65,2.26,7.32-3.17,8.22-4.12.69-6.93-1.85-6.03-5.61.3-1.27-.19-2.15-.68-3.11-1.33-2.64-3.3-4.09-6.46-3.52-3.96.71-6.43,3.38-8.49,6.45-.63.94-.3,2.84-2.08,2.45-1.38-.31-.74-1.87-.85-2.89-.34-3.4.62-6.96-.74-10.61-.71.62-1.13.81-1.15,1.03-.51,6.36-8.38,8.07-9.08,14.32-.03.24-.77.51-1.21.59-8.18,1.42-16.35,2.83-24.54,4.18-.85.14-1.58.31-1.84,1.15-.36,1.16.39,1.8,1.34,2.1.74.23,1.57.32,2.34.23,9.34-1.12,18.7-.18,28.04-.43.8-.02,1.73-.39,2.16.35,1.89,3.19,4.34,1.52,6.67.89,1.67-.45,3.31-1.3,4.98-1.37,5.91-.25,11.84-.25,17.72.58.84,3.33,2.98,3.61,6.1,3.3,4.89-.49,10.2-3.11,14.49,1.89.77.9,2.2.69,3.06-.06,1.61-1.39,3.69-.82,5.32-1.51,3-1.26,7.21.41,9.07-3.61,3.74,1.16,7.27,1.87,11.36.39,2.84-1.02,6.48-1.32,9.58.51Z"/>
        <path class="cls-2" d="m303.68,192.18c-.85-1.4-1.07-2.93-.91-4.53.11-.33.22-.66.33-.98.84.22.13,1.86,1.53,1.68-.18-1.65.63-3.44-1.01-4.72.5-2.88.43-5.89,2-8.52,4.25-1.06,8.32-2.04,12.94-1.08,7.24,1.5,14.63,2.09,21.93-.63,2.42-.9,5.46-1.43,7.87-.81,8.91,2.32,17.66.1,26.47-.24,2.99-.11,6.03-.45,8.75,1.34,2.78,1.84,5.58,1.83,8.48.12,1.2-.71,2.61-1.38,3.96-1.45,14.15-.69,28.32-1.48,42.39.9,3.53.6,7.04,2.16,9.94-1.59.45-.58,2.17-.52,3.19-.27,6.41,1.55,12.92.67,19.37.84,5.81.15,7.79,3.11,5.2,8.56-1.63,3.42-1.25,6.4.55,9.5.54.92.94,2.04,1.03,3.09,1.08,12.56,2.56,25.1,1.97,37.74-.08,1.62-.01,3.24-.01,5.56,1.02-1.42,1.47-2.05,1.92-2.68.03,1.55.05,3.09.08,4.64-.02,1.38-.03,2.76-.05,4.14-.02.89-.04,1.78-.06,2.68-1.89-3.53-6.58-3.83-8.47-7.36-.43-.81-1.39-1.28-1.89-.56-2.57,3.74-7.92.63-10.48,4.34-.22.32-1.46.45-1.66.21-2.85-3.51-7.61-2.19-10.65-2.43-5.51-.42-5.95-2.51-5.82-6.54,6.33-.01,12.66-.03,18.99-.04,1.1-.09,2.26.03,3.28-.29,4.6-1.45,5.57-4.28,4.49-8.73-1.14-4.71-2.37-8.33-8.33-7.3-.79.14-1.86-1.02-2.72-1.68-1.58-1.21-3.12-.79-2.96,1.02.44,4.89-1.67,2.26-3.34,1.35-4.53-2.49-8.84-5.43-14.09-6.36-1.66-.29-2.36-1.61-3.29-3-1.85-2.76-1.89-6.48-4.61-9.04-2.26,6.8-3.57,7.68-10.1,6.02-7.29-1.85-14.53-3.86-21.96-5.08-1.26-.21-2.48-.17-3.73.25-6.97,2.32-14.11,1.32-21.19.94-4.66-.25-9.29-3.44-13.77-1.64-3.15,1.27-5.45,1.15-7.83-.57-2.58-1.87-3.93-.84-5.24,1.47-.62,1.1-.26,3.25-2.38,2.97-1.73-.23-2.6-1.61-3.04-3.25-.93-3.5-3.05-4.13-6.47-3.28-3.93.98-7.56,4.02-12.07,1.97-3.46-1.57-6.52.62-9.2,2.1-2.12,1.18-3.3,4.02-3.08-1.02.06-1.3-1.39-1.08-2.18-.55-1.21.81-2.35,1.61-3.9,1.36-.05-2.85-.1-5.71-.15-8.56Z"/>
        <path class="cls-3" d="m300.12,176.51c-.08,1.58-.48,3.23-.16,4.72,1.05,4.96-3.31,7.99-4.21,12.27-.36,1.72-9.56,1.43-11.05-.61-3.02-4.13-7.73-2.98-11.63-4.24-1.52-.49-2.7.89-3.24,2.23-.59,1.47-.88,3.15.81,4.24,4.17,2.69,7.81,5.84,9.99,10.47.64,1.35,1.9,1.83,3.61,1.22,3.69-1.32,4.34,1.65,4.87,4.06.69,3.13-1.9,2.62-3.8,3.34-3.49,1.31-7.82.4-10.53,3.88-1.07,1.37-2.59.5-3.42-.15-3.04-2.37-7.38-2.54-9.81-5.87-.66-.91-1.69-.64-2.58-.87-4.17-1.09-7.57-3.07-8.45-7.77-.25-1.32-.53-3.66-2.37-1.46-4.66,5.57-10.78,3.86-16.21,2.98-3.39-.55-7.04-.42-10.11-1.51-5.07-1.81-10.1.35-15.31-.99-2.74-.71-6.9-.14-10.47-.24-2.15-.06-3.82-1.06-5.63-1.14-5.39-.25-10.56-3.32-16.12-1.27-.56.2-1.37.24-1.87-.01-3.09-1.58-6-4.24-8.25,1.41-.49,1.22-4.48,1.49-5.88-1.44-.41-.85-.5-2.09-1.48-2.29-5.7-1.12-10.53,2.45-15.95,3.23-3.42.49-2.73,4.89-3.52,7.64-.49,1.74,1.2,2.79,2.29,3.89.99,1,1.43,1.94.64,3.34-.97,1.72-2.03.78-3.2.38-5.35-1.82-6.27-1.01-6.58,4.58-.2,3.65,1.72,7.85-2.69,11.04,4.62.48,4.24,3.77,3.53,6.33-.95,3.41-4.24,3.73-7.33,3.77-.2-1.1-.4-2.19-.59-3.29-.07-1.42.44-2.88-.34-4.25.09-2.33.18-4.66.27-6.99.73.05,1.81.44,1.83-.69.02-1.13-1.07-.78-1.8-.75,0-.68.01-1.37.02-2.05,3.44-2.07,3.53-9.36.15-11.52-.38-1.55-.4-3.08.1-4.61,1.97-.05,2.16-1.34,2.2-2.92.09-4,1.28-7.76,2.85-11.39.58-1.33,1.25-2.68.86-4.1-1.36-4.92,2.91-8.86,2.26-13.68-.15-1.08,1.28-1.21,2.23-1.22,2.22-.01,4.77-.67,6.58.2,5.12,2.47,10.38.98,15.27.43,6.72-.76,13.22-2.45,19.84.23.68.27,1.79.34,2.33-.03,6.29-4.31,13.77,1.02,20.17-2.53,1.12-.62,2.79.3,3.38,1.24,2.29,3.58,5.2,2.28,7.97,1.2,9.96-3.88,20.54-4.58,30.72-3.24,11.91,1.57,23.53,1.26,35.32-.02,8.27-.9,16.61-1.22,24.17,3.4.1.47.2.94.3,1.41Z"/>
        <path class="cls-2" d="m473.91,368.99c5.69.01,11.39.29,17.06-.07,3.67-.23,5.15,1.25,5.58,4.54.22,1.71.31,3.46.83,5.09.45,1.44,1.12,3.2,3.33,2.25,1.49-.64,2.71-1.36,2.57-3.44-.36-5.5,1.71-6.61,7.1-5.13,3.01.83,6.89,1.28,9.52.05,5.01-2.33,10.03-2.27,15.2-2.31,6.12-.05,9.02-3.14,8.49-9.22-.18-2.04.71-2.93,2.59-3.14.24,23.31-.04,46.61-.79,69.91-.2,6.14-4.68,6.08-8.69,7.03-1.42-.8-2.96-.93-4.56-.92-9.62.05-19.24.05-28.86.06-3.55-1.85-7.33-.69-11.01-.78-5.78-.15-11.57-.16-17.36-.24.35-2.85,2.71-4.27,4.62-5.74,1.24-.95,4.29-4.54,4.33,1.22.01,1.52,1.81,2.08,2.79.74,2.83-3.87,6.68-4.5,11.13-5.05,2.37-.29,3.94-3.8,7.11-4.32,4.22-.69,8.35-2.08,11.33,2.58.99,1.54,2.6,2.16,4.53,2.08,1.69-.07,3.32-.15,4.92,1.1,1.42,1.1,2.92,1.76,2.98-1.67.09-4.19,4.05-5.14,7.45-6,1.66-.42,3.93-.31,4.17-2.37.29-2.44-2.18-2.77-3.89-3.39-6.03-2.2-8.86-.19-9.15,6.4-.04.95.02,1.91-.14,2.84-.13.79-.56,1.51-1.46,1.66-1.02.16-1.32-.72-1.66-1.39-1.71-3.4-2.75-6.86-2.54-10.83.29-5.68-4.54-9.49-10.09-8.48-2.32.42-4.65.82-6.98,1.16-5.38.78-6.25,1.76-5.38,7.02.57,3.47-.2,5.86-3.92,6.75-.81.19-1.67.49-2.2-.21-2.6-3.47-6.11-1.7-8.65-.76-6.43,2.38-12.69,1.62-19.1.6-2-.32-3.11-.83-1.88-2.98.6-1.06,1.86-2.11.46-3.27-1.03-.85-2.52-.69-3.65-.29-1.46.51-3.02,1.25-4.05,2.34-3.41,3.63-5.79,1.35-6.52-1.73-1.8-7.61-6.64-8.86-13.67-9.72-6.14-.75-12.37-2.79-18.57-4.26-2.2-.52-3.55-1.64-2.09-4.43,1.4-2.67,2.45-1.32,4.35-.7,8.21,2.69,15.48,8.7,25,7.02,2.65-.47,5.21,1.03,7.57,2.36.81.46,2.01,1.45,2.43,1.2,3.95-2.38,7.83-4.88,11.56-7.59.7-.51-.15-1.79-1-2.33-2.95-1.89-5.18-4.81-9.54-4.37-3.12.31-5.86-2.04-8.02-4.35-2.04-2.18-3.54-4.89-5.71-6.9-2.96-2.75-2.5-3.73,1.35-3.8,2.76-.05,2.16-2.14,2.27-3.79.95,0,1.9.01,2.86.02.25.49.41,1.33.75,1.41,1.02.22,1.02-.72,1.16-1.41,7.91-.01,15.82-.03,23.74-.04Zm24.77,21.91c0,1.27-.07,2.54.02,3.8.09,1.32-.56,3.03,1.37,3.61,1.83.55,2.34-1.15,3.33-2.08,2.37-2.23,3.72-5.54,7.19-6.64.91-.29,1.47-1.26,1.15-2.33-.34-1.17-1.43-.95-2.34-1.14-2.3-.46-4.84-.55-6.82-1.63-3.53-1.93-3.77.04-3.88,2.62-.05,1.26,0,2.53,0,3.8Z"/>
        <path class="cls-2" d="m546.22,348.12c-.81-.14-1.88-.47-1.7-1.3,1.48-6.87-2-12.92-3.02-19.37-.38-2.38.57-4.23,2.17-5.99,1-1.09,1.15-2.78.17-3.95-.94-1.12-1.99.19-2.97.49-2.76.84-6.37.23-6.96,4.66-.17,1.26-1.93,2.02-3.57,1.31-1.64-.72-3.13-1.47-3.1-3.69.01-1.15,1.86-2.84-.68-3.43-1.67-.39-2.98.35-4.28,1.47-1.44,1.24-2.74,5.12-4.88,2.35-1.77-2.29,2.47-2.32,3.55-3.82.91-1.26,4.04-1.28,2.8-3.6-1.21-2.24-3.19-1.99-5.62-.73-4.28,2.22-8.97,3.62-13.42,5.53-1.86.8-3.36-.75-5.07-.36-.3-14.2.03-28.41,1.09-42.56.42-5.68,2.83-10.85,7.32-14.95,3.97-3.62,9.23-4.38,13.6-7.01,6.73-1.62,13.45-1.87,20.12.25,8.73,2.78,13.42,8.99,14.03,18.17.6,8.89-.99,17.36-5.19,25.16-2.65,4.91-3.52,9.94-3.53,15.43-.04,11.99.21,23.99-.84,35.96Zm-8.5-48.96c2.83-.64,4.87-2.07,7.42-2.59,2.8-.57,5.54-1.77,4.93-5.65-.18-1.11.33-2.09.85-3.12,2.94-5.79-5.85-4.2-5.49-8.56.08-.91-1.07-1.56-2.16-1.24-.57.17-1.13.58-1.56,1.02-3.88,4.02-8.65,6.08-13.98,7.72-2.38.73-5.87,2.91-6.09,6.4-.17,2.79-1.01,4.34-3.72,5.15-1.13.34-2.1,1.5-1.97,2.96.14,1.53,1.33,1.99,2.63,2.31,1.97.49,4.17.62,5.83,1.62,2.74,1.65,4.17,1.4,5.26-1.74,1.16-3.33,3.17-3.6,5.6-.99,1.2,1.28,2.34,2.45,2.53,4.38.19,2,1.8,2.36,3.52,2.29,1.99-.08,3.28-1.15,3.79-2.99.49-1.8-.43-2.92-2.02-3.8-1.62-.89-3.79-.69-5.38-3.17Z"/>
        <path class="cls-3" d="m58.33,355.72c3.27.99,1.75,3.71,1.79,5.61.18,9.23,2.39,10.92,11.59,9.15,4.63-.89,9.16-.62,13.28,2.53,3.02,2.32,6.63.13,9.59-.5,4.36-.92,5.22,1,6.07,4.17,1.66,6.15.57,7.9-5.56,8.49-1.5.14-2.9.3-3.33,2.03-.46,1.83.3,3.15,2.01,3.77,3.27,1.19,5.61,3.46,7.42,6.29,1.42,2.22,1.33,3.97-1.93,4.06-1.58.04-3.17.01-4.75.01-9.05,0-11.04,1.71-12.42,10.6-.2,1.27.62,3.29-1.51,3.39-1.74.08-3.47-.77-4.08-2.67-1.28-4-3.65-4.48-6.79-2.14-1.38,1.03-2.82,1.49-4.43,1.26-4.05-.58-4.29,1.8-4.16,4.87.16,3.75,2.93,2.94,4.82,2.6,2.42-.44,4.58-.84,6.76.66,1.16.8,2.75,1.21,2.56,3.01-.16,1.58-1.45,2.35-2.67,3.12-2.02,1.27-4.29,1.07-6.47.92-2.5-.17-4.66.35-6.47,2.11-1.23-9.57-1-19.21-1.11-28.83-.16-14.84-.14-29.69-.2-44.53Z"/>
        <path class="cls-2" d="m521.62,253.16c-4.37,2.64-9.63,3.39-13.6,7.01-4.49,4.1-6.9,9.28-7.32,14.95-1.06,14.15-1.39,28.36-1.09,42.56,0,0-.11-.11-.11-.11-4.46-3-4.51-8.67-7.5-12.79-2.94-4.06-5.41-10.22-5.36-15.57.06-6.4.51-12.62-1.26-18.9-1.66-5.9.21-12.1-1.02-18.09.74-1.88,1.48-3.76,2.22-5.64,5.18-2.82,5.28-4.21.58-7.43-.72-.49-.93-1.2-.86-2.03,5.24-1.36,10.2-4.44,16.02-2.02,2.61,1.08,5.49,2.53,6.06,4.86,1.26,5.2,5.33,6.07,9.22,7.62,2.48.99,4.36,2.51,4.03,5.57Z"/>
        <path class="cls-2" d="m118.32,247.84c.67,1.43,1.33,2.85,2,4.28-2.02.92-2.21,2.6-1.59,4.39.81,2.33,1.3,5.11.36,6.96-2.22,4.39-1.19,8.91-1.74,13.35-.84,6.82.09,13.93-3.32,20.34-1,1.88.62,5.12-1.95,5.92-3.01.94-3.11,3.19-3.75,5.37-.65,2.2-1.21,4.42-1.89,6.92-1.47-2.11.02-4.55-1.72-6.15.12-8.56.47-17.12-.54-25.65.5-.71.45-1.38-.17-2-.18-2.18-.35-4.37-.53-6.55.35-.78.24-1.45-.44-2,.02-2.11-.55-4.05-1.65-5.84-1.41-5-5.23-7.86-9.5-10.01-3.76-1.89-7.84-3.16-11.78-4.7,1.56-4.13,5.49-5.4,8.99-6.72,2.35-.89,3.83-1.4,4.84-4.13,2.12-5.72,11.31-8.75,18.77-6.68,1.93.53,3.97,1.01,5.48,2.53-.33,2.1-2.24,1.31-3.42,1.83-1.75.76-2.86,2.07-1.65,3.63,1.44,1.85,2.4,4.41,5.17,4.93Z"/>
        <path class="cls-3" d="m481.57,234.03c-.45.63-.9,1.26-1.92,2.68,0-2.33-.06-3.95.01-5.56.59-12.65-.88-25.18-1.97-37.74-.09-1.06-.5-2.17-1.03-3.09-1.8-3.1-2.18-6.08-.55-9.5,2.59-5.44.61-8.4-5.2-8.56-6.46-.17-12.96.71-19.37-.84-1.02-.25-2.74-.31-3.19.27-2.9,3.75-6.41,2.19-9.94,1.59-14.08-2.38-28.25-1.58-42.39-.9-1.35.07-2.76.74-3.96,1.45-2.9,1.72-5.7,1.72-8.48-.12-2.72-1.8-5.76-1.46-8.75-1.34-8.81.34-17.55,2.56-26.47.24-2.41-.63-5.45-.09-7.87.81-7.3,2.71-14.69,2.13-21.93.63-4.62-.96-8.69.03-12.94,1.08.67-3.23,3.44-3.88,5.95-4.62,3.19-.94,6.52-1.15,9.86-1.15,47.81,0,95.62-.04,143.43-.05,1.9,0,3.81.02,5.69.26,7.75,1.01,9.55,3.09,10.16,10.91,1.41,17.84,1.08,35.7.85,53.56Z"/>
        <path class="cls-2" d="m345.53,432.7c.94-6.28-1.56-8.73-8.06-7.9-6.66.85-14.06-3.05-16.97-9.23-1.51-3.2.84-4.12,3.38-4.7,3.62-.84,6.38,2.13,10.01,2.03,6.67-.18,13.04,2.03,19.37,3.89,2.07.61,3.61.38,5.34-.62,3.87-2.21,7.32-1.05,8.87,3.13,1,2.7,1.69,4.06,5.53,4.49,4.79.54,9.49,3.28,14.5,4.38,1.83.4,3.49,2.17,3.71,4.52-15.23.51-30.45.46-45.68.02Z"/>
        <path class="cls-2" d="m299.81,175.1c-7.56-4.62-15.9-4.3-24.17-3.4-11.79,1.28-23.41,1.59-35.32.02-10.18-1.34-20.76-.64-30.72,3.24-2.77,1.08-5.68,2.38-7.97-1.2-.6-.93-2.27-1.86-3.38-1.24-6.41,3.55-13.88-1.78-20.17,2.53-.54.37-1.65.3-2.33.03-6.62-2.68-13.12-.99-19.84-.23-4.89.55-10.15,2.04-15.27-.43-1.81-.87-4.37-.21-6.58-.2-.95,0-2.37.14-2.23,1.22.65,4.82-3.62,8.76-2.26,13.68.39,1.42-.28,2.76-.86,4.1-1.57,3.63-2.76,7.39-2.85,11.39-.04,1.58-.23,2.87-2.2,2.92-.41-10.44.17-20.84,1.33-31.21.29-2.6,2.1-4.16,4.46-5.09,3.28-1.28,6.7-1.83,10.22-1.84,48.95-.02,97.9-.03,146.85-.07,2.88,0,5.73.3,8.41,1.27,2.18.78,4.59,1.58,4.88,4.52Z"/>
        <path class="cls-2" d="m80.14,252.45c3.94,1.54,8.02,2.81,11.78,4.7,4.27,2.15,8.09,5.01,9.5,10.01-3.02.01-5.74.64-8.53,2.14-3.31,1.78-7.09,1.54-10.24-1.05-2.69-2.21-1.04-4.53-.02-6.83.86-1.94.35-3.59-1.74-4.11-3.07-.75-6.46-1.34-9.23.31-2.39,1.42-4.48,1.43-7.08,1.27-3.6-.22-7.93-1.53-10.33,2.68-2.86,5.02-4.64,10.45-3.31,16.29.5,2.21.64,4.35.69,6.56-.44,3.06,2.88,4.72,2.85,7.62-.16,2.19,1.05,3.82,2.13,5.57,3.15,5.17,4.28,11.74,3.8,16.84-.55,5.8-.64,11.68-1.11,17.5-.4,1.91.88,4.18-1.22,5.73-1.14-8.49-.63-17.02-.64-25.53,0-5.51-.94-10.52-3.58-15.44-3.78-7.07-5.46-14.73-5.25-22.83.33-12.51,6.37-19.65,18.79-21.66,4.25-.69,8.52-.6,12.75.22Z"/>
        <path class="cls-2" d="m101.48,433.77c-9.95-.05-19.9-.11-29.85-.16,1.77-3.95,5.78-4.99,9.17-6.45,4.08-1.76,8.62-2.21,11.81-6.02,1.8-2.14,8.78-.54,9.35,2.29,1.21,6.09,4.97,8.49,10.53,9.2-3.6,1.09-7.62-1.89-11.02,1.13Z"/>
        <path class="cls-2" d="m118.32,247.84c-2.77-.52-3.73-3.08-5.17-4.93-1.21-1.56-.1-2.87,1.65-3.63,1.18-.51,3.09.27,3.42-1.83,1.82-.52,2.37,4.06,4.77,1.18.2,0,.35-.07.44-.25.2,1.1.39,2.19.59,3.29-.22.72-.4,1.86-1.32,1.53-5.11-1.81-4.45,1.66-4.38,4.63Z"/>
        <path class="cls-2" d="m486.3,237.13c-.07.83.14,1.53.86,2.03,4.71,3.22,4.6,4.6-.58,7.43-.29-3.07-1.92-4.36-4.98-3.77.02-1.38.03-2.76.05-4.14,2.2,1.46,3.04-1.21,4.65-1.54Z"/>
        <path class="cls-2" d="m123.56,212.13c3.39,2.17,3.3,9.45-.15,11.52-.41-3.85-.51-7.69.15-11.52Z"/>
        <path class="cls-2" d="m214.28,432.75c2.24-4.93,4.58-4.93,8.56,0-2.85.48-5.71.49-8.56,0Z"/>
        <path class="cls-2" d="m239.96,432.74c2.76-3.07,8.27-3.08,10.47-.03-3.49.46-6.98.51-10.47.03Z"/>
        <path class="cls-2" d="m319.86,432.69c6.98-1.54,13.96-1.56,20.94.01-6.98.47-13.96.51-20.94-.01Z"/>
        <path class="cls-2" d="m395.95,432.68c2.95-1.32,6.12-1.58,9.28-1.84,1.41-.11,2.87-.1,3.1,1.86-4.13.47-8.25.46-12.38-.01Z"/>
        <path class="cls-2" d="m58.22,344.33c3.83,1.89,3.85,2.99.09,5.69-.44-1.89-.57-3.78-.09-5.69Z"/>
        <path class="cls-2" d="m451.12,432.7c.16-1.87,1.13-2.87,3.05-2.75,1.82.11,1.65,1.53,1.72,2.77-1.59.42-3.18.42-4.77-.01Z"/>
        <path class="cls-2" d="m419.73,432.7c3.49-1.53,6.98-1.5,10.47-.02-3.49.48-6.98.51-10.47.02Z"/>
        <path class="cls-2" d="m303.62,183.63c1.64,1.28.83,3.07,1.01,4.72-1.4.18-.7-1.45-1.53-1.68-.35-1.1-.9-2.24.53-3.04Z"/>
        <path class="cls-2" d="m199.06,432.72c.1-1.33.82-1.93,2.15-1.84,1.17.08,1.55.84,1.66,1.86-1.27.43-2.54.43-3.81-.02Z"/>
        <path class="cls-2" d="m441.61,432.7c.14-.97.39-1.87,1.66-1.71.98.12,1.08.94,1.21,1.71-.95.39-1.91.39-2.86,0Z"/>
        <path class="cls-2" d="m410.21,432.7c1.91-1.43,3.81-1.42,5.72,0-1.91.45-3.81.47-5.72,0Z"/>
        <path class="cls-2" d="m123.43,238.38c-.1.17-.24.26-.44.25.04-1.5.07-3,.11-4.5.77,1.37.27,2.83.34,4.25Z"/>
        <path class="cls-2" d="m123.39,225.71c.74-.04,1.82-.38,1.8.75-.02,1.13-1.1.74-1.83.69,0-.48.02-.96.03-1.44Z"/>
        <path class="cls-2" d="m433.04,432.68c.25-.49.42-1.32.76-1.39,1.01-.22,1.02.7,1.16,1.4-.64,0-1.28,0-1.92,0Z"/>
        <path class="cls-2" d="m471.09,432.68c.14-.69.15-1.62,1.16-1.39.34.08.51.91.76,1.39-.64,0-1.28,0-1.92,0Z"/>
        <path class="cls-2" d="m311.29,432.69c1.27-1.32,2.54-1.32,3.82,0-1.27.42-2.54.42-3.82,0Z"/>
        <path class="cls-2" d="m508.6,234.08c.36.14.62.24.88.33-.26.19-.5.47-.79.54-.23.05-.51-.16-.77-.26.24-.21.48-.43.69-.61Z"/>
        <path class="cls-2" d="m307.49,432.7c.64-.97,1.28-.97,1.92,0-.64,0-1.28,0-1.92,0Z"/>
        <path class="cls-2" d="m512.94,235.98c.41.07.81.14,1.22.2-.08.15-.17.31-.25.46-.31-.24-.62-.47-.93-.71l-.04.04Z"/>
        <path class="cls-2" d="m512.97,235.94c-.43-.08-.86-.15-1.29-.23.11-.16.22-.33.34-.49.3.26.61.51.91.77,0,0,.04-.04.04-.04Z"/>
        <path class="cls-2" d="m505.32,233.38c.14.05.27.11.41.16-.18.13-.36.26-.56.37-.02,0-.15-.2-.23-.3.13-.07.25-.15.38-.22Z"/>
        <path class="cls-3" d="m208.52,323.43c-4.28,0-8.56-.01-12.84.01-.78,0-1.62.03-1.99.94-.27.68-.09,1.44.56,1.57,2.62.51,2.93,3.14,4.46,4.61.82.78,2.81.86,1.82,2.61-.73,1.27-2.26,1.62-3.76,1.64-3.2.05-5.53-3.12-8.08-3.06-2.22.05-1.48,5.08-4.93,6.03-4.96,1.37-3.81,4.48-1.66,7.58.78,1.13,2.34,2.02,1.39,3.65-1.01,1.73-2.92,1.16-4.32.91-3.39-.59-6.65-1.34-9.49-3.82-3.47-3.04-4.7-2.16-6.13,2.25-1.21,3.74.58,8.03-2.33,11.42-.24.28.27,1.59.76,2.05,5.06,4.72,1.02,3.93-2.38,4.48-5.37.87-10.6,1.19-15.95-.03-1.78-.41-3.78-.23-5.54,2.72,52.46,0,104.28,0,156.1,0,1.56,0,3.13,0,4.69.01,1.62-.18,3.43.66,4.78-.91,2.22.31,4.44.61,6.66.92.25,1.27,3.38,1.45,2.12,2.23-2.6,1.61-1.01,6.1-4.9,6.31-.63.03-1.28-.06-1.9.05-1.97.34-5.3-1.13-5.3,2.14,0,3.18-3.71,8.02,3,9.38,2.56.52,3.05,2.96,3.14,5.27.1,2.31-1.91,2.67-3.41,3.41-2.7,1.33-5.63.41-8.43.73-2.29.26-5.59-1.23-6.08,2.65-.45,3.55,1.51,6.91,4.64,7.4,4.32.68,6.88,5.05,11.58,4.53,1.23-.13,2.63,1.39,2.45,3.02-.2,1.8-1.89,1.49-3.04,1.35-3.89-.47-7.14,1.89-10.94,2.28-4.13.43-6.63-.18-8.27-3.79-1.74.65-1.04,1.99-1.35,2.94-.94,2.96-3.66,3.38-5.12,1.67-2.88-3.38-6.35-3.16-9.96-3.04-6.13.21-9.67-4.23-13.58-7.72-1.67-1.49-1.05-3.64,1.86-3.69,3.17-.06,6.34,0,9.51-.04,1.24-.01,2.69.17,2.93-1.62.26-1.89-1.24-2.87-2.53-2.83-4.61.15-7.55-2.44-10.65-5.31-2.79-2.58-5.76-3.05-9.9-1.39-4.53,1.81-9.47,3.79-14.84,2.72-2.14-.43-4.59.26-6.04,2.03-1.54,1.89,1.17,2.96,1.45,4.42.62,3.33,3.61,5.62,3.65,9.1.04,3.05-.68,5.4-4.38,3.44-2.31-1.23-4.3-1.03-6.11.56-1.61,1.42-3.09,1.09-4.81.41-3.01-1.2-7.6-7.35-7.65-10.57-.02-1.28-.41-2.36-1.59-2.59-6.44-1.24-8.83-6.2-11.17-11.47-2.73-6.15-11.77-11.04-17.33-8.3-3.14,1.55-7.48,3.23-8.79,7.5-.8,2.61-2.93,3.76-5.07,3.27-5.43-1.25-10.61.34-15.86.8-2.4.21-4.26-.51-4.39-2.39-.44-6.06-5.88-4.8-7.5-3.55-4.91,3.76-8.85-.03-13.13-.43-2.16-.2-3.94-1.49-5.67,1.28-1.65,2.63-3.72,4.77-1.69,8.06.7,1.12,3.06,2.37.43,3.65-2.01.98-4.76,2.54-6.21-.5-1.35-2.84-3.55-5.56-2.09-9.32,1.49-3.85-.93-7.76-.65-11.7,0-19.29.01-38.59.02-57.89,4.23.18,8.27-1.33,12.31-1.7,13.76-1.27,27.62-1.81,41.45-1.99,5.45-.07,11.03,1.5,16.45.63,9.29-1.48,18.59-.29,27.86-.82,2.94-.17,4.11.96,3.67,3.83Zm-96.97,43.69c-.42.17-.83.33-1.25.5.42.16.84.32,1.26.47,6.81.73,13.67,2.28,20.25-1.3-6.76-.09-13.53-1.75-20.26.33Zm42.91-20.06c.83.14,2.33.37,3.2-1.15.9-1.58.6-3.1-.94-4.16-1.61-1.11-1.9-2.73-1.03-4.13,1.08-1.74,2.06-.14,3.02.55.52.37,1.21.52,1.7-.08.48-.59.19-1.18-.25-1.66-1.06-1.16-2.15-2.11-3.8-2.62-3.32-1.02-6.51-.03-9.76.04-2.21.05-4.63-.34-5.91,2.03-1.41,2.62.17,4.89,1.43,7.02.71,1.2,1.83,1.96,1.21,3.73-.98,2.79,1.76,2.87,3.24,3.71,1.77,1,2.49-.23,3.09-1.72.78-1.95,2.28-2.44,4.82-1.55Zm112.97,42.83c2.54.05,8.36-3.61,8.33-5.49-.04-2.28-1.52-4.29-3.64-4.35-3.44-.1-6.59-4.75-9.89-1.2-1.16,1.25-2.02,3.04-3.57,4.07-2.56,1.69-1.55,3.48.29,4.35,2.65,1.24,5.63,1.78,8.47,2.63Z"/>
        <path class="cls-2" d="m208.52,323.43c.44-2.87-.72-4-3.67-3.83-9.27.53-18.56-.66-27.86.82-5.42.86-11-.7-16.45-.63-13.83.17-27.68.72-41.45,1.99-4.04.37-8.08,1.88-12.31,1.7-.63,0-1.26,0-1.89,0-.32-1.61-.64-3.22-.96-4.83.4-3.13-.84-6.4.79-9.43,1.73,1.6.25,4.03,1.72,6.15.68-2.5,1.24-4.72,1.89-6.92.64-2.18.73-4.43,3.75-5.37,2.57-.8.95-4.04,1.95-5.92,3.41-6.41,2.48-13.52,3.32-20.34.55-4.44-.48-8.96,1.74-13.35.94-1.86.45-4.64-.36-6.96-.62-1.79-.43-3.46,1.59-4.39.23-.08.46-.12.71-.1,1.04,4.59,1.93,9.19,1.92,13.93,0,9.44-.03,18.89.11,28.33.06,4.34.09,8.52-3.76,11.57-1.26,1-1.1,2.52-.91,3.95.24,1.33-.12,2.49-.97,3.53-2.04,2.48-.65,3.93,1.72,4.38,2.92.55,5.96.85,8.92.72,6.93-.31,13.84-1.17,20.77-1.39,24.67-.77,49.35.3,74.03-.95,14.63-.74,29.33-.16,44.01-.17,14.51,0,29.03,0,43.54,0,24.21.01,48.42-.31,72.61.9,8.55.43,17.05-.47,25.58-.78,17.89-.65,35.76.16,53.61,1.09,8.22.43,16.42.56,24.63.74,1.03.02,2.43.36,2.85-1.02.31-1.01-.71-1.66-1.35-2.33-4.49-4.69-9.22-8.93-15.26-11.78-2.58-1.22-5.81-1.2-7.8-3.65,4.19-.63,8.15.42,11.97,1.9,2.52.98,3.47.49,3.57-2.23.16-4.72.6-9.43.76-14.15.33-9.76-.6-19.55.96-29.27.21-1.32-.44-3.05,1.84-3.1,1.22,5.99-.65,12.19,1.02,18.09,1.77,6.27,1.32,12.5,1.26,18.9-.05,5.35,2.42,11.51,5.36,15.57,2.99,4.12,3.04,9.79,7.5,12.79-.28,2.03,1.69,4.74-1.77,5.8-7.01,0-14.09.61-21.02-.14-7.45-.8-15.59,3.75-22.39-2.58-.18-.17-.61-.08-.93-.08-5.2-.03-10.38-.54-15.55-.81-10.26-.54-20.57-.16-30.86-.15-2.55,0-5.03.48-7.13,1.95-3.63,2.53-11.76,2.67-15.3.03-2.53-1.88-3.69-1.22-3.85,1.79-.94.01-1.87.02-2.81.03-1.9,0-3.82.19-5.69-.05-5.25-.67-10.99,2-15.74-2.57-.88-.84-3.68-.94-4.41.3-1.83,3.12-4.55,2.13-7.08,2.29-4.56.28-9.17-.55-13.7.5-1.34.31-2.31-.1-2.63-1.29-.65-2.39-2.47-2.06-4.18-2.03-4.63.06-9.53-1.04-13.24,3.13-.43.48-1.46.61-2.21.61-10.76.02-21.55.51-32.26-.19-7.73-.5-15.32-.89-23.05.02-3.82.45-9.11.89-11.44-1.21-4.77-4.29-10.03-2.04-14.9-3.22-1.46-.35-3.48-.6-4.58.57-4.09,4.35-9.33,2.9-14.24,3.2l-.03-.03Z"/>
        <path class="cls-3" d="m104.74,309.22c-1.63,3.03-.39,6.3-.79,9.43-2.97-.57-5.82-1.59-8.28-3.3-3.41-2.36-8.08.07-11.24-3.18-.39-.4-1.46.33-1.89,1.06-.56.95-.33,1.75.43,2.52,1.21,1.22,2.2,2.63,3.77,3.51.85.48,1.27,1.54.63,2.45-.68.96-1.79.77-2.47.06-3.7-3.85-6.59-2.12-9.5,1.1-2.03,2.24-4.78,2.16-5.86-.44-1.98-4.76-5.06-3.62-8.85-2.38,2.01,2.06,3.92,4.1,3.29,7.19-.54,2.64-2.6,3.68-4.71,4.72.47-5.82.56-11.7,1.11-17.5.48-5.1-.65-11.67-3.8-16.84-1.07-1.76-2.28-3.38-2.13-5.57,3.33,4.59,8.48,5.44,13.44,7.04,2.02.65,5.21.67,6.05,3,.91,2.55,2.03,4.2,4.56,2.9,2.13-1.1,4.21.92,6.31-.77,2.26-1.83,2.1-3.06.76-5.49-5.31-9.64-14.14-14.14-23.99-17.44-1.5-.5-2.46-.34-3.15.98-1.58,3.01-4.05,3.04-6.83,2.14-.04-2.2-.18-4.35-.69-6.56-1.34-5.84.44-11.27,3.31-16.29,2.4-4.21,6.73-2.89,10.33-2.68,2.6.16,4.69.15,7.08-1.27,2.77-1.65,6.16-1.06,9.23-.31,2.09.51,2.6,2.16,1.74,4.11-1.02,2.3-2.67,4.63.02,6.83,3.15,2.58,6.94,2.82,10.24,1.05,2.8-1.5,5.51-2.13,8.53-2.14,1.11,1.79,1.67,3.73,1.66,5.84-1.4,1.01-.76,1.57.44,2,.18,2.18.35,4.37.53,6.55-1.27.78-.94,1.42.17,2,1.01,8.53.65,17.1.54,25.65Z"/>
        <path class="cls-2" d="m310.35,369.01c-2.22-.31-4.44-.61-6.66-.92-1.99-1.76-3.51-1.07-4.78.91-1.56,0-3.13,0-4.69-.01-.26-2.48,1.22-2.82,3.24-2.82,17.42.04,34.87-.48,52.26.23,10.26.42,20.45.05,30.65.12,11.43.08,22.87-.98,34.38.06,5.86.53,11.99,1.15,18.2-.08,5.25-1.04,10.94-.71,16.48.4,6.89,1.37,13.8-1.2,20.76-.73,1.98.13,3.99-.1,3.71,2.83-7.91.01-15.83.03-23.74.04-.64,0-1.27,0-1.91,0-.95,0-1.9-.01-2.86-.02-42.76,0-85.52-.03-128.28.09-2.26,0-4.51-1.32-6.78-.1Z"/>
        <path class="cls-2" d="m151.76,419.65c-3.17,3.58-9.02.19-12.84,4.18-1.68,1.75-3.63,1.93-5.23-.23-1.56-2.11-1.69-4.62.91-5.52,4.62-1.61,7.06-4.87,8.9-9.02.41-.93,1.32-1.95,2.62-1.61,1.26.33,1.53,1.46,1.56,2.62.04,1.67.26,3.36,2.35,3.46,1.79.08,2.29-1.34,2.47-2.88.13-1.12.79-1.73,1.94-1.45,1,.24,1.87,1.05,1.62,2.02-.63,2.48-.59,4.84-.26,7.4.21,1.63-1.71,1.91-4.04,1.05Z"/>
        <path class="cls-2" d="m391.72,400.39c8.57.84,10.77,5.33,6.85,11.69-.53.86-1.5,1.91-2.15,1.38-3.33-2.73-6.89-.02-10.28-.68-1.27-.25-2.59-.22-3.17-1.57-.6-1.41.13-2.48,1.38-3.08,1.44-.69,1.68-2.1,2.42-3.26,1.4-2.19,2.91-4.57,4.95-4.48Z"/>
        <path class="cls-2" d="m104.91,323.48c.63,0,1.26,0,1.89,0,0,19.3-.01,38.59-.02,57.89-2.38-.34-1.9-2.2-1.84-3.68.63-15.61-1.49-31.16-1.02-46.76.08-2.54.22-5.02.99-7.44Z"/>
        <path class="cls-2" d="m450.81,425.96c-.1,1.09-.71,1.84-1.78,1.67-1.01-.17-2.3-.44-2.25-1.87.03-.81.77-1.33,1.61-1.43,1.24-.15,2.1.36,2.43,1.63Z"/>
        <path class="cls-3" d="m208.55,323.46c4.91-.3,10.15,1.15,14.24-3.2,1.1-1.17,3.12-.92,4.58-.57,4.87,1.18,10.13-1.07,14.9,3.22,2.34,2.1,7.62,1.66,11.44,1.21,7.73-.91,15.32-.52,23.05-.02,10.71.7,21.5.21,32.26.19.75,0,1.78-.13,2.21-.61,3.71-4.17,8.61-3.07,13.24-3.13,1.7-.02,3.53-.36,4.18,2.03.32,1.19,1.29,1.6,2.63,1.29,4.53-1.05,9.14-.22,13.7-.5,2.52-.16,5.25.83,7.08-2.29.72-1.24,3.53-1.14,4.41-.3,4.74,4.57,10.49,1.9,15.74,2.57,1.87.24,3.79.05,5.69.05,2.17,3.69,1.09,8.83,5.02,12.01-3.57-1.33-8.42.05-10.06-5.33-.34-1.12-1.64-1.84-2.65-1.68-2.64.41-5.18.83-7.89.19-1.01-.24-2.65.6-2.95,1.97-.37,1.66,1.39,1.37,2.25,1.81,1.43.75,2.33,1.69,1.81,3.37-.58,1.87-1.9,1.34-3.42,1.26-4.18-.22-7.34-1.48-10.89-4.25-6.78-5.27-11.73-6.43-20.71-1.57-3.63,1.97-7.4,3.01-10.07,6.82-1.35,1.92-5.14,2.62-8.15.09-2.89-2.43-6.61-3.5-10.2-4.73-2.93-1-4.46,1.12-6.12,2.57-1.19,1.04-.51,2.26,1.1,2.76,1.12.35,2.16,1.01,1.56,2.39-.61,1.41-2.08,1.57-3.28,1.24-2.68-.74-5.54-1.32-7.87-2.74-6.94-4.22-9.54-4.04-15.72,2.19,3.59,1.1,4.75,2.8,1.11,5.23-.7.46-1.34,1.01-1.04,1.9.47,1.41,1.77,1.06,2.83,1.1,2.28.08,4.81-.06,1.89,3.15-1.54,1.69-1.53,2.82.93,3.81,1.85.74,3.04,2.76,2.27,4.68-1.08,2.71-3.81,1.53-5.89,1.63-2.34.11-2.19-1.67-2.32-3.29-.42-5.53-4.03-8.91-10.4-8.89-3.8,0-6.77-.83-9.08-3.88-1.29-1.71-2.78-2.76-5.26-2.03-1.79.52-3.79.13-5.4-1.74,2.15-1.75,4.5-1.02,6.66-.7,1.34.2,2.51.63,3.21-.89.55-1.19,0-2.22-.91-2.94-2.15-1.69-3.87-3.58-4.81-6.26-.52-1.48-9.57-1.5-10.46-.16-.4.6-.24,1.45.36,1.63,4.94,1.54.77,4.25.63,6.22-.19,2.56-2.88,2.46-4.56,2-5.35-1.48-5.63,4.59-9.12,5.89-.69.26-.28,2.08.5,3,1.97,2.34.91,4.46-.52,6.47-1.66,2.35-4.18,2.34-6.43,1.45-2.4-.95-4.73-1.57-7.32-1.6-1.94-.02-3.2-1.33-3.55-3.25-.31-1.7-.07-3.19,2.16-3.4.87-.08,1.44-.65,1.34-1.61-.11-1.07-.79-1.83-1.79-1.93-2.13-.22-3.92-1.2-5.73-2.17-1.01-.54-1.99-1.27-1.21-2.6.57-.97,1.49-1,2.48-.52,4.04,1.95,4.99,1.49,2.87-3-1.56-3.29,1.43-6.39,6.96-7.98,1.12-.32,2.83.35,3.06-1.45.2-1.53-1.03-2.15-2.36-2.48-1.97-.49-2.23-2.01-2.21-3.69Z"/>
        <path class="cls-3" d="m380.7,323.38c.16-3.01,1.33-3.68,3.85-1.79,3.54,2.64,11.67,2.49,15.3-.03,2.11-1.47,4.58-1.95,7.13-1.95,10.29,0,20.6-.39,30.86.15,5.18.27,10.35.79,15.55.81.32,0,.75-.09.93.08,6.8,6.32,14.93,1.77,22.39,2.58,6.93.75,14.01.15,21.02.14-1.05,4.48-1.68,8.74.61,13.28,1.91,3.77-.71,6.92-5.07,6.66-3.45-.21-6.82-1.24-10.34-.91-1.26.12-2.47.06-3.61.86-1.42.99-2.1,3.4-4.65,2.38-2.77-1.11-4.72-3.54-5.06-5.91-.62-4.33-2.43-5.66-6.68-6.15-3.61-.42-6.86-3.01-10.85-2.8-1.12.06-2-1.11-1.46-2.43,1.59-3.86-1.31-4.33-3.76-4.8-4.75-.91-9.38.88-14.12.98-1.72.04-1.97,1.45-.6,2.57,1.09.89,2.45,1.45,3.58,2.3,1.83,1.35,5.98,1.81,2.32,5.53-.21.21-.11.99.12,1.33,3.7,5.46-1.56,5.06-4.15,6.05-1.39.53-3.13.1-4.72.13-3.67.07-8.41-1.39-7.2,5.4.15.84-.17,2.73-1.81,2.96-1.54.21-2.02-1.17-2.77-2.19-2.8-3.79-5.41-8.65-11.13-6.96-3.89,1.14-6.9,1.02-10.14-1.32-1.57-1.13-2.43-.11-1.9,1.61.44,1.43,1.12,3.04-.61,3.7-2.1.8-3.41-1.24-4.72-2.39-1.16-1.01-1.06-2.78.17-3.81,2.37-1.99,6.02-3.52,5.16-7.12-.74-3.08-4.7-3.33-7.09-5-2.12-1.48-3.34-4.31-6.58-3.92Z"/>
        <path class="cls-2" d="m525.92,324.79c-.3.28-.65.84-1.14,1.01-.64.23-1.18-.15-1.18-.92,0-.66.27-1.21,1.01-1.27.64-.05,1.21.1,1.31,1.18Z"/>
        <path class="cls-2" d="m170.24,366.17c-.47-.29-1.04-.45-1.11-.73-.19-.75.41-1.05,1.03-.97.32.04.78.46.82.75.03.26-.43.58-.73.95Z"/>
        <path class="cls-3" d="m118.38,309.79c-.19-1.43-.35-2.96.91-3.95,3.85-3.05,3.82-7.24,3.76-11.57-.13-9.44-.11-18.88-.11-28.33,0-4.74-.88-9.34-1.92-13.93.18-1.06-.26-2.24.88-3.38,1.89,1.8,4.2,2.81,6.76,3.58,3.25.99,6.23,2.31,6.85,6.73.76,5.38,7.58,9.8,12.95,9.15,1.28-.15,2.49-.73,3.08-1.97,1.27-2.67,3.51-3.82,5.62-1.77,2.97,2.89-1.86,2.98-2.43,5.36,7.74-.28,12.62,6.87,20.26,7.32,2.58.15,3.86,3.08,5.71,4.77,1.39,1.26,2.79,2.27,4.63,1.26,1.94-1.06,0-3.28.12-3.38,2.66-2.34.36-5.07.74-7.52.1-.61.39-1.24.32-1.83-.2-1.7-3-3.15-.83-5.01,2.31-1.99,5.92-.96,7.47-.03,6.63,3.96,14.51,3.68,21.21,7.09,2.18,1.11,2.92-.69,2.48-2.47-.33-1.32-1.37-2.46-2.06-3.7-.4-.72-.62-1.51.08-2.16.69-.65,1.58-.5,2.16.03,5.02,4.66,9.09,1.1,13.01-1.69,2.91-2.08,5.73-3.92,9.47-3.64,1.16.09,2.16-.32,3.02-1.13,1.89-1.81,3.7-2.72,5.06.55.17.42.61,1.14.75,1.1,5.78-1.61,8.29,4.6,13.04,5.42.15.03.34.24.42.19,4.36-2.29,7.42,1.15,11.02,2.37,1.34.45,2.83.54,3.86,1.58,1.75,1.76,3.1,1.65,4.69-.28,1.5-1.82,3.32-1.53,4.96,0,1.79,1.67,1.04,2.81-.6,4.18-1.75,1.46-.32,2.83.78,3.96,2.77,2.83,7.39,3.89,8.06,8.78.14,1.01,1.61.92,2.41.28,1.28-1.02,2.72-1.63,2.92-3.89,2.17-25.63.3-51.3,1.06-76.94.13-4.32,1-8.67,2.75-12.74.05,2.85.1,5.71.15,8.56-.04,20.11-.33,40.22.04,60.32.12,6.22-1.23,12.74,4.16,18.56,2.51,2.71,4.7,4.97,7.35,3.53,2.76-1.5,8.7-1.33,6.82-7.48-.54-1.77.76-2.73,2.07-3.25,3.09-1.24,7.54,1.69,9.54-3.09.04-.11.71-.14.9.02,2.83,2.37,6.68,1.39,9.79,3.08,6.2,3.37,13.11,5.45,17.99,11.12,1.93,2.25,5.46,2.95,6.35-.74,1-4.13,1.39-8.89.32-12.91-1.1-4.16.46-4.33,3.42-4.48,2.3-.12,4.85.25,6.3,1.64,4.57,4.42,10.21,2.17,15.31,3.06,1.89.33,3.1-.48,2.26-2.79-.39-1.08-1.92-2.31-.59-3.34,1.33-1.04,2.89-.29,4.41.43,5.97,2.82,9.52.52,9.09-5.9-.2-2.94,2-4.13,3.68-5.68,1.1-1.02,1.86.01,2.75.78,4.29,3.71,13.02.79,14.42-4.78.22-.87-.03-2.1,1.39-1.92.83.11,1.41.93,1.34,1.74-.33,4.03,3.18,5.56,5.16,8.08.73.92,1.31,2.66,2.85,1.6,1.34-.91,1.89-2.43,1.22-4.21-.52-1.38-2.02-2.6-.81-4.56,2.22.63,3.19,2.85,4.98,3.99,1.07.68,2.34,2.08,3.28,1.01,2.46-2.81,5.31-1.97,8.2-1.51,2.2.36,3.24-1.24,3.99-2.73,1.47-2.89,3.31-3.63,6.06-1.75,4.75,3.24,8.64-2.03,13.15-1.4.1.01.35-1.11.53-1.71.02-.89.04-1.79.06-2.68,3.06-.58,4.69.71,4.98,3.78-.74,1.88-1.48,3.76-2.21,5.64-2.28.05-1.63,1.79-1.84,3.1-1.57,9.72-.63,19.52-.96,29.27-.16,4.72-.59,9.43-.76,14.15-.09,2.72-1.04,3.2-3.57,2.23-3.81-1.47-7.78-2.52-11.97-1.9-4.38-.29-8.76-.71-13.12-1.02-24.01-1.7-48.1-1.35-72.16-1.67-38.78-.52-77.56.27-116.35-.07-36.1-.31-72.21-.27-108.28,1.67-1.56-1.56-2.95-2.07-3.81.63-7.27.49-14.64.07-21.71,2.37-2.17-.59-3.14.73-3.89,2.43-2.53,2.13-5.05,4.25-7.58,6.38Z"/>
        <path class="cls-2" d="m204.77,233.11c-5.89-.83-11.81-.83-17.72-.58-1.68.07-3.32.92-4.98,1.37-2.33.63-4.78,2.3-6.67-.89-.44-.74-1.37-.37-2.16-.35-9.35.24-18.71-.7-28.04.43-.76.09-1.6,0-2.34-.23-.95-.29-1.71-.94-1.34-2.1.26-.84.99-1.01,1.84-1.15,8.19-1.35,16.36-2.76,24.54-4.18.44-.08,1.18-.34,1.21-.59.7-6.25,8.57-7.96,9.08-14.32.02-.22.44-.41,1.15-1.03,1.37,3.65.4,7.21.74,10.61.1,1.02-.54,2.58.85,2.89,1.78.39,1.45-1.51,2.08-2.45,2.07-3.07,4.54-5.75,8.49-6.45,3.15-.56,5.12.89,6.46,3.52.49.96.98,1.84.68,3.11-.89,3.76,1.91,6.29,6.03,5.61,5.44-.91,6.52-3.57,3.17-8.22-.82-1.14-1.51-2.11-.62-3.34.63-.88,1.78-.8,2.63-.4,8.28,3.88,17.29,2.4,25.94,3.44,8.92,1.07,9.9.03,13.37-9.74,1.16-.14,1.26.73,1.28,1.48.13,5.94,4.72,8.89,8.45,12.33,1.77,1.63,4.06,2.64,6.43.69.92-.76,1.97-.95,3.12-.74,2.46.46,9.28,8.48,9.58,11.26-4.75.2-9.57-.61-14.24.92-3.1-1.83-6.74-1.53-9.58-.51-4.09,1.47-7.62.77-11.36-.39-12.68,0-25.36,0-38.04,0Z"/>
        <path class="cls-2" d="m263.76,234.02c4.67-1.53,9.48-.72,14.24-.92,5.36,1.46,8.71-2.42,12.31-5.03,1.92-1.39,3.63-2.08,5.56-1.26,2.05.87,1.01,3.06,1.13,4.67.15,2.04.04,4.1.03,6.16-.03,6.74-5.86,10.33-11.63,6.99-1.6-.93-2.82-1.06-4.35-.21-1.1.61-2.2,1.23-3.47.15-2.01-1.71-3.4-.81-4.52,1.2-.56,1.01-1.41,1.81-2.7,1.24-1.07-.47-.79-1.57-.91-2.48-.59-4.51-2.77-5.78-7.03-4.07-2.19.88-4.3,2.16-6.57,2.58-1.86.34-4.34.2-4.42-2.76-.09-3.44,2.26-1.32,3.63-1.52,3.48-.49,6.68-1.55,8.7-4.74Z"/>
        <path class="cls-2" d="m204.77,233.11c12.68,0,25.36,0,38.04,0-1.86,4.02-6.07,2.35-9.07,3.61-1.63.68-3.71.12-5.32,1.51-.86.75-2.29.96-3.06.06-4.29-5-9.61-2.37-14.49-1.89-3.11.31-5.26.03-6.1-3.3Z"/>
        <path class="cls-2" d="m481.54,245.48c-.18.59-.44,1.72-.53,1.71-4.51-.62-8.41,4.65-13.15,1.4-2.75-1.88-4.59-1.14-6.06,1.75-.76,1.49-1.79,3.08-3.99,2.73-2.89-.47-5.74-1.3-8.2,1.51-.94,1.07-2.21-.32-3.28-1.01-1.79-1.14-2.76-3.36-4.98-3.99-1.21,1.96.28,3.18.81,4.56.67,1.77.12,3.29-1.22,4.21-1.55,1.06-2.13-.68-2.85-1.6-1.98-2.52-5.48-4.05-5.16-8.08.07-.81-.51-1.64-1.34-1.74-1.42-.18-1.17,1.05-1.39,1.92-1.4,5.57-10.13,8.49-14.42,4.78-.89-.77-1.65-1.8-2.75-.78-1.68,1.55-3.88,2.74-3.68,5.68.43,6.42-3.11,8.73-9.09,5.9-1.52-.72-3.08-1.47-4.41-.43-1.33,1.04.2,2.27.59,3.34.84,2.3-.37,3.12-2.26,2.79-5.1-.89-10.74,1.36-15.31-3.06-1.45-1.4-4-1.76-6.3-1.64-2.96.15-4.52.33-3.42,4.48,1.07,4.03.68,8.78-.32,12.91-.89,3.69-4.42,2.99-6.35.74-4.88-5.67-11.78-7.75-17.99-11.12-3.11-1.69-6.95-.71-9.79-3.08-.19-.16-.85-.13-.9-.02-1.99,4.79-6.44,1.86-9.54,3.09-1.3.52-2.61,1.48-2.07,3.25,1.88,6.15-4.06,5.98-6.82,7.48-2.65,1.44-4.84-.82-7.35-3.53-5.39-5.82-4.04-12.34-4.16-18.56-.38-20.1-.08-40.21-.04-60.32,1.55.25,2.7-.55,3.9-1.36.79-.53,2.24-.75,2.18.55-.22,5.04.96,2.2,3.08,1.02,2.68-1.48,5.74-3.67,9.2-2.1,4.52,2.05,8.14-.99,12.07-1.97,3.43-.86,5.54-.22,6.47,3.28.44,1.64,1.31,3.02,3.04,3.25,2.12.29,1.76-1.87,2.38-2.97,1.31-2.31,2.66-3.34,5.24-1.47,2.38,1.72,4.68,1.83,7.83.57,4.48-1.8,9.11,1.4,13.77,1.64,7.09.38,14.23,1.37,21.19-.94,1.25-.42,2.47-.46,3.73-.25,7.43,1.22,14.67,3.23,21.96,5.08,6.53,1.65,7.84.78,10.1-6.02,2.72,2.55,2.76,6.27,4.61,9.04.93,1.39,1.63,2.7,3.29,3,5.25.93,9.56,3.87,14.09,6.36,1.66.92,3.77,3.54,3.34-1.35-.16-1.8,1.38-2.23,2.96-1.02.86.66,1.93,1.82,2.72,1.68,5.97-1.03,7.19,2.59,8.33,7.3,1.08,4.45.11,7.28-4.49,8.73-1.02.32-2.18.21-3.28.29-.19-3.92-4.46-4.6-5.94-7.47-2.6-5.05-6.9-5.53-11.74-4.48-1.28.28-3.09.9-3.38-.42-1.3-5.97-9.26-7.15-9.27-14.07-1.42,2.62-2.83,5.01-2.77,7.36.13,5.24-3.1,5.61-6.52,4.63-6.08-1.73-12.39-.85-18.56-2.31-3.86-.91-7.96-1.67-12.01-2.19-1.43-.18-2.97-.09-3.67,1.5-.72,1.63.8,2.11,1.68,2.95,1.44,1.35,3.78,2.67,1.66,4.98-2.23,2.44-4.76,4.97-8.57,3.57-2.42-.89-3.06-2.79-2.31-5.41,1.13-3.92-2.17-6.4-4.38-8.09-2.07-1.58-5.48-.33-7.14,2.65-.68,1.23-1.91,2.4-2.81.73-1.7-3.18-4.78-5.99-3.45-10.27.59-1.91.03-3.54-2.55-5.06.2,7.61.54,14.74-7.21,18.33-.12.06-.21.25-.25.4-1.76,7.47-8.78,6.13-13.33,6.39-3.93.23-7.22.34-10.3,2.77-.83.66-2.29.88-1.98,2.31.31,1.45,1.68,1.19,2.74,1.19,6.66.02,13.31,0,19.97,0,2.22,0,3.98-.72,5.07-2.83.46-.88.22-2.64,1.75-2.39,1.49.24,2.33,1.55,2.47,3.11.15,1.6-.05,3.25,2.55,2.8,8.96-1.53,18-.32,26.99-.67,1.58,3.04,3.17,3.04,4.75,0,3.68-1.66,7.81-.31,11.56-1.71,1.09-.41,1.62.63,1.79,1.66-.85,2.83-.56,6.02,2.9,5.11,2.18-.57,4.61-.56,6.58-1.52,2.52-1.22,6.1-.23,7.6-3.54,8.09-1.6,4.55,6,6.77,10.02q2.07-10.06,11.79-10c.16,0,.32,0,.47,0-.13,4.04.32,6.12,5.82,6.54,3.04.23,7.8-1.08,10.65,2.43.2.24,1.43.12,1.66-.21,2.56-3.71,7.91-.6,10.48-4.34.5-.72,1.46-.25,1.89.56,1.89,3.53,6.58,3.84,8.47,7.36Z"/>
        <path class="cls-3" d="m388.35,233.11c-9,.35-18.04-.86-26.99.67-2.6.44-2.4-1.21-2.55-2.8-.14-1.56-.98-2.87-2.47-3.11-1.53-.25-1.29,1.51-1.75,2.39-1.09,2.1-2.86,2.83-5.07,2.83-6.66,0-13.31.01-19.97,0-1.06,0-2.43.26-2.74-1.19-.31-1.43,1.15-1.65,1.98-2.31,3.08-2.44,6.36-2.54,10.3-2.77,4.55-.27,11.57,1.07,13.33-6.39.03-.15.13-.34.25-.4,7.75-3.59,7.42-10.73,7.21-18.33,2.58,1.53,3.14,3.15,2.55,5.06-1.33,4.29,1.74,7.09,3.45,10.27.9,1.67,2.12.5,2.81-.73,1.66-2.98,5.07-4.24,7.14-2.65,2.21,1.69,5.51,4.17,4.38,8.09-.75,2.62-.12,4.51,2.31,5.41,3.8,1.4,6.34-1.13,8.57-3.57,2.11-2.31-.22-3.63-1.66-4.98-.89-.83-2.4-1.31-1.68-2.95.7-1.59,2.24-1.69,3.67-1.5,4.04.52,8.15,1.28,12.01,2.19,6.17,1.46,12.47.58,18.56,2.31,3.42.98,6.65.61,6.52-4.63-.06-2.35,1.34-4.73,2.77-7.36.01,6.92,7.97,8.11,9.27,14.07.29,1.32,2.09.7,3.38.42,4.84-1.05,9.15-.57,11.74,4.48,1.47,2.87,5.74,3.55,5.94,7.47-6.33.01-12.66.03-18.99.04-.16,0-.32,0-.47,0q-9.72-.06-11.79,10c-2.22-4.01,1.32-11.61-6.77-10.02-5.69-.02-11.39-.03-17.08-.05-.17-1.03-.7-2.07-1.79-1.66-3.75,1.41-7.88.05-11.56,1.71-1.58,0-3.17,0-4.75,0Z"/>
        <path class="cls-2" d="m498.68,390.91c0-1.27-.04-2.53,0-3.8.11-2.57.35-4.54,3.88-2.62,1.98,1.08,4.52,1.17,6.82,1.63.91.18,2-.03,2.34,1.14.31,1.07-.25,2.04-1.15,2.33-3.46,1.11-4.82,4.41-7.19,6.64-.99.93-1.5,2.63-3.33,2.08-1.93-.58-1.28-2.29-1.37-3.61-.09-1.26-.02-2.53-.02-3.8Z"/>
        <path class="cls-2" d="m448.26,369.04c.64,0,1.27,0,1.91,0-.14.69-.14,1.63-1.16,1.41-.34-.07-.51-.92-.75-1.41Z"/>
        <path class="cls-3" d="m537.72,299.17c1.59,2.48,3.76,2.28,5.38,3.17,1.59.87,2.51,2,2.02,3.8-.51,1.84-1.8,2.91-3.79,2.99-1.73.07-3.34-.29-3.52-2.29-.18-1.93-1.33-3.1-2.53-4.38-2.43-2.6-4.45-2.34-5.6.99-1.09,3.14-2.52,3.39-5.26,1.74-1.67-1-3.86-1.13-5.83-1.62-1.29-.32-2.48-.78-2.63-2.31-.14-1.46.84-2.62,1.97-2.96,2.71-.81,3.54-2.35,3.72-5.15.22-3.49,3.71-5.67,6.09-6.4,5.33-1.64,10.1-3.7,13.98-7.72.42-.44.99-.85,1.56-1.02,1.08-.32,2.23.33,2.16,1.24-.37,4.36,8.42,2.78,5.49,8.56-.52,1.02-1.03,2.01-.85,3.12.61,3.88-2.13,5.08-4.93,5.65-2.55.52-4.59,1.95-7.42,2.59Z"/>
        <path class="cls-2" d="m104.2,283.57c-1.11-.58-1.43-1.23-.17-2,.62.62.67,1.29.17,2Z"/>
        <path class="cls-2" d="m103.51,275.01c-1.2-.44-1.84-1-.44-2,.68.55.79,1.23.44,2Z"/>
        <path class="cls-2" d="m51.61,284.42c2.78.89,5.25.87,6.83-2.14.69-1.33,1.66-1.48,3.15-.98,9.85,3.3,18.68,7.8,23.99,17.44,1.34,2.43,1.5,3.66-.76,5.49-2.1,1.69-4.18-.33-6.31.77-2.52,1.3-3.65-.35-4.56-2.9-.84-2.34-4.03-2.35-6.05-3-4.96-1.6-10.11-2.45-13.44-7.04.03-2.91-3.28-4.57-2.85-7.62Z"/>
        <path class="cls-2" d="m154.47,347.05c-2.54-.89-4.04-.4-4.82,1.55-.59,1.5-1.31,2.73-3.09,1.72-1.47-.83-4.22-.91-3.24-3.71.62-1.77-.5-2.53-1.21-3.73-1.26-2.13-2.85-4.39-1.43-7.02,1.28-2.37,3.7-1.98,5.91-2.03,3.25-.07,6.44-1.06,9.76-.04,1.66.51,2.74,1.46,3.8,2.62.44.48.74,1.07.25,1.66-.49.6-1.18.45-1.7.08-.96-.69-1.94-2.29-3.02-.55-.87,1.4-.58,3.01,1.03,4.13,1.53,1.06,1.84,2.58.94,4.16-.87,1.52-2.36,1.29-3.2,1.15Z"/>
        <path class="cls-2" d="m267.44,389.88c-2.84-.84-5.82-1.38-8.47-2.63-1.84-.86-2.85-2.65-.29-4.35,1.55-1.02,2.41-2.82,3.57-4.07,3.29-3.54,6.45,1.11,9.89,1.2,2.12.06,3.6,2.07,3.64,4.35.03,1.88-5.78,5.54-8.32,5.48Z"/>
        <path class="cls-2" d="m111.56,367.11c6.73-2.07,13.5-.42,20.26-.33-6.57,3.58-13.43,2.02-20.25,1.3,0-.32,0-.65-.01-.97Z"/>
        <path class="cls-2" d="m298.91,369c1.27-1.98,2.79-2.67,4.78-.91-1.35,1.57-3.16.73-4.78.91Z"/>
        <path class="cls-2" d="m111.56,367.11c0,.32,0,.65.01.97-.42-.16-.84-.32-1.26-.47.42-.17.83-.33,1.25-.5Z"/>
        <path class="cls-2" d="m155.37,297.99c36.07-1.94,72.18-1.98,108.28-1.67,38.79.33,77.57-.46,116.35.07,24.06.32,48.14-.03,72.16,1.67,4.36.31,8.74.73,13.12,1.02,1.99,2.46,5.22,2.44,7.8,3.65,6.04,2.85,10.76,7.1,15.26,11.78.64.67,1.65,1.31,1.35,2.33-.42,1.39-1.82,1.05-2.85,1.02-8.21-.19-16.41-.32-24.63-.74-17.84-.93-35.72-1.74-53.61-1.09-8.52.31-17.02,1.21-25.58.78-24.19-1.21-48.41-.88-72.61-.9-14.51,0-29.03,0-43.54,0-14.67,0-29.37-.58-44.01.17-24.68,1.25-49.37.18-74.03.95-6.93.22-13.84,1.08-20.77,1.39-2.96.13-6-.17-8.92-.72-2.37-.45-3.76-1.9-1.72-4.38.85-1.04,1.21-2.2.97-3.53,2.53-2.12,5.05-4.25,7.58-6.37,2.09.46,3.37-.37,3.89-2.43,7.07-2.31,14.44-1.88,21.71-2.37,1.32.1,2.73.7,3.81-.63Z"/>
        <path class="cls-2" d="m129.85,300.99c-.52,2.06-1.8,2.89-3.89,2.43.74-1.69,1.72-3.02,3.89-2.43Z"/>
        <path class="cls-2" d="m155.37,297.99c-1.09,1.33-2.49.73-3.81.63.86-2.7,2.25-2.19,3.81-.63Z"/>
        <path class="cls-2" d="m406.46,233.06c5.69.02,11.39.03,17.08.05-1.5,3.32-5.08,2.33-7.6,3.54-1.97.96-4.4.95-6.58,1.52-3.46.91-3.76-2.29-2.9-5.11Z"/>
        <path class="cls-3" d="m388.35,233.11c1.58,0,3.17,0,4.75,0-1.58,3.03-3.17,3.03-4.75,0Z"/>
      </g>
    </g>
  </g>
</svg>