<?xml version="1.0" encoding="UTF-8"?>
<svg id="Layer_2" data-name="Layer 2" xmlns="http://www.w3.org/2000/svg" viewBox="0 0 930.62 842.72">
  <defs>
    <style>
      .cls-1, .cls-2, .cls-3, .cls-4, .cls-5, .cls-6, .cls-7, .cls-8, .cls-9, .cls-10 {
        stroke-miterlimit: 10;
      }

      .cls-1, .cls-2, .cls-3, .cls-4, .cls-7, .cls-8 {
        stroke: blue;
      }

      .cls-1, .cls-11, .cls-8, .cls-10, .cls-12, .cls-13 {
        fill: blue;
      }

      .cls-1, .cls-5, .cls-7, .cls-9 {
        stroke-width: 8px;
      }

      .cls-2 {
        stroke-width: 29px;
      }

      .cls-2, .cls-4, .cls-6 {
        fill: none;
      }

      .cls-3, .cls-10 {
        stroke-width: 9px;
      }

      .cls-4, .cls-8 {
        stroke-width: 5px;
      }

      .cls-5, .cls-6, .cls-9, .cls-10 {
        stroke: #000;
      }

      .cls-5, .cls-7 {
        fill: #fff;
      }

      .cls-6 {
        stroke-width: 23px;
      }

      .cls-14 {
        fill: #161fff;
      }

      .cls-12 {
        font-size: 19px;
      }

      .cls-12, .cls-13 {
        font-family: LEMONMILK-BoldItalic, 'LEMONMILK BoldItalic';
        font-style: italic;
        font-weight: 700;
      }

      .cls-13 {
        font-size: 20px;
      }
    </style>
  </defs>
  <g id="Layer_1-2" data-name="Layer 1">
    <g>
      <g>
        <g>
          <path class="cls-1" d="m925.58,589.68c-.28-.88-.29-1.32-.52-1.54-1.16-1.19-2.37-2.33-3.56-3.48-18.72-18.15-34.88-38.29-44.87-62.7-9.72-23.73-14.77-48.25-7.8-73.86,4.63-17.01,13.31-32.19,22.5-46.92,15.92-25.53,25.93-52.66,25.81-83.23-.07-16.81-2.12-33.31-6.03-49.6-.4-1.66-.1-5.17-3.87-3.41-9.29,4.32-19.33,5.61-29.27,6.99-43.26,6.02-86.79,6.95-130.37,6.74-37.09-.18-74.14-1.68-111.02-5.8-13.05-1.46-26.33-2.77-38.46-8.43-3.97-1.85-5-.57-6.32,2.63-4.39,10.66-6.19,21.79-5.4,33.23,1.48,21.3-5.94,39.2-19.44,55.08-6.33,7.45-12.64,14.94-18.27,22.99-2.81,4.02-2.82,7.38.52,10.89,3.68,3.88,6.81,8.51,11.05,11.6,8.63,6.29,9.83,13.77,5.59,22.98-2.58,5.62-2.07,10.79,2.51,15.27,1.69,1.65,2.31,3.66.06,5.16-5.22,3.49-4.21,7.97-1.64,12.14,5.33,8.66,6.32,17.72,5.07,27.75-1.86,15.02,6.52,25.45,21.31,27.98,11.08,1.9,22.3,1.88,33.49,2.42,16.5.79,33.05,1.33,49,6.47,16.23,5.23,27.72,15.42,33.59,31.87,3.64,10.2,5.38,20.82,7.13,31.41,5.85,35.32,10.35,70.85,14.83,106.37.65,5.11,2.61,5.81,6.98,5.55,14.75-.86,29.19-3.27,43.22-7.92,22.53-7.47,41.85-19.62,56.03-39.32,5.3-7.37,11.51-13.97,18.19-20.1,20.2-18.54,43.73-31.06,69.96-39.2Z"/>
          <path class="cls-9" d="m75,621.57c6.68,6.13,12.89,12.73,18.19,20.1,14.17,19.71,33.5,31.85,56.03,39.32,14.03,4.65,28.48,7.06,43.22,7.92,4.37.25,6.33-.44,6.98-5.56,4.48-35.52,8.99-71.04,14.83-106.37,1.75-10.59,3.49-21.21,7.13-31.41,5.87-16.46,17.36-26.64,33.59-31.87,15.95-5.14,32.5-5.67,49-6.47,11.18-.54,22.41-.53,33.49-2.42,14.79-2.53,23.17-12.96,21.31-27.98-1.24-10.03-.26-19.08,5.07-27.75,2.57-4.17,3.58-8.65-1.64-12.14-2.24-1.5-1.63-3.51.06-5.16,4.57-4.48,5.09-9.65,2.51-15.26-4.24-9.21-3.04-16.69,5.59-22.98,4.24-3.09,7.37-7.72,11.05-11.6,3.33-3.51,3.33-6.87.52-10.89-5.63-8.05-11.94-15.54-18.27-22.99-13.5-15.88-20.92-33.78-19.44-55.08.8-11.44-1.01-22.56-5.4-33.23-1.32-3.21-2.35-4.49-6.32-2.63-12.12,5.66-25.41,6.97-38.46,8.43-36.88,4.12-73.93,5.62-111.02,5.8-43.58.21-87.11-.72-130.37-6.74-9.94-1.38-19.98-2.67-29.27-6.99-3.78-1.76-3.47,1.75-3.87,3.41-3.91,16.29-5.97,32.78-6.03,49.6-.12,30.57,9.88,57.7,25.81,83.23,9.19,14.73,17.87,29.91,22.5,46.92,6.97,25.61,1.92,50.13-7.8,73.86-9.99,24.41-26.15,44.55-44.87,62.7-1.19,1.16-2.4,2.29-3.56,3.48-.22.23-.23.66-.51,1.54,26.24,8.14,49.76,20.66,69.96,39.2Z"/>
          <path class="cls-1" d="m753.73,49.13c-8.14-.17-16.15.78-24.17,1.86-3.71.5-4.66,1.49-2.45,5.07,6.51,10.55,13.14,21.02,20.45,31.02,45.92,62.86,100.45,117.6,157.17,170.29,3.63,3.37,4.35.86,5.72-1.61,13.1-23.65,14.66-48.63,8.07-74.41-6.56-25.68-20.01-47.7-36.55-67.89-33.28-40.65-75.4-63.48-128.24-64.34Z"/>
          <path class="cls-9" d="m47.76,109.43c-16.53,20.19-29.99,42.21-36.55,67.89-6.59,25.78-5.03,50.76,8.07,74.41,1.37,2.47,2.09,4.98,5.72,1.61,56.72-52.69,111.25-107.43,157.17-170.29,7.31-10.01,13.94-20.47,20.45-31.02,2.21-3.58,1.26-4.57-2.45-5.07-8.02-1.08-16.03-2.02-24.17-1.86-52.83.86-94.95,23.69-128.24,64.34Z"/>
          <g>
            <rect class="cls-1" x="437.4" y="687.39" width="23.28" height="75.99" rx="10.78" ry="10.78"/>
            <rect class="cls-1" x="476.72" y="687.71" width="23.28" height="75.99" rx="10.78" ry="10.78"/>
            <path class="cls-11" d="m349.87,751.46c-13.02-9.49-26.05-18.97-39.07-28.46,12.83-8.88,25.67-17.76,38.5-26.64.08,9.18.15,18.37.23,27.55.11,9.18.23,18.36.34,27.55Z"/>
            <path class="cls-11" d="m395.27,751.67c-13.02-9.49-26.05-18.97-39.07-28.46,12.83-8.88,25.67-17.76,38.5-26.64.08,9.18.15,18.37.23,27.55.11,9.18.23,18.36.34,27.55Z"/>
            <path class="cls-11" d="m591.13,696.31c12.89,9.39,25.78,18.78,38.67,28.17-12.7,8.79-25.4,17.58-38.11,26.36-.07-9.09-.15-18.18-.22-27.27-.11-9.09-.23-18.18-.34-27.26Z"/>
            <path class="cls-11" d="m546.27,696.1c12.89,9.39,25.78,18.78,38.67,28.17-12.7,8.79-25.4,17.58-38.11,26.36-.07-9.09-.15-18.18-.22-27.27-.11-9.09-.23-18.18-.34-27.26Z"/>
            <rect class="cls-4" x="93.75" y="796.91" width="726.67" height="24.38" rx="9.31" ry="9.31"/>
            <rect class="cls-8" x="229.48" y="778.17" width="19.53" height="62.05" rx="7.54" ry="7.54"/>
            <text class="cls-13" transform="translate(21.03 816.9) scale(.99 1)"><tspan x="0" y="0">00:00</tspan></text>
            <text class="cls-12" transform="translate(830.87 817.27) scale(.99 1)"><tspan x="0" y="0">20:00</tspan></text>
          </g>
          <path class="cls-5" d="m903.27,564.54c-.25-.77-.26-1.15-.45-1.35-1.01-1.04-2.07-2.03-3.11-3.04-16.34-15.85-30.45-33.43-39.18-54.74-8.48-20.72-12.89-42.13-6.81-64.49,4.04-14.85,11.62-28.11,19.65-40.97,13.9-22.29,22.64-45.97,22.53-72.66-.06-14.68-1.85-29.08-5.27-43.3-.35-1.45-.08-4.51-3.38-2.98-8.11,3.77-16.87,4.9-25.55,6.11-37.77,5.25-75.78,6.07-113.82,5.88-32.39-.16-64.73-1.47-96.93-5.06-11.39-1.27-22.99-2.41-33.57-7.36-3.46-1.62-4.37-.5-5.52,2.3-3.83,9.31-5.41,19.02-4.71,29.01,1.29,18.6-5.19,34.23-16.97,48.09-5.53,6.51-11.04,13.04-15.95,20.07-2.45,3.51-2.46,6.44.45,9.51,3.22,3.39,5.95,7.43,9.65,10.13,7.54,5.49,8.58,12.03,4.88,20.07-2.26,4.9-1.8,9.42,2.19,13.33,1.47,1.44,2.01,3.2.05,4.51-4.56,3.05-3.68,6.96-1.43,10.6,4.66,7.56,5.51,15.47,4.43,24.22-1.63,13.11,5.69,22.22,18.6,24.43,9.67,1.66,19.47,1.64,29.24,2.11,14.41.69,28.85,1.16,42.78,5.65,14.17,4.57,24.2,13.46,29.33,27.83,3.18,8.91,4.69,18.17,6.23,27.42,5.1,30.84,9.04,61.86,12.95,92.87.56,4.46,2.28,5.07,6.09,4.85,12.88-.75,25.48-2.86,37.74-6.92,19.67-6.52,36.54-17.13,48.91-34.33,4.63-6.44,10.05-12.2,15.88-17.55,17.64-16.19,38.18-27.12,61.08-34.23Z"/>
          <path class="cls-7" d="m27.04,561.36c.25-.77.26-1.15.45-1.35,1.01-1.04,2.07-2.03,3.11-3.04,16.34-15.85,30.45-33.43,39.18-54.74,8.48-20.72,12.89-42.13,6.81-64.49-4.04-14.85-11.62-28.11-19.65-40.97-13.9-22.29-22.64-45.97-22.53-72.66.06-14.68,1.85-29.08,5.27-43.3.35-1.45.08-4.51,3.38-2.98,8.11,3.77,16.87,4.9,25.55,6.11,37.77,5.25,75.78,6.07,113.82,5.88,32.39-.16,64.73-1.47,96.93-5.06,11.39-1.27,22.99-2.41,33.57-7.36,3.46-1.62,4.37-.5,5.52,2.3,3.83,9.31,5.41,19.02,4.71,29.01-1.29,18.6,5.19,34.23,16.97,48.09,5.53,6.51,11.04,13.04,15.95,20.07,2.45,3.51,2.46,6.44-.45,9.51-3.22,3.39-5.95,7.43-9.65,10.13-7.54,5.49-8.58,12.03-4.88,20.07,2.26,4.9,1.8,9.42-2.19,13.33-1.47,1.44-2.01,3.2-.05,4.51,4.56,3.05,3.68,6.96,1.43,10.6-4.66,7.56-5.51,15.47-4.43,24.22,1.63,13.11-5.69,22.22-18.6,24.43-9.67,1.66-19.47,1.64-29.24,2.11-14.41.69-28.85,1.16-42.78,5.65-14.17,4.57-24.2,13.46-29.33,27.83-3.18,8.91-4.69,18.17-6.23,27.42-5.1,30.84-9.04,61.86-12.95,92.87-.56,4.46-2.28,5.07-6.09,4.85-12.88-.75-25.48-2.86-37.74-6.92-19.67-6.52-36.54-17.13-48.91-34.33-4.63-6.44-10.05-12.2-15.88-17.55-17.64-16.19-38.18-27.12-61.08-34.23Z"/>
        </g>
        <path class="cls-3" d="m600.69,261.11c22.01-14.24,68.16-39.79,131.76-44.01,86.78-5.75,150.13,31.91,171.24,45.79-36.35,10.5-88.39,21.35-151.42,21.01-63.23-.35-115.29-11.84-151.58-22.79Z"/>
        <path class="cls-10" d="m29.13,254.04c22.49-14.15,68.95-39.07,132.67-43.15,83.68-5.36,145.33,28.54,167.62,42.29-39.09,9.76-91.44,18.83-153.45,18.68-58.92-.15-108.92-8.58-146.84-17.82Z"/>
      </g>
      <g>
        <g>
          <path class="cls-14" d="m410.86,604.09c1.58,1.59,3.62,2.39,6.14,2.39v11.04c-4.21,0-7.79-.94-10.73-2.83-2.95-1.89-5.11-4.6-6.48-8.13-2.47,6.31-7,9.47-13.58,9.47-2.65,0-5.13-.76-7.44-2.27-2.31-1.52-4.16-3.65-5.56-6.41-1.4-2.76-2.09-5.88-2.09-9.36,0-4.33.97-8.13,2.92-11.41,1.94-3.28,4.63-5.8,8.06-7.57,3.43-1.76,7.29-2.65,11.59-2.65,1.65,0,3.13.1,4.46.3v-3.43h10.36v23.72c0,3.18.79,5.57,2.37,7.16Zm-29.05-37.07c-1.14-1.24-1.71-2.73-1.71-4.47s.57-3.23,1.71-4.47c1.14-1.24,2.51-1.86,4.12-1.86s2.97.62,4.12,1.86c1.14,1.24,1.71,2.74,1.71,4.47s-.57,3.23-1.71,4.47c-1.14,1.24-2.52,1.86-4.12,1.86s-2.97-.62-4.12-1.86Zm13.82,34.68c1.67-2.29,2.5-5.39,2.5-9.32v-5.07c-1.51-.25-2.86-.37-4.05-.37-3.7,0-6.76.98-9.16,2.95-2.4,1.96-3.6,4.61-3.6,7.94,0,2.34.71,4.14,2.13,5.41,1.42,1.27,3.25,1.9,5.49,1.9,2.79,0,5.02-1.14,6.69-3.43Zm-.17-34.68c-1.14-1.24-1.71-2.73-1.71-4.47s.57-3.23,1.71-4.47c1.14-1.24,2.51-1.86,4.12-1.86s2.97.62,4.12,1.86c1.14,1.24,1.71,2.74,1.71,4.47s-.57,3.23-1.71,4.47c-1.14,1.24-2.52,1.86-4.12,1.86s-2.97-.62-4.12-1.86Z"/>
          <path class="cls-14" d="m446.5,606.47v11.04c-7.27,0-12.19-2.19-14.75-6.56-1.65,2.09-3.72,3.7-6.21,4.85-2.49,1.14-5.34,1.72-8.54,1.72-1.55,0-2.86-.55-3.91-1.64-1.05-1.09-1.58-2.44-1.58-4.03s.5-2.88,1.51-3.88c1.01-.99,2.33-1.49,3.98-1.49,2.51,0,4.57-.79,6.17-2.39,1.6-1.59,2.4-3.98,2.4-7.16v-15.21h10.36v15.21c0,2.83.73,5.1,2.19,6.79,1.69,1.84,4.48,2.76,8.37,2.76Zm-19.62,28.42c-1.14-1.24-1.71-2.74-1.71-4.47s.57-3.23,1.71-4.47c1.14-1.24,2.51-1.86,4.12-1.86s2.97.62,4.12,1.86c1.14,1.24,1.71,2.73,1.71,4.47s-.57,3.23-1.71,4.47c-1.14,1.24-2.52,1.86-4.12,1.86s-2.97-.62-4.12-1.86Z"/>
          <path class="cls-14" d="m475.99,606.47v11.04c-7.27,0-12.19-2.19-14.75-6.56-1.65,2.09-3.72,3.7-6.21,4.85-2.49,1.14-5.34,1.72-8.54,1.72-1.55,0-2.86-.55-3.91-1.64-1.05-1.09-1.58-2.44-1.58-4.03s.5-2.88,1.51-3.88c1.01-.99,2.33-1.49,3.98-1.49,2.51,0,4.57-.79,6.17-2.39,1.6-1.59,2.4-3.98,2.4-7.16v-15.21h10.36v15.21c0,2.83.73,5.1,2.19,6.79,1.69,1.84,4.48,2.76,8.37,2.76Zm-20.03-33.34c-1.14-1.24-1.71-2.73-1.71-4.47s.57-3.23,1.71-4.47,2.51-1.86,4.12-1.86,2.97.62,4.12,1.86c1.14,1.24,1.71,2.74,1.71,4.47s-.57,3.23-1.71,4.47c-1.14,1.24-2.52,1.86-4.12,1.86s-2.97-.62-4.12-1.86Z"/>
          <path class="cls-14" d="m472.05,608.04c1.03-1.04,2.34-1.57,3.94-1.57h13.72v11.04h-13.72c-1.6,0-2.92-.52-3.94-1.57-1.03-1.04-1.54-2.36-1.54-3.95s.51-2.91,1.54-3.95Z"/>
          <path class="cls-14" d="m485.77,608.04c1.03-1.04,2.34-1.57,3.94-1.57h13.72v11.04h-13.72c-1.6,0-2.92-.52-3.94-1.57-1.03-1.04-1.54-2.36-1.54-3.95s.51-2.91,1.54-3.95Z"/>
          <path class="cls-14" d="m534.47,587.98c3.82,4.43,5.73,10.59,5.73,18.5v11.04h-36.77c-1.6,0-2.86-.55-3.77-1.64-.91-1.09-1.37-2.39-1.37-3.88s.46-2.78,1.37-3.88c.92-1.09,2.17-1.64,3.77-1.64h26.41c0-6.31-1.89-10.8-5.66-13.46-3.77-2.66-9.23-3.99-16.36-3.99l-2.06-14.02c4.62-3.78,9.55-6.77,14.78-8.99,5.24-2.21,11.6-3.96,19.1-5.26l1.51,11.04c-4.16.55-8.27,1.52-12.31,2.91-4.05,1.39-7.63,3.03-10.73,4.92,7.09,1.14,12.54,3.93,16.36,8.35Z"/>
        </g>
        <g>
          <path class="cls-14" d="m533.37,628.2v1.97h-3.16c-.5,0-.91-.32-1.25-.96-.33.64-.74.96-1.25.96-.56,0-.98.12-1.26.35-.27.23-.41.55-.41.96,0,.88.62,1.32,1.86,1.32h1.73v1.96h-1.73c-1.18,0-2.1-.28-2.74-.85-.65-.57-.97-1.38-.97-2.42,0-.85.22-1.55.65-2.08.43-.54,1.05-.89,1.86-1.07l-1.41-1.55v-.03c0-.72.16-1.38.48-1.97.32-.59.76-1.06,1.32-1.41.56-.34,1.18-.51,1.86-.51s1.31.17,1.87.51c.56.34,1,.81,1.32,1.41.32.6.48,1.25.48,1.97v.03l-1.31,1.43h2.05Zm-2.58-2.01c-.02-.2-.12-.4-.28-.6-.16-.2-.38-.38-.66-.51-.27-.14-.57-.21-.89-.21s-.61.07-.89.21c-.27.14-.49.31-.66.51-.16.2-.26.4-.28.6l1.83,2.04,1.83-2.04Z"/>
          <path class="cls-14" d="m539.53,623.37c.5.34.9.8,1.19,1.38.29.58.43,1.22.43,1.92s-.14,1.36-.43,1.88c-.29.53-.67.93-1.14,1.21-.47.28-.99.41-1.56.41-.44,0-.88-.08-1.3-.25-.43-.17-.83-.42-1.19-.76-.25.33-.55.58-.92.75-.37.17-.78.26-1.23.26-.28,0-.51-.1-.7-.29-.19-.2-.28-.43-.28-.72s.09-.51.27-.69c.18-.18.42-.27.71-.27.26,0,.46-.05.6-.15.14-.1.24-.24.3-.42.06-.18.13-.45.21-.83.08-.38.14-.63.17-.75.25-1.01.65-1.8,1.19-2.36.54-.56,1.2-.84,1.98-.84.63,0,1.19.17,1.7.51Zm-.67,4.54c.29-.29.44-.7.44-1.23s-.13-.94-.4-1.29c-.27-.34-.62-.51-1.07-.51-.33,0-.61.12-.81.37-.21.24-.39.63-.56,1.17-.08.26-.14.53-.18.81-.02.06-.03.14-.04.22-.01.08-.03.18-.07.29.24.2.49.36.77.46.28.1.55.15.81.15.45,0,.82-.14,1.11-.43Z"/>
        </g>
        <g>
          <path class="cls-14" d="m492.9,629.92c0,.85.24,1.49.73,1.91.49.42,1.23.63,2.22.63h1.21c.78,0,1.33-.06,1.66-.17.33-.12.5-.34.5-.68,0-.25-.07-.45-.2-.59-.13-.15-.3-.26-.5-.33-.2-.08-.49-.16-.88-.25-.56-.13-1-.26-1.31-.39-.68-.28-1.16-.66-1.44-1.14-.28-.47-.42-1.06-.42-1.75,0-.63.17-1.2.5-1.7.33-.51.81-.9,1.42-1.19.61-.28,1.31-.43,2.09-.43.88,0,1.81.19,2.78.56l-.5,1.92c-.9-.37-1.72-.56-2.45-.56-.61,0-1.1.13-1.46.38-.36.25-.54.59-.54,1.02,0,.24.05.44.15.59.1.16.3.31.61.46.3.15.75.31,1.35.48.78.22,1.41.54,1.9.97.49.42.74,1.07.74,1.95,0,.94-.35,1.65-1.04,2.11-.69.47-1.68.7-2.96.7h-1.21c-.9,0-1.71-.15-2.43-.44-.72-.29-1.29-.75-1.72-1.36-.42-.61-.64-1.37-.64-2.28,0-.6.1-1.27.31-1.98h1.73c-.14.6-.21,1.12-.21,1.56Zm1.19,7.31c-.2-.22-.31-.49-.31-.8s.1-.58.31-.8c.2-.22.45-.33.74-.33s.53.11.74.33c.2.22.31.49.31.8s-.1.58-.31.8c-.2.22-.45.33-.74.33s-.53-.11-.74-.33Zm2.44,0c-.2-.22-.31-.49-.31-.8s.1-.58.31-.8c.2-.22.45-.33.74-.33s.53.11.74.33c.2.22.31.49.31.8s-.1.58-.31.8c-.2.22-.45.33-.74.33s-.53-.11-.74-.33Z"/>
          <path class="cls-14" d="m507.01,629.16v1.97h-1.27c0,.95-.2,1.67-.59,2.16-.39.49-.95.73-1.68.73-.48,0-1-.1-1.54-.29l.36-1.73c.38.1.67.15.88.15.25,0,.44-.08.55-.23.11-.15.17-.41.17-.79v-6.39h1.85v4.42h1.27Zm-2.96-5.93c-.2-.22-.31-.49-.31-.8s.1-.58.31-.8c.2-.22.45-.33.74-.33s.53.11.74.33c.2.22.31.49.31.8s-.1.58-.31.8-.45.33-.74.33-.53-.11-.74-.33Z"/>
          <path class="cls-14" d="m512.28,629.16v1.97c-1.3,0-2.18-.39-2.63-1.17-.29.37-.66.66-1.11.87-.45.2-.95.31-1.53.31-.28,0-.51-.1-.7-.29-.19-.2-.28-.43-.28-.72s.09-.51.27-.69c.18-.18.42-.27.71-.27.45,0,.82-.14,1.1-.43.29-.28.43-.71.43-1.28v-2.72h1.85v2.72c0,.51.13.91.39,1.21.3.33.8.49,1.49.49Zm-3.58-5.95c-.2-.22-.31-.49-.31-.8s.1-.58.31-.8.45-.33.74-.33.53.11.74.33c.2.22.31.49.31.8s-.1.58-.31.8c-.2.22-.45.33-.74.33s-.53-.11-.74-.33Z"/>
          <path class="cls-14" d="m511.58,629.44c.18-.19.42-.28.7-.28h2.45v1.97h-2.45c-.29,0-.52-.09-.7-.28-.18-.19-.28-.42-.28-.71s.09-.52.28-.71Z"/>
          <path class="cls-14" d="m520.27,625.86c.68.79,1.02,1.89,1.02,3.3v1.97h-6.57c-.29,0-.51-.1-.67-.29-.16-.2-.24-.43-.24-.69s.08-.5.24-.69c.16-.2.39-.29.67-.29h4.72c0-1.13-.34-1.93-1.01-2.4-.67-.47-1.65-.71-2.92-.71l-.37-2.5c.82-.67,1.7-1.21,2.64-1.61.94-.4,2.07-.71,3.41-.94l.27,1.97c-.74.1-1.48.27-2.2.52-.72.25-1.36.54-1.92.88,1.27.2,2.24.7,2.92,1.49Z"/>
        </g>
      </g>
      <path class="cls-2" d="m182.51,267.46c1.19-138.96,114.1-251.26,247.73-252.94,139.79-1.76,258.67,118.06,253.97,263.49"/>
      <path class="cls-6" d="m262.06,274.06c-2.43-141.1,111.14-257.81,248.27-260.25,141.33-2.51,261.08,117.17,257.29,262.63"/>
    </g>
  </g>
</svg>