<?xml version="1.0" encoding="UTF-8"?>
<svg id="Layer_2" data-name="Layer 2" xmlns="http://www.w3.org/2000/svg" viewBox="0 0 11432.22 9362.35">
  <defs>
    <style>
      .cls-1 {
        fill: blue;
        stroke-width: 0px;
      }
    </style>
  </defs>
  <g id="Layer_1-2" data-name="Layer 1">
    <path class="cls-1" d="M5576.37,373.23c358.26-269.01,845.16-214.8,1250.74-98.85,254.34,72.72,484.22,152.36,707.98,287,170.22,102.42,329.1,232.23,447.63,392.91,154.27,209.12,221.34,449.99,266.8,702.75,50.09,278.44,81.93,562.81,204.05,821.61,120.03,254.37,334.84,446.64,580.74,576.78,268.28,141.98,563.46,212.86,857.96,277.16,295.16,64.45,604,121.86,871.79,268.35,115.7,63.29,225.12,144.36,304.34,251.16,86.26,116.29,134.12,254.26,159.71,395.62,48.17,266.09,18.55,548.87-57.41,806.8-76.48,259.7-206.7,505.96-382.27,712.44-189.85,223.28-427.48,391.68-688.67,522.1-273.53,136.58-566.01,231.66-857.77,320.75-321.36,98.13-646.53,183.73-974.46,256.91-324.72,72.46-652.16,132.74-981.35,180.99-326,47.78-653.6,74.39-980.8,111.29-322.23,36.33-628.03,103.21-919.14,250.24-273.99,138.39-529.37,304.69-836.92,358.78-312.27,54.92-636.84,8.54-939.9-73.79-277.67-75.43-546.24-182.11-800.65-316.4-255.02-134.62-496.53-295.67-716.77-481.93-216.47-183.07-430.37-388.63-581.44-630.38-130.55-208.91-197.31-447.06-145.75-691.29,40.32-190.97,137.86-360.44,251.58-517.07,225.41-310.47,533.06-576.84,669.26-944.07,160.59-433.01-67.59-967.79-459.1-1196.64-111.08-64.93-234.3-94.64-355.42-133.97-121.95-39.59-221.9-106.51-303.64-206.02-164.52-200.26-237.97-497.6-65.96-715.86,82.58-104.79,193.18-191.38,290.48-281.8,109.98-102.2,220.67-203.7,334.3-301.85,187.57-162.01,384.64-316.95,606.18-430.21,391.72-200.27,838.85-204.05,1240.43-28.41,182.05,79.62,350.45,186,516.75,293.85,141.73,91.91,282.9,186.97,440.06,250.87,131.96,53.65,280.03,72.6,414.83,17.7,200.74-81.77,284.03-261.71,337.08-459.39,25.75-95.95,48.12-194.74,90.09-285.26,51.62-111.32,126.24-201.52,222.86-276.91,38.36-29.93,31.4-95.88,0-127.28-37.86-37.86-88.82-30-127.28,0-103.2,80.52-188.27,183.08-245.26,301.18-49.83,103.25-80.05,212.67-109.36,323.02-23.96,90.26-45.52,179.1-99.45,254.83-21.39,30.03-55.29,60.65-90.79,81.44-8.31,4.87-16.86,9.2-25.35,13.73-4.94,2.64-22.05,10.01-7.7,4.1-16.63,6.84-33.89,12.36-51.35,16.67-7.34,1.81-14.74,3.22-22.13,4.77-17.58,3.68,12.11-.62-5.71,1.03-16.16,1.5-32.3,2.27-48.53,1.95-8.81-.17-17.55-.86-26.34-1.32-7.23-.38-22.55-2.6-6.38-.26-16.73-2.42-33.33-5.83-49.75-9.86-79.79-19.58-122.12-40.51-193.37-78.62-158.61-84.82-305.32-190.49-457.97-285.22-180.5-112.01-369.97-212.35-573.2-276.53-229.22-72.39-470.54-91.47-708.28-57.26-506.03,72.81-916.04,413.69-1283.72,744.53-120.57,108.49-238.96,219.39-357.28,330.33-91.7,85.98-179.23,173.82-230.55,290.92-123.37,281.47-16.18,601.4,175.48,824.39,91.98,107.02,207.86,182.07,340.2,229.26,113.49,40.46,232.3,62.54,338.02,122.8,219.77,125.27,366.65,365.85,418.14,609.76,35.84,169.75-2.09,339.52-81.87,491.53-89.1,169.78-213.71,316.93-336.3,463.01-266.14,317.14-547.66,656.8-561.43,1091.28-9.3,293.56,122.17,561.65,297.85,788.97,178.78,231.33,396.84,434.72,627,614.12,473.92,369.4,1029.86,647.27,1618.01,778.06,320.64,71.3,657.53,94.91,979.49,17.99,311.76-74.49,575.07-259.34,861.46-393.88,293.29-137.79,615.63-177.6,934.75-208.07,339.95-32.46,678.79-71.18,1016.11-124.92,672.19-107.08,1336.77-264.44,1984.47-473.93,296.69-95.96,592.63-205.49,863.04-362.61,258.64-150.28,483.47-345.44,662.09-585.61,336.92-453.01,505.97-1075.54,378.24-1632.75-68.09-297.04-249.31-532.53-513-683.04-272.37-155.47-585.63-222.2-888.89-288.27-545.89-118.93-1192.84-274.46-1411.37-859.42-102.12-273.37-120.37-568.24-183.06-851.29-56.22-253.82-157.47-485.55-325.75-685.09-241.57-286.45-584.14-473.15-934.81-592.1C6827.02,77.79,6508.47-6.86,6183.12.44c-247.25,5.55-497.4,67.03-697.6,217.36-38.81,29.14-58.83,77.76-32.29,123.14,22.37,38.24,84.04,61.65,123.14,32.29Z"/>
    <path class="cls-1" d="M4754.27,1765.44c358.26-269.01,845.16-214.8,1250.74-98.85,254.34,72.72,484.22,152.36,707.98,287,170.22,102.42,329.1,232.23,447.63,392.91,154.27,209.12,221.34,449.99,266.8,702.75,50.09,278.44,81.93,562.81,204.05,821.61,120.03,254.37,334.84,446.64,580.74,576.78,268.28,141.98,563.46,212.86,857.96,277.16,295.16,64.45,604,121.86,871.79,268.35,115.7,63.29,225.12,144.36,304.34,251.16,86.26,116.29,134.12,254.26,159.71,395.62,48.17,266.09,18.55,548.87-57.41,806.8-76.48,259.7-206.7,505.96-382.27,712.44-189.85,223.28-427.48,391.68-688.67,522.1-273.53,136.58-566.01,231.66-857.77,320.75-321.36,98.13-646.53,183.73-974.46,256.91-324.72,72.46-652.16,132.74-981.35,180.99-326,47.78-653.6,74.39-980.8,111.29-322.23,36.33-628.03,103.21-919.14,250.24-273.99,138.39-529.37,304.69-836.92,358.78-312.27,54.92-636.84,8.54-939.9-73.79-277.67-75.43-546.24-182.11-800.65-316.4-255.02-134.62-496.53-295.67-716.77-481.93-216.47-183.07-430.37-388.63-581.44-630.38-130.55-208.91-197.31-447.06-145.75-691.29,40.32-190.97,137.86-360.44,251.58-517.07,225.41-310.47,533.06-576.84,669.26-944.07,160.59-433.01-67.59-967.79-459.1-1196.64-111.08-64.93-234.3-94.64-355.42-133.97-121.95-39.59-221.9-106.51-303.64-206.02-164.52-200.26-237.97-497.6-65.96-715.86,82.58-104.79,193.18-191.38,290.48-281.8,109.98-102.2,220.67-203.7,334.3-301.85,187.57-162.01,384.64-316.95,606.18-430.21,391.72-200.27,838.85-204.05,1240.43-28.41,182.05,79.62,350.45,186,516.75,293.85,141.73,91.91,282.9,186.97,440.06,250.87,131.96,53.65,280.03,72.6,414.83,17.7,200.74-81.77,284.03-261.71,337.08-459.39,25.75-95.95,48.12-194.74,90.09-285.26,51.62-111.32,126.24-201.52,222.86-276.91,38.36-29.93,31.4-95.88,0-127.28-37.86-37.86-88.82-30-127.28,0-103.2,80.52-188.27,183.08-245.26,301.18-49.83,103.25-80.05,212.67-109.36,323.02-23.96,90.26-45.52,179.1-99.45,254.83-21.39,30.03-55.29,60.65-90.79,81.44-8.31,4.87-16.86,9.2-25.35,13.73-4.94,2.64-22.05,10.01-7.7,4.1-16.63,6.84-33.89,12.36-51.35,16.67-7.34,1.81-14.74,3.22-22.13,4.77-17.58,3.68,12.11-.62-5.71,1.03-16.16,1.5-32.3,2.27-48.53,1.95-8.81-.17-17.55-.86-26.34-1.32-7.23-.38-22.55-2.6-6.38-.26-16.73-2.42-33.33-5.83-49.75-9.86-79.79-19.58-122.12-40.51-193.37-78.62-158.61-84.82-305.32-190.49-457.97-285.22-180.5-112.01-369.97-212.35-573.2-276.53-229.22-72.39-470.54-91.47-708.28-57.26-506.03,72.81-916.04,413.69-1283.72,744.53-120.57,108.49-238.96,219.39-357.28,330.33-91.7,85.98-179.23,173.82-230.55,290.92-123.37,281.47-16.18,601.4,175.48,824.39,91.98,107.02,207.86,182.07,340.2,229.26,113.49,40.46,232.3,62.54,338.02,122.8,219.77,125.27,366.65,365.85,418.14,609.76,35.84,169.75-2.09,339.52-81.87,491.53-89.1,169.78-213.71,316.93-336.3,463.01-266.14,317.14-547.66,656.8-561.43,1091.28-9.3,293.56,122.17,561.65,297.85,788.97,178.78,231.33,396.84,434.72,627,614.12,473.92,369.4,1029.86,647.27,1618.01,778.06,320.64,71.3,657.53,94.91,979.49,17.99,311.76-74.49,575.07-259.34,861.46-393.88,293.29-137.79,615.63-177.6,934.75-208.07,339.95-32.46,678.79-71.18,1016.11-124.92,672.19-107.08,1336.77-264.44,1984.47-473.93,296.69-95.96,592.63-205.49,863.04-362.61,258.64-150.28,483.47-345.44,662.09-585.61,336.92-453.01,505.97-1075.54,378.24-1632.75-68.09-297.04-249.31-532.53-513-683.04-272.37-155.47-585.63-222.2-888.89-288.27-545.89-118.93-1192.84-274.46-1411.37-859.42-102.12-273.37-120.37-568.24-183.06-851.29-56.22-253.82-157.47-485.55-325.75-685.09-241.57-286.45-584.14-473.15-934.81-592.1-305.7-103.7-624.25-188.35-949.6-181.06-247.25,5.55-497.4,67.03-697.6,217.36-38.81,29.14-58.83,77.76-32.29,123.14,22.37,38.24,84.04,61.65,123.14,32.29Z"/>
  </g>
</svg>