<?xml version="1.0" encoding="UTF-8"?>
<svg id="Layer_2" data-name="Layer 2" xmlns="http://www.w3.org/2000/svg" viewBox="0 0 462.81 298.76">
  <defs>
    <style>
      .cls-1 {
        fill: #161fff;
        stroke: #161fff;
        stroke-linecap: round;
        stroke-linejoin: round;
        stroke-width: .8px;
      }
    </style>
  </defs>
  <g id="BACKGROUND">
    <path class="cls-1" d="m436.07,163.56h-59.92c2.91-5.69,4.57-12.16,4.57-19.01v-1.6c0-16.09-9.11-30.08-22.24-36.73h54.69c14.49,0,26.34-12.28,26.34-27.28v-1.07c0-15-11.85-27.28-26.34-27.28h-88.58c6.43-4.99,10.62-12.94,10.62-21.85v-1.07c0-15-11.85-27.28-26.34-27.28H26.74C12.25.4.4,12.68.4,27.68v1.07c0,.09,0,.18,0,.27.11,12,10.81,21.58,23.69,21.58h107.66c5.88,0,11.33,2.02,15.73,5.43,6.43,4.99,10.62,12.94,10.62,21.85,0,10.51-5.82,19.67-14.29,24.22H54.24c-5.27,0-10.3,1.09-14.9,3.05-14.36,6.12-24.55,20.78-24.55,37.8v1.6c0,22.47,17.75,40.85,39.45,40.85h120.91c3.21,0,5.84,2.45,5.84,5.44h0c0,10.51-5.82,19.67-14.29,24.22h-89.57c-5.27,0-10.3,1.09-14.9,3.05-14.36,6.12-24.55,20.78-24.55,37.8v1.6c0,22.47,17.75,40.85,39.45,40.85h287.02c21.7,0,39.45-18.38,39.45-40.85v-1.6c0-16.09-9.11-30.08-22.24-36.73h54.69c14.49,0,26.34-12.28,26.34-27.28v-1.07c0-15-11.85-27.28-26.34-27.28Z"/>
  </g>
</svg>