<?xml version="1.0" encoding="UTF-8"?>
<svg id="Layer_2" data-name="Layer 2" xmlns="http://www.w3.org/2000/svg" viewBox="0 0 569.01 264.23">
  <defs>
    <style>
      .cls-1 {
        fill: blue;
      }

      .cls-2 {
        fill: #161fff;
      }
    </style>
  </defs>
  <g id="Layer_1-2" data-name="Layer 1">
    <g>
      <g>
        <path class="cls-2" d="m223.88,149.38c2.36,2.35,5.42,3.53,9.18,3.53v16.32c-6.29,0-11.64-1.4-16.05-4.19-4.41-2.79-7.64-6.8-9.69-12.02-3.69,9.34-10.46,14.01-20.3,14.01-3.97,0-7.67-1.12-11.12-3.36-3.45-2.24-6.22-5.4-8.31-9.49-2.09-4.08-3.13-8.69-3.13-13.84,0-6.4,1.45-12.02,4.36-16.87,2.9-4.85,6.92-8.58,12.05-11.19,5.13-2.61,10.9-3.92,17.33-3.92,2.46,0,4.68.15,6.66.44v-5.07h15.48v35.07c0,4.71,1.18,8.24,3.54,10.59Zm-43.42-54.82c-1.71-1.84-2.56-4.04-2.56-6.62s.85-4.78,2.56-6.62c1.71-1.84,3.76-2.76,6.15-2.76s4.44.92,6.15,2.76c1.71,1.84,2.56,4.04,2.56,6.62s-.86,4.78-2.56,6.62c-1.71,1.84-3.76,2.76-6.15,2.76s-4.44-.92-6.15-2.76Zm20.66,51.29c2.49-3.38,3.74-7.98,3.74-13.79v-7.5c-2.26-.37-4.27-.55-6.05-.55-5.54,0-10.1,1.45-13.69,4.36-3.59,2.91-5.38,6.82-5.38,11.75,0,3.46,1.06,6.12,3.18,8,2.12,1.87,4.85,2.81,8.2,2.81,4.17,0,7.5-1.69,10-5.07Zm-.26-51.29c-1.71-1.84-2.56-4.04-2.56-6.62s.85-4.78,2.56-6.62,3.76-2.76,6.15-2.76,4.44.92,6.15,2.76c1.71,1.84,2.56,4.04,2.56,6.62s-.86,4.78-2.56,6.62c-1.71,1.84-3.76,2.76-6.15,2.76s-4.44-.92-6.15-2.76Z"/>
        <path class="cls-2" d="m277.15,152.91v16.32c-10.87,0-18.22-3.23-22.04-9.71-2.46,3.09-5.55,5.48-9.28,7.17-3.73,1.69-7.98,2.54-12.77,2.54-2.32,0-4.27-.81-5.84-2.43-1.57-1.62-2.36-3.6-2.36-5.96s.75-4.26,2.26-5.74c1.5-1.47,3.49-2.21,5.95-2.21,3.76,0,6.83-1.18,9.23-3.53,2.39-2.35,3.59-5.88,3.59-10.59v-22.5h15.48v22.5c0,4.19,1.09,7.54,3.28,10.04,2.53,2.72,6.7,4.08,12.51,4.08Zm-29.32,42.02c-1.71-1.84-2.56-4.04-2.56-6.62s.85-4.78,2.56-6.62c1.71-1.84,3.76-2.76,6.15-2.76s4.44.92,6.15,2.76c1.71,1.84,2.56,4.04,2.56,6.62s-.86,4.78-2.56,6.62c-1.71,1.84-3.76,2.76-6.15,2.76s-4.44-.92-6.15-2.76Z"/>
        <path class="cls-2" d="m321.24,152.91v16.32c-10.87,0-18.22-3.23-22.04-9.71-2.46,3.09-5.55,5.48-9.28,7.17-3.73,1.69-7.98,2.54-12.77,2.54-2.32,0-4.27-.81-5.84-2.43-1.57-1.62-2.36-3.6-2.36-5.96s.75-4.26,2.26-5.74c1.5-1.47,3.49-2.21,5.95-2.21,3.76,0,6.83-1.18,9.23-3.53,2.39-2.35,3.59-5.88,3.59-10.59v-22.5h15.48v22.5c0,4.19,1.09,7.54,3.28,10.04,2.53,2.72,6.7,4.08,12.51,4.08Zm-29.94-49.3c-1.71-1.84-2.56-4.04-2.56-6.62s.85-4.78,2.56-6.62c1.71-1.84,3.76-2.76,6.15-2.76s4.44.92,6.15,2.76c1.71,1.84,2.56,4.04,2.56,6.62s-.86,4.78-2.56,6.62c-1.71,1.84-3.76,2.76-6.15,2.76s-4.44-.92-6.15-2.76Z"/>
        <path class="cls-2" d="m315.34,155.23c1.54-1.54,3.5-2.32,5.9-2.32h20.51v16.32h-20.51c-2.39,0-4.36-.77-5.9-2.32-1.54-1.54-2.31-3.49-2.31-5.85s.77-4.3,2.31-5.85Z"/>
        <path class="cls-2" d="m335.85,155.23c1.54-1.54,3.5-2.32,5.9-2.32h20.51v16.32h-20.51c-2.39,0-4.36-.77-5.9-2.32-1.54-1.54-2.31-3.49-2.31-5.85s.77-4.3,2.31-5.85Z"/>
        <path class="cls-2" d="m408.64,125.56c5.71,6.55,8.56,15.66,8.56,27.35v16.32h-54.96c-2.39,0-4.27-.81-5.64-2.43-1.37-1.62-2.05-3.53-2.05-5.74s.68-4.12,2.05-5.74c1.37-1.62,3.25-2.43,5.64-2.43h39.47c0-9.34-2.82-15.97-8.46-19.91-5.64-3.93-13.79-5.9-24.45-5.9l-3.08-20.74c6.9-5.59,14.27-10.02,22.1-13.29,7.83-3.27,17.34-5.86,28.56-7.78l2.26,16.32c-6.22.81-12.36,2.24-18.4,4.3-6.05,2.06-11.4,4.49-16.05,7.28,10.59,1.69,18.75,5.81,24.45,12.35Z"/>
      </g>
      <g>
        <path class="cls-2" d="m407.01,185.05v2.92h-4.72c-.74,0-1.37-.47-1.87-1.42-.49.95-1.11,1.42-1.87,1.42-.84,0-1.47.17-1.88.51-.41.34-.61.81-.61,1.42,0,1.3.93,1.95,2.78,1.95h2.58v2.9h-2.58c-1.77,0-3.14-.42-4.1-1.26-.96-.84-1.45-2.04-1.45-3.59,0-1.26.32-2.29.97-3.08.65-.79,1.57-1.32,2.78-1.59l-2.11-2.28v-.04c0-1.06.24-2.04.72-2.92.48-.88,1.14-1.57,1.98-2.08.84-.51,1.76-.76,2.77-.76s1.96.25,2.79.76c.84.51,1.5,1.2,1.98,2.08.48.88.72,1.85.72,2.92v.04l-1.96,2.11h3.06Zm-3.86-2.97c-.04-.29-.18-.58-.42-.89-.24-.3-.57-.55-.98-.76-.41-.2-.85-.31-1.33-.31s-.92.1-1.33.31c-.41.2-.74.46-.98.76-.24.3-.38.6-.42.89l2.73,3.01,2.73-3.01Z"/>
        <path class="cls-2" d="m416.22,177.89c.75.5,1.34,1.18,1.78,2.04.43.86.65,1.81.65,2.85s-.21,2.01-.64,2.79c-.43.78-1,1.38-1.7,1.78-.71.41-1.48.61-2.33.61-.66,0-1.31-.12-1.95-.37-.64-.25-1.24-.62-1.79-1.12-.37.49-.83.86-1.38,1.11-.56.26-1.17.38-1.84.38-.41,0-.76-.14-1.04-.43-.28-.29-.42-.64-.42-1.06s.13-.76.4-1.02c.27-.26.62-.39,1.06-.39.39,0,.69-.08.9-.23.21-.15.36-.36.45-.62.09-.26.2-.67.32-1.22.12-.56.21-.93.26-1.1.38-1.5.97-2.66,1.79-3.49.81-.83,1.8-1.24,2.96-1.24.94,0,1.79.25,2.54.75Zm-1,6.71c.44-.43.66-1.03.66-1.82s-.2-1.4-.6-1.9c-.4-.51-.93-.76-1.59-.76-.5,0-.91.18-1.22.54-.31.36-.59.94-.83,1.72-.12.38-.21.78-.27,1.2-.02.09-.05.2-.06.32-.02.12-.05.27-.1.42.35.3.74.53,1.15.68.41.15.82.23,1.21.23.67,0,1.23-.21,1.67-.64Z"/>
      </g>
      <g>
        <path class="cls-2" d="m346.51,187.59c0,1.26.36,2.2,1.09,2.83.73.62,1.83.94,3.32.94h1.81c1.16,0,1.99-.09,2.48-.26.49-.17.74-.51.74-1,0-.37-.1-.66-.29-.88-.2-.22-.44-.38-.74-.49-.3-.11-.74-.23-1.31-.36-.84-.2-1.5-.39-1.96-.57-1.01-.42-1.73-.98-2.15-1.68-.42-.7-.63-1.57-.63-2.59,0-.93.25-1.77.75-2.52.5-.75,1.21-1.33,2.12-1.75.92-.42,1.96-.63,3.13-.63,1.32,0,2.7.28,4.16.83l-.75,2.84c-1.34-.55-2.56-.83-3.66-.83-.92,0-1.64.19-2.18.56-.54.37-.81.88-.81,1.51,0,.35.08.65.23.88.15.23.45.46.91.68.45.22,1.12.46,2.01.71,1.16.33,2.11.8,2.84,1.43.73.62,1.1,1.59,1.1,2.89,0,1.39-.52,2.43-1.56,3.12-1.04.69-2.52,1.03-4.43,1.03h-1.81c-1.34,0-2.55-.22-3.63-.65-1.07-.43-1.93-1.1-2.56-2.01-.63-.91-.95-2.03-.95-3.37,0-.89.15-1.87.46-2.94h2.58c-.21.89-.31,1.66-.31,2.3Zm1.78,10.81c-.31-.33-.46-.72-.46-1.18s.15-.85.46-1.18c.31-.33.67-.49,1.1-.49s.79.16,1.1.49c.31.33.46.72.46,1.18s-.15.85-.46,1.18c-.31.33-.67.49-1.1.49s-.79-.16-1.1-.49Zm3.64,0c-.31-.33-.46-.72-.46-1.18s.15-.85.46-1.18c.3-.33.67-.49,1.1-.49s.79.16,1.1.49c.31.33.46.72.46,1.18s-.15.85-.46,1.18c-.31.33-.67.49-1.1.49s-.79-.16-1.1-.49Z"/>
        <path class="cls-2" d="m367.61,186.46v2.92h-1.9c0,1.41-.29,2.47-.88,3.19-.59.72-1.42,1.08-2.51,1.08-.72,0-1.49-.14-2.31-.43l.53-2.56c.56.14,1,.22,1.32.22.38,0,.65-.11.82-.33.17-.22.26-.61.26-1.16v-9.46h2.77v6.54h1.9Zm-4.43-8.77c-.31-.33-.46-.72-.46-1.18s.15-.85.46-1.18c.3-.33.67-.49,1.1-.49s.79.16,1.1.49c.31.33.46.72.46,1.18s-.15.85-.46,1.18-.67.49-1.1.49-.79-.16-1.1-.49Z"/>
        <path class="cls-2" d="m375.48,186.46v2.92c-1.94,0-3.25-.58-3.94-1.73-.44.55-.99.98-1.66,1.28-.67.3-1.43.45-2.28.45-.41,0-.76-.14-1.04-.43-.28-.29-.42-.64-.42-1.06s.13-.76.4-1.02c.27-.26.62-.39,1.06-.39.67,0,1.22-.21,1.65-.63.43-.42.64-1.05.64-1.89v-4.02h2.77v4.02c0,.75.2,1.35.59,1.79.45.49,1.2.73,2.23.73Zm-5.35-8.81c-.31-.33-.46-.72-.46-1.18s.15-.85.46-1.18.67-.49,1.1-.49.79.16,1.1.49c.3.33.46.72.46,1.18s-.15.85-.46,1.18c-.31.33-.67.49-1.1.49s-.79-.16-1.1-.49Z"/>
        <path class="cls-2" d="m374.43,186.88c.27-.28.63-.41,1.05-.41h3.66v2.92h-3.66c-.43,0-.78-.14-1.05-.41-.27-.28-.41-.62-.41-1.04s.14-.77.41-1.04Z"/>
        <path class="cls-2" d="m387.43,181.58c1.02,1.17,1.53,2.8,1.53,4.89v2.92h-9.82c-.43,0-.76-.14-1.01-.43-.24-.29-.37-.63-.37-1.02s.12-.74.37-1.02c.24-.29.58-.43,1.01-.43h7.05c0-1.67-.5-2.85-1.51-3.56-1.01-.7-2.46-1.05-4.37-1.05l-.55-3.7c1.23-1,2.55-1.79,3.95-2.37,1.4-.58,3.1-1.05,5.1-1.39l.4,2.92c-1.11.14-2.21.4-3.29.77-1.08.37-2.04.8-2.87,1.3,1.89.3,3.35,1.04,4.37,2.21Z"/>
      </g>
    </g>
    <path class="cls-1" d="m259.39,24.54c39.64-1.48,81.59-5.43,120.42,4.88,17.99,4.78,33.31,11.84,49.1,21.6,28.96,17.9,54.07,42.23,72.46,70.9,5.8,9.04,10.94,18.5,15.38,28.28,5.69,12.52,10.67,26.41,8.18,40.35-4.06,22.74-22.57,42.95-42.15,54.03-22.06,12.48-47.44,14.21-72.27,13.3-28.21-1.03-56.41-3.12-84.6-4.73-56.76-3.25-113.52-6.51-170.29-9.76-27.46-1.57-55.01-3.1-82.18-7.63-22.9-3.82-52.34-7.18-62.14-31.72-8.75-21.9-6.27-48.44.78-70.46,5.34-16.66,14.28-31.83,27.35-43.64,14.22-12.85,32.18-20.11,49.8-26.99,23.94-9.34,48.52-17,73.48-23.12,30.2-7.4,61.16-12.96,92.22-15.04,1.48-.1,2.97-.2,4.45-.25,3.85-.15,3.87-6.15,0-6-23.92.92-47.98,4.9-71.4,9.55-24.3,4.83-48.33,11.09-71.87,18.84-21.44,7.06-43.87,14.57-63.45,26.03C18.19,93.16.35,131.43,0,170.64c-.2,23.11,5.45,48.93,28.2,59.67,11.22,5.3,23.97,7.6,36.07,9.88,14.09,2.65,28.34,4.46,42.61,5.81,29.11,2.75,58.38,3.94,87.57,5.61,29.87,1.71,59.75,3.43,89.62,5.14,29.87,1.71,59.75,3.43,89.62,5.14,28.48,1.63,58.08,5.15,86.13-1.82,21.16-5.25,40.41-17.17,54.04-34.25,7.3-9.14,13.62-19.66,16.3-31.15,2.96-12.68.58-25.43-3.99-37.41-14.59-38.21-41.12-71.87-73.31-96.84-14.66-11.37-30.54-21.24-47.67-28.44-34.38-14.44-70.44-15.62-107.26-14.74-12.86.31-25.72.81-38.57,1.29-3.85.14-3.87,6.14,0,6Z"/>
    <path class="cls-1" d="m285.8,33.92c-8.54,1.54-17.12,2.75-25.81,2.8-5.76.04-11.5-.4-17.26-.37-20.24.09-40.87,3.94-60.33,9.25-29.71,8.1-57.01,21.88-80.96,41.21-13.17,10.63-25.29,22.65-31.53,38.73-7.51,19.36-4.32,41.83,6.53,59.31,11.22,18.08,30.17,28.27,49.2,36.34,21.6,9.15,44.38,14.99,67.61,18.07,98.34,13.01,193.84-23.05,291.39-27.51,20.83-.95,46.36.36,63.65-13.45,15.8-12.62,19.9-36.57,20.62-55.62,1.53-40.69-15.04-83.18-46.53-109.57C494.23,9.53,454.02-1.73,417.76.22c-19.33,1.04-39.31,4.42-57.91,9.76-15.35,4.4-29.63,11.6-44.76,16.62-9.57,3.18-19.39,5.48-29.29,7.33-3.79.71-2.19,6.49,1.6,5.79,17.04-3.19,33.1-8.33,49.09-14.92,15.66-6.46,31.42-11.22,48.12-14.23,19.06-3.44,38.28-5.87,57.66-3.75,17.64,1.93,35.61,7.45,51.62,15.12,35.59,17.04,58.72,50.85,66.41,89.07,4.06,20.21,4.02,42.01-2.57,61.7-3.34,9.98-8.73,19.07-18.2,24.26-10.09,5.53-22.32,7.06-33.62,7.85-23.19,1.62-46.22,2.34-69.31,5.36-23.35,3.05-46.55,7.12-69.75,11.16-45,7.83-90.34,15.53-136.17,14.68-43.17-.8-89.8-9.11-126.86-32.53-18.45-11.66-31.08-30.87-32-53.01-.85-20.47,9.65-37.91,24.33-51.33,19.97-18.26,43.61-32.56,69.03-41.79,19.54-7.09,40.11-11.66,60.76-13.95,12.7-1.41,25.19-.24,37.88-.75,7.92-.32,15.79-1.52,23.58-2.93,3.79-.68,2.19-6.47-1.6-5.79Z"/>
  </g>
</svg>