<?xml version="1.0" encoding="UTF-8"?>
<svg id="Layer_2" data-name="Layer 2" xmlns="http://www.w3.org/2000/svg" viewBox="0 0 607.5 287.57">
  <defs>
    <style>
      .cls-1 {
        fill: #161fff;
      }
    </style>
  </defs>
  <g id="Layer_1-2" data-name="Layer 1">
    <g>
      <g>
        <path class="cls-1" d="m142.01,169.24c5.64,5.63,12.95,8.44,21.93,8.44v39.01c-15.03,0-27.81-3.34-38.35-10.02-10.54-6.68-18.26-16.25-23.16-28.73-8.82,22.32-25,33.48-48.52,33.48-9.48,0-18.34-2.68-26.59-8.04-8.25-5.36-14.87-12.92-19.85-22.67-4.99-9.75-7.47-20.78-7.47-33.08,0-15.29,3.47-28.73,10.42-40.33,6.94-11.6,16.54-20.52,28.79-26.76,12.25-6.24,26.06-9.36,41.42-9.36,5.88,0,11.19.35,15.93,1.05v-12.13h37v83.83c0,11.25,2.82,19.68,8.45,25.31ZM38.23,38.22c-4.09-4.39-6.13-9.66-6.13-15.82s2.04-11.42,6.13-15.82c4.08-4.39,8.98-6.59,14.7-6.59s10.62,2.2,14.7,6.59c4.08,4.39,6.13,9.67,6.13,15.82s-2.04,11.43-6.13,15.82c-4.09,4.4-8.99,6.59-14.7,6.59s-10.62-2.2-14.7-6.59Zm49.38,122.58c5.96-8.08,8.94-19.07,8.94-32.95v-17.93c-5.39-.88-10.21-1.32-14.46-1.32-13.23,0-24.14,3.47-32.72,10.41-8.58,6.94-12.87,16.3-12.87,28.07,0,8.26,2.53,14.63,7.6,19.11,5.06,4.48,11.6,6.72,19.6,6.72,9.96,0,17.93-4.04,23.89-12.13Zm-.61-122.58c-4.09-4.39-6.13-9.66-6.13-15.82s2.04-11.42,6.13-15.82c4.08-4.39,8.98-6.59,14.7-6.59s10.62,2.2,14.7,6.59c4.08,4.39,6.13,9.67,6.13,15.82s-2.04,11.43-6.13,15.82c-4.09,4.4-8.99,6.59-14.7,6.59s-10.62-2.2-14.7-6.59Z"/>
        <path class="cls-1" d="m269.32,177.67v39.01c-25.98,0-43.54-7.73-52.69-23.2-5.88,7.38-13.28,13.09-22.18,17.13-8.91,4.04-19.08,6.06-30.51,6.06-5.55,0-10.21-1.93-13.97-5.8-3.76-3.86-5.64-8.61-5.64-14.24s1.8-10.19,5.39-13.71c3.6-3.51,8.33-5.27,14.21-5.27,8.98,0,16.33-2.81,22.06-8.44,5.72-5.62,8.58-14.06,8.58-25.31v-53.78h37v53.78c0,10.02,2.61,18.02,7.84,23.99,6.04,6.5,16.01,9.75,29.9,9.75Zm-70.09,100.44c-4.09-4.39-6.13-9.67-6.13-15.82s2.04-11.43,6.13-15.82c4.08-4.4,8.98-6.59,14.7-6.59s10.62,2.2,14.7,6.59c4.08,4.39,6.13,9.66,6.13,15.82s-2.04,11.42-6.13,15.82c-4.09,4.39-8.99,6.59-14.7,6.59s-10.62-2.2-14.7-6.59Z"/>
        <path class="cls-1" d="m374.7,177.67v39.01c-25.98,0-43.54-7.73-52.69-23.2-5.88,7.38-13.28,13.09-22.18,17.13-8.91,4.04-19.08,6.06-30.51,6.06-5.55,0-10.21-1.93-13.97-5.8-3.76-3.86-5.64-8.61-5.64-14.24s1.8-10.19,5.39-13.71c3.6-3.51,8.33-5.27,14.21-5.27,8.98,0,16.33-2.81,22.06-8.44,5.72-5.62,8.58-14.06,8.58-25.31v-53.78h37v53.78c0,10.02,2.61,18.02,7.84,23.99,6.04,6.5,16.01,9.75,29.9,9.75Zm-71.56-117.83c-4.09-4.39-6.13-9.66-6.13-15.82s2.04-11.42,6.13-15.82,8.98-6.59,14.7-6.59,10.62,2.2,14.7,6.59c4.08,4.39,6.13,9.67,6.13,15.82s-2.04,11.43-6.13,15.82c-4.09,4.4-8.99,6.59-14.7,6.59s-10.62-2.2-14.7-6.59Z"/>
        <path class="cls-1" d="m360.61,183.21c3.68-3.69,8.37-5.54,14.09-5.54h49.01v39.01h-49.01c-5.72,0-10.41-1.85-14.09-5.54-3.68-3.69-5.51-8.34-5.51-13.97s1.84-10.28,5.51-13.97Z"/>
        <path class="cls-1" d="m409.62,183.21c3.68-3.69,8.37-5.54,14.09-5.54h49.01v39.01h-49.01c-5.72,0-10.41-1.85-14.09-5.54-3.68-3.69-5.51-8.34-5.51-13.97s1.84-10.28,5.51-13.97Z"/>
        <path class="cls-1" d="m583.61,112.3c13.64,15.64,20.46,37.43,20.46,65.38v39.01h-131.35c-5.72,0-10.21-1.93-13.48-5.8-3.27-3.86-4.9-8.44-4.9-13.71s1.63-9.84,4.9-13.71c3.27-3.86,7.76-5.8,13.48-5.8h94.35c0-22.32-6.74-38.18-20.22-47.58-13.48-9.4-32.96-14.1-58.45-14.1l-7.35-49.56c16.5-13.35,34.1-23.94,52.81-31.77,18.71-7.82,41.45-14.01,68.25-18.58l5.39,39.01c-14.87,1.94-29.53,5.36-43.99,10.28-14.46,4.92-27.24,10.72-38.35,17.4,25.32,4.04,44.8,13.88,58.45,29.52Z"/>
      </g>
      <g>
        <path class="cls-1" d="m579.71,254.47v6.97h-11.29c-1.78,0-3.27-1.13-4.46-3.39-1.17,2.26-2.66,3.39-4.46,3.39-2.01,0-3.51.41-4.49,1.22-.98.82-1.47,1.95-1.47,3.39,0,3.11,2.22,4.66,6.65,4.66h6.17v6.92h-6.17c-4.23,0-7.5-1-9.8-3.01-2.31-2.01-3.46-4.87-3.46-8.57,0-3.01.77-5.47,2.32-7.37,1.55-1.9,3.76-3.16,6.65-3.79l-5.03-5.46v-.09c0-2.54.58-4.86,1.73-6.97,1.15-2.1,2.73-3.76,4.73-4.97,2-1.21,4.21-1.81,6.63-1.81s4.68.6,6.67,1.81c2,1.21,3.57,2.86,4.73,4.97,1.15,2.1,1.73,4.43,1.73,6.97v.09l-4.68,5.04h7.31Zm-9.24-7.11c-.09-.69-.42-1.4-1.01-2.12-.58-.72-1.36-1.33-2.34-1.81-.98-.49-2.04-.73-3.17-.73s-2.2.24-3.17.73c-.98.49-1.76,1.09-2.34,1.81-.58.72-.92,1.43-1.01,2.12l6.52,7.2,6.52-7.2Z"/>
        <path class="cls-1" d="m601.71,237.38c1.79,1.19,3.21,2.82,4.25,4.87,1.04,2.06,1.55,4.32,1.55,6.8s-.51,4.79-1.53,6.66c-1.02,1.87-2.38,3.29-4.07,4.26-1.69.97-3.55,1.46-5.56,1.46-1.58,0-3.13-.3-4.66-.89-1.53-.6-2.95-1.49-4.27-2.68-.88,1.16-1.98,2.05-3.3,2.66-1.33.61-2.79.92-4.4.92-.99,0-1.82-.35-2.49-1.04-.67-.69-1.01-1.54-1.01-2.54s.32-1.82.96-2.45c.64-.63,1.49-.94,2.54-.94.93,0,1.65-.18,2.14-.54.5-.36.85-.85,1.07-1.48.22-.63.47-1.6.77-2.92.29-1.35.5-2.23.61-2.64.9-3.58,2.33-6.36,4.27-8.33,1.94-1.98,4.3-2.97,7.07-2.97,2.25,0,4.27.6,6.06,1.79Zm-2.39,16.03c1.05-1.02,1.58-2.47,1.58-4.36s-.48-3.33-1.44-4.54c-.96-1.21-2.23-1.81-3.81-1.81-1.2,0-2.17.43-2.91,1.29-.74.86-1.41,2.24-1.99,4.12-.29.91-.51,1.87-.66,2.87-.06.22-.11.48-.15.78-.04.3-.12.64-.24,1.01.85.72,1.77,1.26,2.76,1.62.99.36,1.95.54,2.89.54,1.6,0,2.93-.51,3.98-1.53Z"/>
      </g>
      <g>
        <path class="cls-1" d="m435.11,260.55c0,3.01.87,5.26,2.6,6.76,1.74,1.49,4.38,2.24,7.94,2.24h4.33c2.77,0,4.75-.2,5.93-.61,1.18-.41,1.77-1.21,1.77-2.4,0-.88-.23-1.58-.7-2.1-.47-.52-1.06-.91-1.77-1.18-.72-.27-1.76-.56-3.13-.87-2.01-.47-3.57-.93-4.68-1.37-2.42-1-4.14-2.35-5.14-4.03-1.01-1.68-1.51-3.74-1.51-6.19,0-2.23.6-4.24,1.79-6.03,1.2-1.79,2.89-3.19,5.08-4.19,2.19-1,4.68-1.51,7.48-1.51,3.15,0,6.46.66,9.94,1.98l-1.79,6.78c-3.21-1.32-6.13-1.98-8.75-1.98-2.19,0-3.92.45-5.21,1.34-1.28.89-1.93,2.1-1.93,3.6,0,.85.18,1.55.55,2.1.36.55,1.09,1.09,2.17,1.62,1.08.53,2.68,1.1,4.81,1.69,2.77.79,5.03,1.92,6.78,3.41,1.75,1.49,2.63,3.79,2.63,6.9,0,3.33-1.24,5.81-3.72,7.46-2.48,1.65-6.01,2.47-10.59,2.47h-4.33c-3.21,0-6.1-.52-8.67-1.55-2.57-1.04-4.61-2.64-6.13-4.8-1.52-2.17-2.28-4.85-2.28-8.05,0-2.13.36-4.47,1.09-7.02h6.17c-.5,2.13-.74,3.97-.74,5.51Zm4.25,25.85c-.73-.78-1.09-1.73-1.09-2.82s.36-2.04,1.09-2.82c.73-.79,1.6-1.18,2.63-1.18s1.9.39,2.63,1.18c.73.78,1.09,1.73,1.09,2.82s-.37,2.04-1.09,2.82c-.73.78-1.61,1.18-2.63,1.18s-1.9-.39-2.63-1.18Zm8.71,0c-.73-.78-1.09-1.73-1.09-2.82s.36-2.04,1.09-2.82c.73-.79,1.6-1.18,2.63-1.18s1.9.39,2.63,1.18c.73.78,1.09,1.73,1.09,2.82s-.37,2.04-1.09,2.82c-.73.78-1.6,1.18-2.63,1.18s-1.9-.39-2.63-1.18Z"/>
        <path class="cls-1" d="m485.53,257.86v6.97h-4.55c0,3.36-.7,5.9-2.1,7.63-1.4,1.73-3.4,2.59-6,2.59-1.72,0-3.56-.35-5.51-1.04l1.27-6.12c1.34.35,2.39.52,3.15.52.9,0,1.56-.27,1.97-.8.41-.53.61-1.46.61-2.78v-22.6h6.61v15.63h4.55Zm-10.59-20.95c-.73-.78-1.09-1.73-1.09-2.82s.36-2.04,1.09-2.82c.73-.78,1.6-1.18,2.63-1.18s1.9.39,2.63,1.18c.73.78,1.09,1.73,1.09,2.82s-.37,2.04-1.09,2.82c-.73.78-1.61,1.18-2.63,1.18s-1.9-.39-2.63-1.18Z"/>
        <path class="cls-1" d="m504.35,257.86v6.97c-4.64,0-7.78-1.38-9.41-4.14-1.05,1.32-2.37,2.34-3.96,3.06-1.59.72-3.41,1.08-5.45,1.08-.99,0-1.82-.35-2.49-1.04-.67-.69-1.01-1.54-1.01-2.54s.32-1.82.96-2.45c.64-.63,1.49-.94,2.54-.94,1.6,0,2.92-.5,3.94-1.51,1.02-1,1.53-2.51,1.53-4.52v-9.6h6.61v9.6c0,1.79.47,3.22,1.4,4.28,1.08,1.16,2.86,1.74,5.34,1.74Zm-12.78-21.05c-.73-.78-1.09-1.73-1.09-2.82s.36-2.04,1.09-2.82,1.6-1.18,2.63-1.18,1.9.39,2.63,1.18c.73.78,1.09,1.73,1.09,2.82s-.37,2.04-1.09,2.82c-.73.78-1.61,1.18-2.63,1.18s-1.9-.39-2.63-1.18Z"/>
        <path class="cls-1" d="m501.83,258.85c.66-.66,1.5-.99,2.52-.99h8.75v6.97h-8.75c-1.02,0-1.86-.33-2.52-.99-.66-.66-.98-1.49-.98-2.5s.33-1.84.98-2.5Z"/>
        <path class="cls-1" d="m532.91,246.19c2.44,2.79,3.65,6.69,3.65,11.68v6.97h-23.46c-1.02,0-1.82-.35-2.41-1.04-.58-.69-.88-1.51-.88-2.45s.29-1.76.88-2.45c.58-.69,1.39-1.04,2.41-1.04h16.85c0-3.99-1.2-6.82-3.61-8.5-2.41-1.68-5.89-2.52-10.44-2.52l-1.31-8.85c2.95-2.38,6.09-4.28,9.43-5.67,3.34-1.4,7.4-2.5,12.19-3.32l.96,6.97c-2.66.35-5.27.96-7.86,1.84-2.58.88-4.87,1.91-6.85,3.11,4.52.72,8,2.48,10.44,5.27Z"/>
      </g>
    </g>
  </g>
</svg>