<?xml version="1.0" encoding="UTF-8"?>
<svg id="Layer_2" data-name="Layer 2" xmlns="http://www.w3.org/2000/svg" viewBox="0 0 1293.49 1100">
  <defs>
    <style>
      .cls-1 {
        fill: #000;
        stroke-width: 0px;
      }

      .cls-2 {
        fill: blue;
      }

      .cls-2, .cls-3 {
        stroke: #000;
        stroke-miterlimit: 10;
      }

      .cls-3 {
        fill: none;
        stroke-width: 14px;
      }
    </style>
  </defs>
  <g id="Layer_1-2" data-name="Layer 1">
    <g>
      <path class="cls-3" d="M108.1,316.25c-27.02-27.1-56.33-49.78-89.37-69.09,8.58-9.71,17.16-19.43,25.75-29.14,17.8,12.32,34.53,25.5,50.68,39.93-7.65-22.48-17.59-43.74-28.89-64.59,9.49-10.74,18.98-21.49,28.48-32.23,21.86,42.96,36.71,87.27,44.04,134.94,11.59,26.02,20.67,52.38,27.52,80.02-11.44,4.33-22.89,8.67-34.33,13-5.91-25.19-13.74-49.03-23.86-72.84Z"/>
      <path class="cls-3" d="M181.69,164.12c7.31,10.08,14.27,20.42,20.85,30.99,10.21-7.85,20.43-15.7,30.64-23.55,10.92,17.64,20.94,35.59,30.23,54.14-11,6.71-21.99,13.43-32.99,20.14,5.28,11.04,10.17,22.27,14.66,33.66,14.12-7.34,28.24-14.69,42.36-22.03,8.3,21.24,15.48,42.62,21.65,64.56-26.35,9.98-52.71,19.96-79.06,29.93-21.28-80.19-60.51-151.05-116.04-212.61,18.65-21.11,37.3-42.22,55.95-63.33,16.87,18.08,32.6,36.79,47.47,56.55-11.9,10.52-23.81,21.03-35.71,31.55Z"/>
      <path class="cls-3" d="M319.37,261.39c.66-17.48.66-34.83.02-52.31,9.63,8.88,25.12,24.55,38.44,18.96,4.18-1.75,8.73-10.16,2.91-23.41-7.47-17-25.29-25.3-41.71-31.47-32.5-13-57.61-37.25-77.59-64.39-14.9-20.24-47.01-67.93-24.96-93.15,18.24-20.86,54.42,1.19,71.56,12.87,6.44,18.2,12.19,36.49,17.29,55.11-8.43-5.74-22.57-16.32-31.99-8.99-4.69,3.64-1.89,14.25,4.12,22.16,9.81,12.92,26.59,16.38,41.58,21.01,37.53,12.24,63.43,43.53,78.21,77.4,11.46,26.26,27.88,86.99-11.23,102.21-26.1,10.16-52.55-17.68-66.64-36Z"/>
      <path class="cls-1" d="M178.16,524.29c3.79-40.2,18.55-109.1,67.34-115.99,58.85-8.31,73.15,78.12,70.1,118-3.31,43.35-34.28,128.67-94.74,108.81-43.32-14.23-46.26-73.06-42.7-110.81ZM278.9,525.03c1.72-18.27-1.81-62.04-29.18-60.47-25.09,1.44-32.37,40.23-34.87,59.68-2.3,17.89-1.66,55.15,21.9,58.78,28.07,4.32,40.24-37.77,42.15-57.99Z"/>
      <path class="cls-1" d="M403.21,555.84c7.32,39.78,11.08,79.5,11.49,119.94l-38.6-9.08c-.08-37.31-3.14-73.98-9.39-110.77-5.54,35.01-13.7,69.04-24.7,102.74-11.91-2.8-23.82-5.61-35.73-8.41,27.87-84.25,35.95-171.01,24.97-259.03,14.76-3.54,29.53-7.07,44.29-10.61,45.8-10.74,57.28,67.85,57.29,94.65.01,26.02-4.5,64.24-29.63,80.56ZM371.86,505.87c3.91-.05,5.86-.08,9.76-.13,13.71-1.07,15.42-18.87,15.37-27.95-.04-8.16-1.5-27.11-14.47-27.71-3.88.48-5.81.71-9.69,1.19.32,18.25,0,36.37-.98,54.6Z"/>
      <path class="cls-3" d="M237.87,698.3c-37.4,71.48-88.88,130.98-154.28,178.2-3.27-3.71-4.91-5.57-8.18-9.28,15.69-35.92,26.37-72.25,31.84-111.08-22.05,23.42-45.89,44-72.26,62.44-8.15-9.16-16.31-18.31-24.46-27.47,51.48-35.18,91.89-79.36,122.59-133.62,4.71,1.74,7.06,2.6,11.77,4.34,5.07,36.76,5.07,72.72.56,109.55,22.32-26.85,41.39-55.23,57.88-85.99,11.52,4.3,23.03,8.6,34.55,12.9Z"/>
      <path class="cls-3" d="M200.23,814.74c25.64-32.37,84.16-109.18,134.12-84.51,59.31,29.3,2.91,132.14-21.92,164.03-24.62,31.62-57.81,61.51-97.88,74.04-22.07,6.9-51.35,8.68-65.68-12.34-29.07-42.63,26.24-109.51,51.36-141.22ZM282.98,872.29c11.53-14.39,43.61-65.2,18.04-80.37-23.27-13.8-57.79,27.84-70.42,43.45-12.06,14.9-44.39,55.74-26.06,74.53,21.6,22.15,66.14-22.25,78.45-37.61Z"/>
      <path class="cls-2" d="M256.19,1011c9.59-8.23,41.78-32.46,53.15-21.47,12.47,12.05-14.23,42.1-24.08,50.74-9.41,8.24-45.4,32.75-55.97,18.85-9.95-13.08,16.75-39.41,26.91-48.12ZM328.78,944.83c17.17-19.22,36.8-35.32,57.92-49.96,13.18-9.13,28.77-17.47,38.2-30.76,5.11-7.21,10.72-24.02,1.09-28.25-11.11-4.87-25.53,8.18-34.77,15.59,7.59-19.39,14.41-38.93,20.52-58.83,11.88-13.72,33.43-31.65,52.28-25.14,36.02,12.44,6.55,83.73-5.1,103.36-13.45,22.67-29.6,40.89-52.31,55.02-19.13,11.9-36.25,23.4-51.77,40.06-2.54,2.78-7.81,8.18-10.08,11.18-8.78-6.86-17.56-13.72-26.34-20.58,1.57-1.98,3.33-3.82,10.36-11.69Z"/>
    </g>
  </g>
</svg>