<?xml version="1.0" encoding="UTF-8"?>
<svg id="Layer_2" data-name="Layer 2" xmlns="http://www.w3.org/2000/svg" viewBox="0 0 510.19 1070.64">
  <defs>
    <style>
      .cls-1 {
        fill: #000;
        stroke-width: 0px;
      }

      .cls-2 {
        fill: blue;
      }

      .cls-2, .cls-3, .cls-4 {
        stroke: #000;
        stroke-miterlimit: 10;
      }

      .cls-3 {
        stroke-width: 7px;
      }

      .cls-3, .cls-4 {
        fill: none;
      }

      .cls-4 {
        stroke-width: 6px;
      }
    </style>
  </defs>
  <g id="Layer_1-2" data-name="Layer 1">
    <g>
      <path class="cls-4" d="M103.72,316.65c-27.49-27.04-57.28-49.51-90.82-68.51,8.52-9.92,17.05-19.85,25.57-29.77,18.13,12.2,35.17,25.27,51.64,39.65-7.98-22.61-18.3-43.95-29.99-64.84,9.43-10.98,18.86-21.95,28.28-32.93,22.72,43.09,38.26,87.64,46.1,135.75,11.91,26.12,21.26,52.6,28.33,80.42-11.52,4.44-23.05,8.89-34.57,13.33-6.09-25.31-14.15-49.23-24.54-73.1Z"/>
      <path class="cls-4" d="M176.33,162.31c7.53,10.12,14.69,20.5,21.47,31.13,10.23-8.03,20.45-16.06,30.67-24.09,11.25,17.75,21.59,35.81,31.17,54.51-11.04,6.87-22.08,13.75-33.11,20.62,5.44,11.12,10.49,22.43,15.12,33.91,14.19-7.52,28.38-15.05,42.58-22.57,8.57,21.42,15.99,43,22.38,65.17-26.54,10.23-53.07,20.46-79.61,30.7-22.04-80.97-62.47-152.18-119.49-213.68,18.52-21.57,37.05-43.13,55.57-64.7,17.38,18.11,33.58,36.87,48.91,56.73-11.89,10.75-23.77,21.51-35.66,32.26Z"/>
      <path class="cls-4" d="M316.52,259.58c.51-17.7.34-35.26-.49-52.94,9.8,8.91,25.61,24.69,39.03,18.94,4.2-1.8,8.72-10.34,2.7-23.73-7.72-17.16-25.81-25.45-42.5-31.59-33.02-12.93-58.71-37.28-79.3-64.54-15.3-20.25-48.76-69.25-26.78-94.06,18.14-20.47,54.56.13,72.7,12.34,6.98,18.24,13.18,36.83,18.35,55.67-8.58-5.72-23.06-16.34-32.51-8.83-4.68,3.72-1.42,14.22,4.5,22.4,9.42,13.03,27.88,16.46,42.35,20.93,38.14,12.57,64.59,43.3,79.97,77.87,11.77,26.45,29.06,87.96-10.44,103.6-26.32,10.42-53.24-17.68-67.59-36.08Z"/>
      <path class="cls-1" d="M175.25,525.52c3.8-40.54,18.39-109.67,67.67-117.06,59.64-8.95,74.1,79.01,71.05,118.97-3.34,43.8-34.65,129.97-95.71,109.74-43.58-14.44-46.58-73.57-43.01-111.65ZM276.93,526.18c1.72-18.44-1.91-62.63-29.55-60.97-25.29,1.52-33.06,40.99-35.09,60.23-1.87,17.73-2.19,55.48,22.1,59.24,28.34,4.39,40.63-38.09,42.54-58.5Z"/>
      <path class="cls-1" d="M402.41,557.27c7.38,40.29,11.1,80.5,11.39,121.46-12.98-3.09-25.95-6.18-38.93-9.27.04-37.76-3-74.86-9.3-112.09-5.6,35.42-13.89,69.83-25.09,103.9-12.01-2.86-24.03-5.72-36.04-8.58,28.37-85.13,36.44-172.86,24.96-261.83,14.89-3.63,29.77-7.26,44.66-10.89,46.29-11.05,58.09,68.66,58.16,95.68.07,26.32-4.42,65.05-29.82,81.61ZM370.73,506.72c3.94-.06,5.91-.09,9.85-.15,13.86-1.11,15.53-19.13,15.47-28.31-.06-8.25-1.56-27.43-14.68-28.02-3.91.49-5.87.74-9.78,1.23.37,18.47.08,36.8-.87,55.25Z"/>
      <path class="cls-3" d="M235.21,700.99c-38.13,72.06-90.62,131.73-157.26,178.7-3.26-3.79-4.89-5.68-8.15-9.46,16.33-36.03,27.5-72.61,33.26-111.76-22.43,23.42-46.66,43.9-73.46,62.18-8.12-9.34-16.23-18.68-24.35-28.02,52.22-34.78,93.23-78.83,124.4-133.27,4.75,1.77,7.12,2.66,11.86,4.43,5,37.08,4.79,73.29-.03,110.38,22.73-26.91,42.13-55.4,58.91-86.36,11.6,4.39,23.21,8.78,34.81,13.17Z"/>
      <path class="cls-3" d="M196.43,818.36c26.13-32.46,85.74-109.85,136.01-84.73,59.92,29.94,1.89,133.88-23.42,165.9-25.08,31.74-59.27,62.2-99.93,74.34-22.21,6.63-52.09,8.34-66.25-13.18-28.72-43.65,27.97-110.5,53.59-142.33ZM279.49,877.11c11.75-14.48,44.69-65.71,18.92-81.21-23.4-14.08-58.61,27.87-71.49,43.52-12.3,14.96-45.44,56.31-27.15,75.17,21.6,22.27,67.1-21.94,79.72-37.48Z"/>
      <path class="cls-2" d="M250.68,1017.33c9.78-8.22,42.75-32.56,54.1-21.35,12.47,12.31-15.02,42.57-25.09,51.21-9.59,8.23-46.51,32.81-56.99,18.64-9.87-13.33,17.61-39.78,27.99-48.5ZM325,950.83c17.58-19.35,37.59-35.55,59.1-50.28,13.33-9.13,29.39-17.6,38.89-31,5.16-7.28,11.03-24.3,1.33-28.62-11.19-4.99-25.89,8.21-35.25,15.66,7.83-19.61,14.86-39.38,21.17-59.52,13.13-13.26,33.1-32.27,52.95-25.32,36.4,12.74,5.98,85-5.88,104.76-13.76,22.92-30.29,41.36-53.4,55.56-19.34,11.88-37.19,23.45-52.79,40.29-2.6,2.8-8,8.24-10.33,11.26-8.8-7-17.6-14.01-26.4-21.01,1.62-2,3.42-3.84,10.62-11.77Z"/>
    </g>
  </g>
</svg>